<mxfile host="65bd71144e" scale="5" border="0">
    <diagram id="mf7g41PO60ovqItOdZr8" name="Page-1">
        <mxGraphModel dx="866" dy="817" grid="1" gridSize="10" guides="1" tooltips="1" connect="1" arrows="1" fold="1" page="1" pageScale="1" pageWidth="1169" pageHeight="827" math="0" shadow="0">
            <root>
                <mxCell id="0"/>
                <mxCell id="1" parent="0"/>
                <mxCell id="2" value="" style="shape=image;verticalLabelPosition=bottom;labelBackgroundColor=default;verticalAlign=top;aspect=fixed;imageAspect=0;image=data:image/png,iVBORw0KGgoAAAANSUhEUgAAAjAAAADtCAYAAAChzk+3AAAAAXNSR0IArs4c6QAAAARnQU1BAACxjwv8YQUAAAAJcEhZcwAAFxEAABcRAcom8z8AAP+lSURBVHhe7N0FXFT5+sdx/3vv3ru9a3eLlIoBKgqKohiAKBaI3YkCdnd3d/eqa3d3d2JhYLdu3nv3+3+eMxwchmfgTIJ7775en9fAMAyDK5y3z/mdc9L88a9/I9n+kPqX5n43td+195um/pD7LXG/WtKvH/slvt9N7xddP5vdb/jA/Wx679U+GOtXsXeGvdfW20T9grfvjPcmud4a9jNeJ9WbxL1Ktg949fpjL7X2SteLBL1Psucvtffs5Ts8e2FaT7nnUm8T9cSwZ0n3OFFv8Php0j0y1pPExT55ra3HCXuouVe6Hr3CAwu7z8Ua66Wm7iXXQ3N6gRhb9CD57tqr+9bpjtjzhN2zvNtJFSP1LNlumdJd07uZQiUGjD2hoh9BI7lknEgRRuyIlYRgMRMtlIwRLckY0VrSYOGsA5bEWOFkqOgnQkXNACyvlQgiSUUIMQ0tCcFiOVqShouEk6STcSKlgIUT0aJmBC6EEC0lhgtFCDGWCBY1AS6cCBXDCCGmw+UjWtQkkGhNBouaDBX9RKgYJsIkqV7EJ+LDkggMWhOxYc0IGNYqWbwQLqyRiBZOhAsng0U/ESlSBAJTk1Bhz3SASYQWTkaKlAgSLRE2kksGimEEEmMRNqwKF05Ei5lwIYCYN235LT4JJVpKetqSGC1cIrhwBBEtJYKLJXgxgIuaCBY1wohpcImLIGIuXkyBywsRJ8Z7xunhREumTFy4FJu4cCJcksELIcQ8uKhZBy6c8amLjBXDRKwYJgIlqWwEF47QoCURG9aMcGHNksWLlQAjwkXtf3gRSyOBJKlEiGiJoKElGSiGEUQ0QEVNRIgpEU4So8UAIlojfJi/e8j+YOHMAUtCrMRF8EguEStqAlg+9V1EpqLFlGkLFz9x4US4cOajhUsMF4oAYiwRK/oZoEUHF8JIchFAzIMLgUVv8iJhRGsKWjgRLpyMFcNErHAiSrT0XzBx4QgX1i5JvBAurJGIFs5MuHAiVKQIAqYmYSIlShYwIka0RthILhkoxiKQaISLCBFTEtFiAV5EkGhJb9JiBl7i0aKmES+J0KJGEEmuhHAhmNho2mIqXmSsGEQQMRcvCeFiC7yYNnFJGi4J0aJmGVwIKMlMXUSwqIlwMR0vMlKM9REuVsGLiBY1GSuGiXBRE3GSXDbaZURg0JqIDWtHuLBmieGiRuiwIl44a+OFE7EiRRDQmoSIlCwBYESEaI2AoSUZJoYRQqQIFlIiQEyJUJI6sMJZBhY141jhEoNFzRSoqCUES1wEj+QSscKJWOHiYJJUhBDT0GI+WOSJSzJwEVCSVKYuzE1+4pIEWjiCSHKJcCGAJJUIFs4ALPqJUNGPAGKYjBQp68GFk8HCyUiREsGiJsIkuf63zsXcjKLFHnBRMxMwIlKMRQjQmgSIlC6NiJGkImBoTcaJYYQQYxEupESEmBLBJFWCxQAhppT0hIVLBixqhI/kSgwWAolNJiymL8iVkWIYYUUPLiJQpAgnJqOFEGLObiKzdhWJYOGSAAtHCEkuES3JTFxEsHACVtREqOhH+JCSkWLYR7RICDG11Lu7SJeID0siMGhNxIa1I1hYs8RoUSNs2AAw2tGiJoNFPxEphtGG35QkONinp7ruGE87YAgbWpOhYhhhRIqAYSwRI1ojnBiWcmjh9KYsFuDF1F1DnDloUTMHLpwIF05AC09aUtW0hTMFLXrJQDGe2RMXES6cjfBCEEkqES6cgBY1ESz6EUJMRwsXBxdrTlw4ES1qMlYME+GiJqBEW//bXWROMl44AocV4cKlGF44woEpybiwYQJUjJUYMIQLU5JxYhgBxFiEC6tCRU0PKgmxYj5YrDFpsS1Y1GwFlji0EDySS8QKJ4JFl4gU/QghdkULZwZcJJgk1V8eLZwAFk6EihRBxGy8EDasARebT1zURJRoiQBhrQgJpiZCw5oRJmyVUbRYGS6caXiRsWKYCBUpAoKWRFjYJBkm+kUnkQ4whAytyUCRIoxIES6MJULE1OLAkhguBiDRmogRU7LSehb9NKBFzVy8iHCx0bRFxIp+BBFL4WISXggp8q4iGSxqEk6SjkDyv4lL0hFCzIMLR2ix0tTFWhMXTkSLmgiT5Eq5iYsIDVtEqLBVSeLlEwCMCBXDCAumJGPD2pkOFsPSSEjhZJQYiwAiRaAwlogPc0oEFQuwQskI0ZreehZrgUXECieDhUvdYNElQkWNACIlQ8UgAojJYOFEsCSDFkKIOetbrL8wlzOCFgJIciUGC0cwSQYuIljUBLBwIlIMI3yYD5ePYLEGXDgZLJwMFGOJYFETYZJ8Ij4sibCgNREa1o5AYYsSo4UjYNgbLpyZcFETwaIfYcGUZGxYI8vBYlgiwMhAkSKIJBXhwiZoiQOLDBcz8UL4sMakxWq7h9REuHDJoEWNIKIlc+AigkU/U9GiRggxHS5mTlo4QorJcKFknCSdqXDhzIYLRxDRkogXQkhSiWhRE+DCiViRIoiYDhfOynBR+2/AC2HBlERsWDtCha2yJ15EtKiJeOFkrOgnYsUwgoPWZHRYI4KKDfDCpZFxoh/hI6kIFVIiPsyJUGJVrHAEDqusZyFkWJI2sCTGCmcdrMRF4NCaVqzoIoAkFwHEdLBwhBU9uIg4MRYBRUYLJ4OFk1CSXBJKksrUaUsivBBAkksESyqbuHAyUgwjrOjtKpIgYmrW2l0kYoUTMKK1GCVChLUiKGhNRIa1I0zYsiThQqCwdiJaOBEtnIwVw0SsGEZ40JoMD0sioNgILfolARiCiLEIFlIiQMyJcGIcLgYY0ZoIEVOyzu4htaTRomZrvBBKLJm2iGjRJWLFMIKI6Xj5iBaT8UJAMWfaYvpuIl3WX9/CCWhRI4wkV2K8UASQ5BLRoibAhROxYhghxDy4qH3Ei9WmLiJaOBkqUiJc1AxQYkoiQsyJsGBqIjisHaHClqUKwFgAF07EihRBQksyQCyJoCLgRQKIpcUBhgCiESlqIjzMKQ4pVsUKR+iwxpRFAYsePEwtwYSFE6GipgErHOFDSyJYCB7JJWJFTcAKJwLFMAKI6WDhzAQLJ4JFTcBKXBJIkktCSXIlP3FJOGlJBBcCSHIlRouMFP1EqOgngIUTkWIYwUNKBopUQrRYChebT1zUBJBoiwBhrQgJpiZCw5oRJGxZYrRwBAwbwoXTjhdOxophIlQMI0SYkowQU5PRYiu4qBFgZKDoJ8LDnOKQYgusyAjRmnWwomYuVjjrYYWTgWKYCBU1ASu6CCDJRfgwCywEDykRKIYRTBJPWmSkSEkwMZ7pJ5zjkp+0JAEWjhCiJavDRQCLmggVwwgfqQotnAgWTkaKsUSwcCJItCUCxJwICaYmQsPaESTskQgXwoQtEtGiZgFc1ESw6EeY0JKMEHMipKQAXNTSSGDhRICYmwgWC9ESlwwSrentErICXpKHi4wWNevhhWBiya4hTkQLRxDREkHEdLyYiRa9Ek5Y1GSsxCfiJOksWpDLiXDhLMeLCBdL1rdwAlrURKwYRggxHy+c9fDCyWhRk5FiLBEuagJMtEWQsEYEBXMSwWGt4mBh60S4pARgRLhwMlKkRKwYRqDQkgwRc5LhwknYsEVpRHCYE4FEv9SKFWuBJR4rnIgVToYKlwgrHOFDSyJYCB1aMg0rHOEjuQgfUjJSDCJ0WIQWc8ASlwQT4xFC1OJAoqWUQwtF8EguESucABX9RKQYRvCwGC1xcJEQYmrJ7yriZKQYJmKFEzGiPREh5kZYMDURHNYqDha2LiFcDPBCoLBV2vEiI8VYIlb0I0xoTYaIKRFQUnjqop91AENAkfEiQ0RzBA/Ldw9xhA4LwaKWPFo4GS2cuWjhEqHFGpMWToCLCBXDCCDGErGSIMvhYhZeRJwknTnTFi5ptHDJwIUjiCSVCBcbTVx0V4a24+4ivamLBBKtfQq7izgRIaZGUDAnERzWjCBhj4zihTBhy0S8cBYCRgSLYQQLrcko0RohJRXhhdMOGD2gJESKFaDCETSshRVrTVm45LHCacQKF4cRLSUEix5aCB3JJUKFE7Ciy7zrD2nDCmchWDhzwEJJKEmuT27aomF9CydihdODimH2QYvaR7RYY/JiHC4yTowlgkU/ASRaEyFiSgQEcxOxYa0IEPYqEVj0I0jYKhEtnIVw4USs6Eeo0JoMElNKPWjRL3nAxIFFhovleJERYmoGu4cMEGJK8RMWNREsnIwWzhK4GEWLpXDhRLjY+JBnNQKIuWiRpy0yVvSTYJJctpu2cLbCC0UIMZYIFv0MwKKfCBUpwof5cCGs6E1cJIiYk7WmLiJY9BNQojURJKZGWDA1ERzWTA8Xtk6cuKQUXqwAF04Ei2EECy3JIDElwkqqBgxBJGmoyPgwNRkfpvYRKwpYCBmWpA0sMlTUzMUKZ3+wED60RACRkqFi2EewmAUXESypCy3mTFusixbCiSW7iQSsqNlv4vIRLVabuIhY0U9GimEiVPQTMKI1ESGmRkgwJxEb1ioOFPYqJdCipg0unAwUY4lQ0Y9AYUoySLREQNGPsJCa4KKWADBWRwuBwzq7hdQIHVZAi1rSExY1jWjhCCBaSwwXTkaKYSJW9BPhwhFCkosAkiJo4QgpqR0unL2mLZyIFwJIUolgUTPAimEiVKQIIBbDxdp44SxAi5oIFv0ElJiSCBKtERQsSYSHNdKDha1LqYmLWiK8cCJeOBkqxhLRoh/hQmsyTLQWBxcDvEiISMnSWA0sIjjMzTq7g/RLfsrC2QYrnIgVG4NFBIphhA8pGSn6WQcsibHCyUhJkACS5COAWDJtEaGin+VoEcGiYX2LiBXDBLBwIlCkCB9SMlKkEqJFQoip/W+BbvKJ4LBWcaiwdQnRokagsCNeUhQuHMHClGSYaCkhWlIrXjgCjIARUxIBYk7W2y2kn7loUbMULyJarAEXASwfI4QkFQHEWDJW9LMQLgQU/UzGiwiTpFPQklLTFgKI1kS8EDySSoSKfgJY9BOhIkUAMQ8tagnxYpWJiwgW/WSkSIloURNAojURIqZESLAkER3WiABhz4zChRBhj7TjRQZKcolgMYxwoTUZJslFUBGmLn8NwBAyrIOVj1CxJlYsmbDoZz2sxIGFsKE1ESr6iVjhCB9JRfAwlowU/QgpBmgRYZJcIlY4ASkGSShJqmdKMkiSy57TFs7eaBFxIkXosBpa4uAiIcTUrDVxEaGin4ARUxNBYkoEBXMSwWGN4jBhz4xOW1ISL1aECydiRY1gYWoyTpKKgJIEXiQ42LsbRkoMGBEd5paSWFGTocIlwgpH8NBSYqxwBBFrTFfURKzYYdeQzXYPyUAxTEKJlhS46GFES/FgUdOAFREsHOEjuUSwWLoglxOwoiYCxVgED8vg8hEsVp22qIlo4WSoSIlgURMgYkoiREyNsGBOIjqskR4obF3CSYsaQSKl0cLZEy4c4cKUZJxoKXXBRYKK2O0ncYAhbNgCLtY6F4taArhwIlg4GSxq5oBFv0RgsRZcBKwkjBCSXIQQs9FiKVwIKWbvGuIMQKK1T3raYsP1LfY9fwuXEC8SRMwpabhwMlSkRLToJ6BEayJGTImwYE4iOqwR4cHeiWj5i+FFxIoU4UJrMky09AnhhcBiWBoZIKZk3ekKpx0qnIwUtQRYUdPDSHIlnLDooYXAoSURKmoiUjiNJ5XjCCBSMlTU4rBiJbAkxgonAMUwASNashgsahqwIoKFI3xoyVy0cCJUOAOo6KcZLWoED6vAhZBhTbRwdpm4cAJGTEnEiCkRFsxNhIel6YHC1iWctAhwITzYKxEunBXxwolYMYxwoTUZJskVB5dUgBcZK2qJ0aKfGYAx2C1kRbxoAwsnY0XNZmixxpRFzQhcRKQYRggxlgwW/SxEC0dA0c9UtJgLF4uPIuJEtHCJ4cKZgxbOXLiIYNHPACz6/WUmLiJY9JOhIiWChRMgYmoiRkyNwGBuIj4sjRBhrxLjhSNMpABeOG1w4WSYaEnEin6EC1OTgZJUcXBJBYCR8SJjRSoJwNgGKWqfBFasARYRKmqEDi0RPIwlI0WNgGJlsJg8ZYlLBkny2Q4sXDJgUSN8aElEC6EjuUSo6GcAFf1MmrgQOiyDSxxY9NBiVbhwIlg4GShSIlj0EzBiaiJGtEZQMDcRHZZGcLBnRsGSquEig8SURLCoESxMTcZJcn36aNFPAEwcWvSwYa3i0cKJWFGTsaJmKVrURLwQOrQkYkU/ESwfE6EiRRAxDS1qieFiEl7iwGIJXCSQaElBiyW7iUSs6KcBLoQPrYlwseHaFk4Hl09/4hK/OJcT4aImY8UwESz6CRjRWkx8hAlzIzCYm4gPS4tDhT1KCJdUiBcRLpwMEq2JYDGMcGFKMk60lLKAsSZeOAKMjA1L+ySwYo0Ji5qAFF2WrWeRcSJFQDFAiwgTY8VBxRKwmLt7yGKw6KcRLFwitHCEDy2JaCFwJJeIFP30kCIlAsVYhA7L4fIRLRJALEmGin4yUqRErKjpIcScRIiYGmHBnER0WBLBISVKtWhRswFcOBErhhEsTEmGSXLJcLEHXkS0cAJITC2NhA9zSgAWTsQKJ0NFPxEtHMHD1ES0WGvSIoJFjQCiJcKHsWSoGJYYLpbgxWS0cAJKtCahREvJo0W/ZOBC+NCSiBYlGSv6iVgxTAALZ9/dRGoJpy32nbjISJESwaKfABJTE0GiNUKDuYkAsTQ9VNi6hNOW/z68cCJY9CNcmJKMk+QiqKQQYGwFFzWzAGNzrMThw5QSQsUAK9YAi4gU/QgdWiJ0GEsGin7WxYr9wUL4sMa0RUSKftYBC2cuWDgRKfoZQMUwESjGInRYDS6EC2uihUt+FxEnI0VKxIqagBBTEzFiSoQFcxPhYW4EB3uWGtHC2RMtnIgVNUKFuclASSpCioAXCRvWzNZwUdMMGG1gUZOxop/t4MLJOJESsWKYEbBYunuIk6GiXxxaDOAi4iS5EqHFdLzIMNGSjBItaYNLQrTYDC6padrCETqsghaDiYuEEHNKftrCyUiREsGin4ARU0rJNS6ciBBzI0DYs2TxQnBIiRLhhbMRXkSwGEawMDUZJ1pKjJcUAYyAD2uUCDDakaImA0U/m2PFBLBwIlLURKxwJmCFI3yYjhVOBotZaCGcmA0WQodFu4ZSACycuWiRwcLJSDFMRIp+BlDRz6QFuRyhw3K4JESLhA9LsuvEhTOAiKmJGDElAoMliQAxN8KDvUoWLWqEBntnT7hwIlYMI1SYmgwTLf114aKWRhtYZJjoZy2kcDJUOAKIHbFi++kKF4cVS8FCMEk5sBA8LN0tpCZiRU0DWDiCh5ZsChZODymGpcy6Fu7jlMXacLE2WjgRK2oCRLSW0kcUcSI+zIngYM9SK1jUkkcLJyPE3ESsqBEmzElGiQkRIOwFGHvDRS2NDBZOhophIlw4AoepGQWLiXARsWKYCBfLDm9Wk6FimBXQoiaihTNAipFklGjpnZIEEy1pQwunAS6ED60Zhct/ybTFJnDhRLDoJyPFWCJa1PQwYk4iSEyJ4GBuIkIsKQ4Wti4hXNQIDakEL4ngwqUkXDiChLmJKNEUYUWYvtgCMIngoiZgwxbpAUYGipqIFI6gYU5JYoWAoTURJ4YJUNFF4NASgUNKholhcVCxFlY4C7BiyW4hziq7hjgRKmqJwcJZFywUYUNLIlL00wOKYSkDFrWPYLEZWjgRK2oyTowlYoUTEGJOIka0RliwNBEg5kR4sFepGS2cvdHCiViRIlCYkwwTLRFUDPAiwcNapRRc1Agw9gELZze0iFj5mIgUYxFCpGSsGJYYLWoiTIxFQNHP/nghgKjFYURr2tHCJYMWjuChNREtdtpFxJkEF47QYQu8SACxJFtMWzgRLmoCRkxNRInWCA2WJCLEnAgQ9uqTgwuXCC+cjBBLErFiGIHCnGSYaCkxXmwJmJTGC6cAxtpQ4YxihYBhSiJQDBOQ8jE7rmUhbFgEFTVCScphhZMxojWrgoUjeGhNRAthQ2siVNQMgGKYiJKkImjYAiy2gIvddxGpCRAxJYvWuRAYLE1EiDkRIOzVJwcXO4BFPxEragQJc5NRoiUZLnbBi8aLLtqqNNaCi1GwmAEXESlSIlg4gofWCB9SMlIMI6RYc/cQAUXGiwAUY4kg0VLcehYz8ZJg0sKJYOE0ooUjfGhJRIuSjBTDRKzoJ2DFsL/qtIWz+8TFACHmJqJEa4QGSxMhYk6ECFuXGC0cgSGVoEUtJfEigkU/woS5yTDRGmHFTpOXBBMXTkCFPUsjYSSpEkOFI3jYEisiUtQIHFojdCSVjBTDbAMWs6YsnIgRrRE+rAEWESpqicHC2QYsnIwU/USkGGYAFMNElCQVQcOqYFEjXKTMtIWTYWIsESuGCRAxJREjpkRgMDcRH+ZGgLBHnwJcEqGFSwQXToaHpYlYMYwgYW4ySkyIICElAcSSEuOFk2Fhj65TmgCTLFoIGVoTgWKYCBX9TDzMmSN8mAcWLjFYrI8WE+AiYkR7Eki0ZglcLEELJ4OFk6FimAgVwwSsqJm8IJcjcEjJMNGSbdCiliJ4ESBiTim5u0hEiLkRIuxRsnghKKR0ycNFRoc1E8GiRoCwNBElmrMPXrjUgheGi1oCwCQLlf8WrFhrwsIRTCzCCkfoMA8thA4LpixcArBwIla4vx5Y1ESYSBEwjCVjREsJJy22gIsMFCkZJ8YSsaKfAUBMLTWcy4UTEWJOBAhblyxaUgFcEqGFSwQXTgaHNRKxoh/hwdJkkJhSCuAlBda86IPFsDQiVAgWpiTCREoEin6EDVMjdFgbK2aDhWCS0tMVS3YLcclDhUuMFc5SsHBGwWKn9SwmT1g4gobVwRKHFgkclqRMWDgRKFIyTowlQkU/PYBYkogRrREWLE0EiDkRIGxdsmBJYbRoBwsng8MaiVCRIjxYkowREyNM2BouCSYunB3hImFFKg4wMkySSgSKsUSsqFk+XdFPhoqU9eFiNlrikkGiLUsmLdomLGrWh4uMFk5GimEiVPQzQIqUybuHCBvWQ4vaxymLLfDCyUiRkoFiLBErhgkQMbX/TVy0lxguHKHhk8SLjA5rJmJFP4KDNRJBYkqECVvjhUsMGBkb1k6CirHSSDjRTwSJlIiThIkgSSqCRlLJMJGyB1Y4GSZSEkK0R/CwOVgSQ0XNUrBwloCFE6FimB5QpESYGIuAYSwZI1r6OGmxGVg4ESiGyTBJKhEp+hngw5JEjGiNsGBpIkDMiRBh6z5JtHApABcRKoYRGqyRiBFTI0jYHS922G0k4URLRgEjIkVKgMrHTJyucAQOY8k4kSKg6EfwsAguhBP9zIaLiBFTIoCYiRY1c6csaimJFk6EimECVtRSfheRmm3hwv0PLxShwdJEiJgTYcJWJUaLGqEhlcCF+6TgokZwsDQRI+ZEoPirAUaCidYUwIgwMUwEipoZUOEIG1IySowVhxRrYYUjlFiMFU5EiCnJCNGatkkLlwxU9CN0aEnGCkcQsfukxfJpi4wQU/oIlk9x2sKJUNFPwIc5Wbw4l7BgaSJAzIkQYetSO1q41AIXNREqagQFayUixNzucLaFC5cQLWoyPixJAomppRGxwolQkSJ0aI3AkVQyUJIqMVjMRgtHQLEYLZyIES3pnUzOAryYixY1c9GiZhQuhA0tiUgxlgFW9BNxklyEDevihcDyV5+2cHoAsaSUXuMiIsTcCBO2iqES8/AVYp++x6NnP1MfKH7bIP640T7Qn/krZYMuocPSRLRwKYQWTgSLGiHB2okQMSc74EWeunAyQCxNAompfQSMiBM1AoapETCSSgaJFKHEyHQlxbFC6LBsykLgsBArnLZJi4wV7pMBi4AUw0SUGIuAISVDREtxWLExWBSsqIlIMUyGSVKJSDHMAB/mJkLE1AgMliQCxNQMkGGL1CnL3QcvFQwcOX4Bi5etxdIV67S3XHe7fuNOXLh8m/4fvBIBYk6JsKKWCC2cjAxbJIJFP0KCtRMhYk4phhcZHpYmQcTc0shgMWPBLUfgSCoZKFKEExuixRp4kUGivZRGC2cTtKTILiKChykRNowlw0RLH9Fic7yISJGScZJUIlQMExBibiJGTIngYGkiRkxNDxm26OPuIV1PX/6G+YtWooBDQTRu0hRNm7VAk6baata8JRo3boZMmTJh2oz5ePX2XyJGTC01woUTwaJGQLBFIkTMyd544WwIGAkhlqQARsRIUhEykkuGiRSh5C+NFcuuMcQlwAonYkUtGajoR+jQWpJgIWRoScSJlIAU/USUJBUBQ0qGiNYIKfactohAkZJhklQiUgwT8GFOFu8i4ggMliYixNQIErbOEC66nuPl2z8wcMhIODu74PGTV3j06CUePnyuqSf0M3E35hGcnJwxdvw0iwAjooVLYbiIWNGPcGDtRIBYEmHCMAkglpYQLWoyQMxNwodF3dKVRgRKUhE6pGScJBUBxdpoUbMQLEqED6vsHiJwWJI2uCRGC2cpWjhL4SICxVgCVvQTcZJUBA0pGSSm9BEttoILZ0u4iEiRMgCIJf0PL9qT4cIRHKgXb/7A0BFj4epaCNHRMbhx4y6uXbutqZs37+HSpRsKfsZPnGEWYES0cCJcOBkatkgEixrBwFaJCDE3g8mLrfDCfRKAiQOLYTJgCBjGkjFiLAKJfoQLa0NFxgpnAJKkInBYihUFLHHoMDdtExZOBgtnCVa4JMFibbQISNFPRElyETA+abBwIlAMk2GSXCJSDDOAhyVZfEQRR2CwJBEglkSQsEUyWDhCg34EhRev/8Cw4TrA3Ii+i+s37uDqtVuair4Zg4uXrpsMmNQKFk7EihqBwNaJCDE3Ox1txNkaLyJGtCRgRSqNhBROBklSxSFFgIrFWCGQGMeKAUY0JCPElGSAmFKCyQonQoXTABX9CBxaSxIrBAytiTgxTACKYSJIkouAYXWs/A8sFidCRGuEBGslAsTUCBG2SgYLR2iQIjRw+oC5ztOX63dw5eotTd2IjsGFi8kDRgSLWmpHC0cYsGUiPizNTnhJvN6FkxFibiJMkktASlIlAIwMk+SyLVhktKjJQJGSIaI13YRFgYuFeLEELWqWwCVJtJgAFxEphglIMUxESXIRNIwlo0RLieFic7yIUDFMhomWRKwYJuDD3Kyyi4gjNFiSiBBLIlDYIhkuHAFCQIt+KmAKFSqM6Fv3cePmPVxjyGjo5u0HuHTlJpxdXI0CRkSLWmrHC0HA1on4sCQFLpwd8cLZCDAiTpJKwImW0sgoMYxQYofpinGsyCgxlowQUyJs2A0ratbHilqSaCFoaEkEimECUPQTMaIlAoaxZIxoLTFaJGxYI1tPW0ScSBmgwxqJCDElQoI1EvFhToQIWyWDhSM4aICLGgNm+IhxykLcU2cu4uTpizh+8nx8J06pXUjQydMXcObcFRw9fhYFHZ0SAUYEC5fCaBGhYhhBwB6JALE0woRd8ZIALpwMEXMTkWKYABJTSwIwhBNboYUjmFgLLEoED8vWsXAEDwvRwmmDiwwWTkQLR/AwJUvRwolQMUzAimEiTJKLkCElY8SUEsJFAoe1ssduIk7EimECPixJxIipERiskQgRcyJM2CprwEXt1bt/o0+/wfjuu+/QrVsPREV1Q2RkFNVVryhERKhFoksXXfyx8PDO+PbbbzFl2hy8JMBoR4uaDA1bJYJFjQBgj0R4WCN7r3nhbIQXESrGEkBianGAIZTYCiocoST1YcXK52LhRKioyVhRsxQsibHCEUI0gkWEibEEoBgmgiS5CBdSMkJMyT5giccKJwLFMBkjySXiREpAhyWJADEngoI1EgFiTgQJW6UZLRyhQWuv3/8HnSO6I3v27Dh16iyOHTuJI0eO4/DhY0qHDnFHcfDgERw8cAQHDhzG/v3cIeX+7dt3In369Jg4eRZeSIBJYbSIUDGMNv72SESHtUrxBbucjBFTE5FimIAQSyLA2BYt1oSLhBDTss46Fs4acLEELGqWwoUTkWIsAStqIkqSi4BhLBkjWotDiz0nLSJSjCXjJLlEqBgm4MPStKxvefjkLR49e4fYp0Z6or1H9PiHj9+IcOFEiJgSQcKWyXDhCCAWwEVNBUzu3Llx9dpNXL5yHRcvXdPUteu3cPLUOWTKmBkTJs9MCBgRLpwMDVskYkWNNvr2ToSHNdLDiwQOa2aPXUciWPQTAGJpaUR8mBJhxKrTFUrGh6mlcqxwhA1TsxtWBKAYFiuBJLkIF8aSIaK1FACLmggUw2SQJJcIFCkDcFiaBBRj3X3wXAHK9VsPcfbiDZy7dDNxF03r7PkbuHErln7mfiEQPE8MEEsiSNgizWBR0wOJqcUDJlduXGPAXCbAXLyqqatXo3Hy5FnlTLwTJhFg3hBgUitY1GiDb89EcFgrOy7Y5Wy520iEimECPKyV6YAhmOgnw4WTcWI0ESHmZV+0cDJaOBEuHOFDa0bRYgu8CFBJGGHD3Aga1kULpweXOLxI4LBmpk1bZJhoSYSKlAAQSzL1aCKeuhw/dQmVKldFmbLeKO9T0eK8vMrDh243b92LJy9+liFiagQKWyXjhSNwWBEuavoTmNt37iP6Jp8L5rambt2+h/MXriBz5swpDhgRK4bRRt8eidiwRYSJlMULJ4PE1ESw6Cegw5oZBwwhxFZQsR5WCBupHSsEDlNKjBWOAGILrHAiUj4mQkRLhAvrY4X7CBV7TFo4LWB58Og1Xr75HW/e/wuv33F/iL16mzh+/PNXvxAeXshAMcwAHJYmocSUXtD3PWvOIjgWdMJP67dgPbXup81mx8+xZesulC3rhTZtO+Ldr5BBoiVChC2SscIRMKQEhFiSApgu3ZEndx7cux9LiLmHm7fuaupuzENcvHQVGTJkUADz8s2/RVzYIhEohtFG3t6J0LBF/y27jQRs2KLEgCGUWBUsaiJAzInQYW24iFDRLzFW9LMGXDijcCFoaE1EimECVAwTUZJcBAxjyRjRWhxaDOBiS7xo30X0Unn8k+fvsWzZGowfNxVTpszC1CmzMXXqHEzjps3F9LhmTJ+na8Z8zJy5ADOo6fT+xi27Efv0rQwWToCHNZJAYmrPX/+GOXOXwNOzLB7EPsODh89oo/rE/B48pZ+rN2gQ1gjhXbri7c9mAoZAYas040XAhzWKB0yePLhPgLljEmAe4NLla8iShScwM+ImMDI4rJmIFcNoI58SidiwdnbcbcSlGF44ARu2KE3SYBEgklQEDOtAxXonjlNLMGXhRKhwMlLUbIcVTkZJUolAMUwAin4iRrREuDCWDBGtxWHFACyGyLBm2rCin243D09enr74gL79BqOAZ2GUCCqP4gFUYDndbYD+bTkUi0t9u0SgD7IXzY8q1f2VCQ6/BlvCRQKIWREQ1HgCM5nAVry4u3Kaej7TK58Z1tz4zLJ8scF69UNMBwxBwhbJYFEjVNgJLmoqYHgX0t17D3Hrdgz92d/R1J2795UJzEfA/CGCw9JEoEjRxj0lEpFhi+wMF07GCydjxNREtHACMmxZGnOhIsPDnKwLFU4bVDgZKZwIFY6gYUoyVDgCiC2mK5yAFP1EjGiNgGEzrNgRLJw5YDEslv88H79BQEBNNJ/SC3Pv7sWUS5vEJse3Mb6ZN3ei6fTeqFy9Ov0c/ErPSYAR4GFuVjs7LkdAkHr+6jfMnb8UpUp5KhcVNOXCglLXCTF378aibj2NgCFE2CoZLBxBws5o0U9dA5MrVy5E3+Iz7N7ClWvRuq4m3Y3oOzhz9iIyZswYtwbGeoARgWIs2rjbOxEYtowgkSJ44f7CcFEjwAhAkSJs2AQuceiwNO1oUTMBLgQOU0sSLSbARQSKlAFSpESQJBchw1gySEwpMVpsDZf4SQuXCCnGkvHCMWD4cN/ateuj9dR+mHtzD6acJ7BobNb1nWg+rS+qBgTi+QvrAkZEiLkRFIylDxiennBXCSLmxlOYO1oBQ5iwVTJcOEJECuKFX8PbX4CIqJ4KYBgkV6/yodQ3cPmysa7Hd/36LZw+fd6qgBGBIkUb9ZRKBIatI0jYCy/xcFGzMmBSE1zUZMCI4LAkQsZfGCucUawQLrQmwkTKACZyhAxzIlhIyQAxpTisGKBFQoY1Mw0qnAwVY+kDps2UfpgXvQfTzm1KvrO65lzdiZZTrAMYe0xbpBIChncBab8ystS167cJMA8JMPVlwNAG3FYlxgrHaDBIgoWN4vOz3H/0Rlmr8vLtv/GU/rz53C3tO0YgZ86cuHDpKs6eu4TTZy4YdF7plEHnLlzGoSPH4xfxmgsYESjGoo15SiXCwtYRIOw1ceFsCRe11A0YER7mZ02wqGlHiwwWNWugJTFYOIKIfoQNrYlQkUoEFcMIHKZGwDCWjBGtyWj51KYsSaUCJpgA027yACy6sR+zzm7V3IKre9B2yoA4wPxCz2keYESEmFscTLSW1C4kacKSXOIEhiBh6zTBRc0AGZZ07yH/fLzFwyd88j4+id97PH35K56//h3PXv1Ot3/g3KXbmD5roXLiud79hsDL2wfffPstvvrqK+VoLU/PMihd2jOu0kqlSpVSKlmSK6nkwbelSqJECXd89tlnmDpjHl6aCBgRKMaijXlKJcLC1hmc40XChrUzjhdOxog5pTa8cGkkfJgW4cLKWDFtwiIjRS0RVjjChilZGyuciBPDEuEkcSJIkopgkVQyRLQWBxUDrNgaLJw90cKpi2wf0v+DBwpg6qHT5MFYfuMw5p3dqbklVw+gw5TBBJga9HdfG2CsOmnhBJSYUgLA3IzBdeoqT2HMjK+YfOfeI9TlRbydCTAfbAOYxGDhCBVSAjy0lODr3XtBPxvv8IJgwtcy4nUsL9/ojgA6d+Emjp+6jKMnLmLt+u1o16ELqlQLgG+lKght0FgBy+eff07vV0avXn0xdeos1KsbgsyZs6BLRHd07tyNitJUREQ3dOoUgfTp0mPy1NmaJjAiToxFG/KUSkSFvSJA6Cdhwxb9t+Ll2q3H5gCGkKFfHDosLbWhRc0oXggYpiQCRcoAKFIiTLREyJCSMWJKcWgxwIsEDWtnGlpkjGgtwdFBcamAqV2nPiKnj8Dau6ew9NJ+za2+dRwRM0agmkbAWA0vAkTM7ZkCmGUoU6Ys7j94qnT33uP4YkyMD6V+8uy17jBqGwFGxgtH8DATL7ybJ/bpe/o5/qD0+NkH+t3zC/1O+4Vuf1buO3TkrHLo/PCR4zFk2Bj0HzgMVQkquXLlQfYcOVCyZGkCSyMCcV3UrBmMJk2ao3fvAShWrAQqV66KR4/o543+//3yCzB69Hh88cUX8CjpiZKEx5KlSmuKoelRspRuAjN9rtEJjIiTpKKNeEolgsKupQxeOBkvnIwRU0ttcLlOcGG8aAAM4cJWSFETgaKfjBQ1u2AlBScsqf7Mt39hsHASWvTTAea1MoFxr1sJocO6oE7/9pqrP6QT3OtXhl81f7wgCPDrTggWQoI1EwBiSbwm5dnr3zF/4QraCOdG23bt0aFDONUJHTp2QseO4ejYietM/+qnwrsgPDyCYBKBzp0j0TnuCslduvBkoKtSZFQ3dO/eC05OTvR2T6sARsYKR/iQMsCJ7nle6m4fvKSf3/fK9ISnKG/e/6m8ffXGAxw5fgF7D5zAnn3HsXDxaoQQRsqWLQfPMt6oVasuqlUPRKFCRajCqOxXBe3ad0L3Hr3p++yOXr37o0fPPmhMaKlGfx8q+1VFcHAd+pwApEuXDoGBNfH06TtcuxZDiHmJkSPHomBBR8ybt1hp7txFmpo/fwnmzFkIR0dHcQ2MiBNj0cY7pZIhYecIDymBFs7Wk5cEcOFETNirj2jRTwRMyu4S4mSsqFkLLTJYOEKIGXARkWKsRFBJnIgSLdEGVUoGidZktNgDLvFo4RIhRUrGiNYkqBhLuQbQzYcoVbIMXBv5oOrYVqg0rKnmqo5piTw13VGRNmYvCQL8+q2OFwN0WCP9RbW8O2TYiHHKUS19+vZH7z79lN0cuvqgp1rP3rSBpnr0UmKkcN269VTq2q0H3erqQRv1bFmyIiLScsCYChdej/L42c/0e0V/evKe7n9Hfx/f0ONeYMv2/RgxagJ9P/0IIP3QtXsflPfxRbbsOZAjRw54eXmjSdMWCAkNQyjVtl1H5Xvq2rWnghZ+v0PHzqhcuQohxEnBRMWKvmjWvCUaNW6CZs1a0PP2wpIly3Hp8nWCXhdUJ/wwXK5du4sHD55h3LhJ8PT0wiP6uXj06CXd91xTj+nn9/79Z8q6mXHjp8YDRgRKUtEGPKUSMWHvCA8pBZh4vHD2wAsnwsIeyXi5dpMAk3K7gdRkpHAiVDhChqnJUFEjgNgKKwJM5AgZ5kS4kJIRYkopgxUuNYNFKQ4YHAPmBgGmpHtp1JjQDj3Oz0fEkWma63F2Hrx61UPFyn54/upX5flFhJhTHDaslT5a9GPA8K6Q/Pny49jxUzh85DgOHT6mrUMfO3zouK7Dx3HixBl4eHigU7h5u5ASg4Xup9eq2wVH0d+be9Tj5x/w6u2/wVMU/jovXv+BM+dvYOfuI9i4ZQ82bN5NG/lpqO5fA25Fi6N4cQ8EBNZUpiLFi5eg11gKQUG1lMlRr94EGYJY7979ERXVA/XqhRJqKijx7qCqVavTcxSFO31fwcG1MWbseCxesgzLV67Gxs1bcfzEady7/wiPHhOiYp/h/oPHynWOHsQ+RVTXbgSYAGX30bVrdwgizzB27ERlga6ph67ziQavXL2lfO7YCdPwnAAjAsUw2minVCIgUjKCw18VL1zKA+axkjG4qKWRIJJcCaDCiTAxTEaKmggVjoBhajJSOMJHimPltZKIES0RLqRkhJhSyoDFdKxwMkS0lggkyaUHFsMYMNG3YlGmtBeqjWyByGPT0HH3OM1FHp2KUl2DLAcMb5ytmCFSkop3owwbMRaf//3vtFHnjXyJuFvz46Nk/vH53wkEfUw+CkmHlZd49OyDcsgx7+LiI3r4opD3H71WXjNPHK5GP8CKVevRo2d/tG0XjvYduyhrbkqXLots2bIrZ7mtWLESmrdojaZNW6BZs5aIjOyOnj37KrvBWtD9LVq0QYuWreHtXQ758xdQdntVqVIV7dp1QLv2HZRdZMNHjMT6jZtx8fI1XL1+E9ejb+Pm7XuIuR+Lew8eIeZeLO7cfQC+IOPVazcTnXiOPx4RGZVygKENtr0T0ZDSERhSCi1qf3286EFFPz206KcZMNYGCyeChSNsmFuScCFkaE0EirFEqBhG0DAnwkVSyRjRmowWe8CFMw0tnAwSrSWCSVIJWJFSAHP7EW3AfPB17nTIXtoR2TwcNFRAKXvpgvhHlm9QsVJl8Cn5+WuLQEku2ihbM0OkJBVPYAYPHY2Cjo7Ys/cAdu7ehx279pjdzl17sf/AYfj6+hIAusVPYGIIJfdj39Cf+6tEYHn8/Bd6Hf8hTP2JN/R4nqwcOnoW6zZsx7JVP2HpinXoO2AovMtVoNfphMKF3RAQEISAwCCU9iwDH58Kyu6eXr36KZMU3qXVs1dfdCKo+AcEKgtfeZFyrVp14O8fqByOXL58eTRp0gzTZ8zC2rXrsWnzVuyl7//8hct4GPuEfuZf0M/oM3q9jwksMcrZctUYMlrOmstZCzBX4rpOgLmsBTC00U6JRDykZAaXAkgpvHC2xguXcnjRHVmkFS9cIsAkgAon4sQwGShqIlI4woU5yUhRk0GSVCJKkkoEin6EC3MjWBhLRogppTBWOBEmhiXGhzklQomWBKQklTqB8fIqj/z+xeAZVRMlOwVozjOyJrJXdEFFPz+8eP2b8hpEoOhHaLBmEkpMiQEzYNAIFCtWDG/e/oyXr97i+YvXZvfi5Ru8//k31K8fokxg+D/ezcPrUm7dfapMT/Tx8ojuX75qA1q36YjQsCZo2rwVmrdogxLuJZX1KA4ODqhWLQBt23agx7RXpiO8WJbX3/B9fLRTo8ZNEdawiQKVvHnzwcXFFTVqBKFr1+70uJ7oP2Agpk6djn37DyoXRORrD92+e1+5MCJf3Tnm3kPcobf5qtA3bt7RjBOxKwmLifkImAcPnysY4SO9xoydQAgprQkwKl40AYY22vZMREOqKCFaUhIvxicvnAwRU0s5uBBGTECLfvGAsQtaCBiWZBQs+hEwtCbiREpESuJEkGiNgCElQ0RrcWDRjxBhL7jEo0VNxIphMkZMKRFKkkuAidbidyF5esF/djt0uzMf4Zemay7q1jyUHROKitWqgK+FxK9HRIsagcHaSSgxJR1ghsPNragCkCdPCRWPn5nd4yfP8er1OzRv3hL+gTWV3Txz5i1Fh06RKOBQEJ0juim7lfhkb+9+hXL0T7Fi7srC2er+AWjRopUyRenRsy+ionS7fHjRrI9PRRQtWoyQUkqZpAQG1kB5Hx+CgT/Cwzsr61G279ilTJGOHTtJG/7o+NcT++gp7t9/pODl2rWbuHY9Lnr7KqGDEzGSVAZQMZYKGJ78PKKf6+ib9+jP+DUmTpqK0qXLKIeec3zyvzt3HyndlorRxVf7vnUnVjnpXTxgaIOdEslwSA2lPFr0s/XkJRFeOBEb1o4gYiZeuDQyTvSTgaKftbEiQ4UjePwVsMLRLyLrYkUtZbDCmY4VTkaI1hJhREsCRMxNHzC1FnRBn4fL0e3GfM31ub8MFSY2g2+1qjJgCAjWTAKIpfF0hAHDa1c+/Pw73r77Ba/fvDc7nuL88uu/0KpVK3zx5ZfImzcvoaO0cuh1uXI+qFLVn37pPlYOAW7SrJWyS+jrr79B3XqhCAkJQ/36DVDC3R358+dXUBUa2gADBw7G4MFDMXbcBCxevFRZJMzTE949c+9+rG6Ccvc+7ty5r0xRbt2KwY0bt+NxYhZQOAEkWuPrG928GYOnhJWevXqjSpVqyjTl4KET2LhxG1q2ag1H+t4nTJiiHJE0ZswEjB4zHqNGj8OIUWMxYuQYDB8xGsOGj8KwYSMxlBoydHj8bYECBZQz+/KZfiVcWDsZCqmphGhJDXhJMHnhrIyXWzHPcecBbSOe/owHTz7g/pP3ym3Mwzd4+ORnuv8X+nN5LsDD8hLBxUS8cEkARsYKJ4KFI2SYmwwWjgBiBljURKQYS4CKYSJGtES4SCoZI6YUhxY9uEjIsEX2nrBwiVCiJQEglhb79C1u3HqoAMarfwiabB+GBuv6a67JliEo0aMGfKtXSwwYwoE1k/BhUXG7cfgw3LHjp8HVtRB27NiF7dt3Yuu27Wa3bdsO7NmzD3Xq1IVnWS9EdetJaKmKir6+cHFxUc5ImzFjJuTMmUuZIpTxLKMsng0JCUXfvv2xfsMm2sgfwdFjJ3H23EVlaqJOd3htCqMlmi+AeC1aN0HRm6JYhBXDBJTox0C5fv02QekOvZ67ClZu3bqH27cJUbcf0Gu7hV279mH9+k0IbRBG4HBQdmnxIejDho5QdnHlyZMHQ4YMwxDCGQON3x5KOBk2bDiGDx+BEcNHYsSIURg1ajRGjx6DMaPHYvz4iRg7drzyuYxAewBGBkNqKnXBRU0GjIwRU+Lnjnn8FhfoH1+7T13EnKU/YuaqtZj940+YuXItVu/cj3nL12LKguW4eOuRghn+2hJEzM1KgDERKRzBwtxkpKgROj51qKgRKqRkfJiaHlb0wGIPtJg+ZZEBYk6JQJJcAjisE4EgLj6R3e2YJ/Dzq4aMfk4oFO4H53YVNefasRIy+DuhEgGGT2THzy/hw5xEdFhSHFgMe/n2X8p5YPikapu3bMemTVuxceMW86PP375jN4KCaqJUydKYOXMO5s5dgB9/XKesX+GjnGbNmoPVq9fQRj5aAVNkZCQePOSz+MbSxv+eskaF4RJ9845y9WWrwsRYRpCixlC5c+eBskvo3r3HClrOnLmIo0dP4uDBo/iJoDKagNG9O58LpzsGDBiknOQvgipbtqwyfTp+7DTOnbuMhw+fonevvihSpIhyqPVNZWJ0Ry+GkRxPl65cuUHgdMG4CdNtAhgZCamsVLQ4VyoxXDgZJKbE32fMsw9YsvIntK5SB3MrNkVIlkLY7t4IuzyaYod7Yxyr1BlNshdFeJbiCPSujBHT5+DB81/pc5+JGNEewcNCtOiXCDAiWDgChiXJYOEIIGaihROBImUAFGOJGNEa4cJYMkRMLTFY7IEWLqXgIsIkuRKBwxoRCoQYMNG3Y+HtXR7uPYJQZ10v1Fwepbk6a3rCNcJP2YX04sWvyteSMGJKIj4sTYCLGu9CGjhohHIemE2btmDDhs1Yv36jyf0UF09Qtm7bgWrVqim7f44fP4WdO/fgwIHDygSiYMGC6NChA5o3b46GDRsiMDAA7du3V6Yq6poUERi2Kg4rPE1RJym67im30dExyscOHDiC5ctXKiCbMWM2hg8fibZt26JJk6bo1DEcgwYNUaYoPDWZNHEKJk6YgkEDh6Bf3wHKgls+PPvevVgCzCUFIby4uHDhwspruHj5Oi5cvKqpy4SXs2cvwsXF2eqAEaGQGqONuGESIlKqBHjhrASYaOrB818wYvxULM5fBS/cwhFTuDU6ZC4OeA8AvAYC5QYBpXuiY6ZieOPRETcKhCAqWwmMHTUZMU8+0POYO4kRzu0ioMSU0lgTKzJQ9JMRklwiSJLKACXGEhGiNQKFsWR8mFIcVFIDWEScGCbjw9REjCRXImhYqxdKElr0Y8DcffAc/v414BxcBlUGNEGlng0059e3EZzrl0Xl6tV1u5Doa0soSS4RHZYkQMVYfDHH2XOWIG++fIiIiEJUVDdERnY1o6i4uiobZ3d33cLcQYOGKmfw7ddvAPz8qir3T5s2A2PHjcfYseOUqQUvvr1+43ZiXFgxZVdTXAwS3tVzN26awpMVhsXBQ8ewe/cBbNmyA5MmTUE3AlenTuHKWYh7UeHh4QrCRo4YRR+fSq9/AsZRw4eNRPt2HVC7dh3UqFFTuYQAn5mXD93mRcaMmPXrN+MiAYTxcYtglCxgLshdvmw9wIg4SJUlBktqQ4uaLeCidv/RO8xZuQ7T8/kCHl2B8gMQTUgJyVSI4NKfIsSUH4SXZbqhVgYnPCsVTqjpARTtgEEZ3TFq5jxljYwMlKQicFgZL9xHwBAwzE3GCkcAsWDCIuLEWAY4SSoRJFojYBhLxogpxYHFCF4kaFg7e8NFRImWEoHDWhEITIivg8TVrRuKiKWj8OObM1j88KDxHiRs5fMTiFw1FtWCgvD02c/Ka5CAklQiQCxJQEpSPSN4zV+wgrBRTjmc99p144f0qofyfuxWoq4SDm4RCIJq1kK7dh3xmP58+XPv3XuCHj36IDAwCA9jn9LXuRXXbeUkcIbgsCR+3mhek3L7nrKLhm9vRNP3RkjitSknTpzFihWrMXXqDIwfP0lBVJcuEWjWtBlat2qj7P5R1p8MZ6hMViYqgwliUZHdEN6pCxo2bKyc/K5EiRLw9a2Epk2boxV9XufwLhg1ciy2EoB4ofHpU+dx4fwVXOc/lyvROHP6As6eMQAM3X/xIgFGwIqUtQAjQyE19onihbMiYG7fe4HT0ffRNTAMDx3DAO/eClpuEGBCFcAQXsoNVADzrmxPQo0rnjBgCDO/e3TCrhzVULdMZZy4RHi/91JASlIROGwCGIKGlmSgqBE4Utl0xVZnvFWTAWJKekgxwIoEC1tkGlbUZIhoTcSI1hJhwxoRAiyI8cJ/hrVr10PUsrFY9/YClsUewbKHRuKP6fXjyzOIWjXBJMCI6LAkASWmxICZO28Zypb1xs2b9xFNvyRv3OA1GR+7Htc15VZ33hJj8Zli78Y8QmCNILRv3wnPnr7D9et8AcPnyonmAgJq4MHDJ4SajxMRCSFJxZ/zEUC3lDUkuvO5PFJO58/XH+JdPtu271LW5MyeMw/de/RA27bt0LlzBPr164+uXbspa1WGDR2m7O4ZP24i4WOMMk3hxwTXqo0qflVRM6gWAvwD4VPeR7mcQMcOnTBj+iwsWbwc69ZuwEH6OtG8Pub2A9y+dU95+/KlG7h04RouXbyGi4QO7vy5ywpe9AFTiABz+XI0weQ6zp+nx2joEj03r71xcTYNMDIOUmm08ZeS0JAaSgQXzoqTF+7ug1fYcvQMOhUsC7gTTMr2AHwG4E6pzmiSuagyjUF5AozPILz36qWgRgeY7vhAyLnl2pjuc8XqnQfo9/FbASnGImxYGS5qiQAjA0W/xAjRmgiSpBJhIkWosCTaCCWVDBCtGSBFjTZ69sQK97/pii4JIuamD5jIxWOw5uU5LLl3GEtitLXqySlErhivA8xzGTAiOixNgIi56QNGwQphg88WezVR8lTGsGvX7+D2nYeoWq26MoF5Qj/j/Hz37z9Fz559FMDwdYIkmEgxVnhCw5MUPmX/7TsPCEl3lI9dvHQNp06fx5q165VdPrwuZdTosejdu69yGHerlq3Qg6AwkmAycuRojB87EZMnTVOOAuIFtm3btEeL5i1RuZKfcvmDMmW8EBbWEOHhXdA1qrsyhWGkMDquXL6h4OQuQeX+vcdK9whqd+n1XKfv+/Kl68q05dzZS8rkhScwygLfA0exe9c+nDp5TpmcnDlzgaB4VweYQgyYGwSYa4STK5q6RF+Hn0MLYEQcpNZooy8lgSG1ZWu8cDEPX2PtroNok6MY4MG7hnoSVgYipnQXtMhK9yUBmJ8JMNGujVDj+3xYuW0v/Z6mf1SIWDGMoGEjvHDxgJGxwhE+7DVd4RLhJKkIGJZEGx8pGSLmJKPFXnCJB4uaCBXDZIyYmggTLRlgw3p9RIc1SwCYRQSY5wSYu4QTja16TIBZbhwwIj4sSQCIpX0EjBcB5i4BRvt1eaRUwFSr7q8JMOo0hdfAKAtpFazwGXL5/C6xyn08TeFJCkNl8ZLlygSlTZs2aN2qNXr04Asw9lWgMmTQEALKVGWXD+/+GTZ0JLp37YE6derB17cyqlapRv+v6yrrUvhEeG1at8XMGXOwYcMWBRknT5xFzN2HeP7sNZ4+eYlHsc8JKbHK9GTf3kPYtHErVq1cg0ULl2L27HnKLqixYyYoV+Bu1rS5sv6lkm8llPcuD97FxOtg+Gissl5eygn6rt+4pQNMNAGmm20BIyIhNUYbfCkJCqkxGS+cDBFzi4l9g6Wbd6JV9qIEmM46wFQYhBuElNDMhZRpDIOG73vvnRAwvxBgbro2Rs20BbBq+z76Xa0FMAaLdgWAWFqaRFBJhVgR8WFqtKGRkuFhTnpQ0cOKBAtbZjpYOBkhWhMhoqVEyLBWCZFhkwgD3INHBBj6M6xduz66LBiN1U/PYtHtg5pbEXsCXZaORbUaOsDwlZJFeFiSgA5rxoCZEwcY3gXEAJFgojVDwLx48R537z5Sbvv1H6Rs5J8REO4SFBgpfOTPpUvXcJYnF6cvKAtoJ0+eikGDBisnsOM6duiIli1bITIiCqNGjSU0jFeaMnkaRo4YrSysbde2A9q2bY/QkAaoUKGiUpNGTenzh2LokOEYM3q8stvn6JETOH3yPE4cP0Nvn8T+fQRRQsnECZOVxbbhnTqjJWGjSeNmaNSwMRo3aoJatYKV5/P09ERJj5LwLO2pvM/3t2/fEX3p8wYPHoYRPOWZMEk5Smnp0hX0vWxXrp00bNgIBW58SPjp0+fpe76joMeagBFxkBoTDn9Wk4CQmrMXXjgGzMzV69AwiytQsgsBphdQcTCiS3dGg8yFdXjxGUSAGUyA6Z1oAsOACfohPwFGywSGgGFjvHAEGAKImWjhRJgYS8CJnIXrVzhCRXLJEDElGS0pgZf/oUXNABq2iFAgAabz/JHKLqGFtw5obvnD4whfMkYBzBNrA0bAhi3iU/rPnb8c3uXK4y4fkcOnrCdcaC82Qfz5sY9fKBdR7NQpAnzqfD5Hytp1GxHaoKEyCdmzZz+WL1+FRYuW0kZ/lLI2hScYfM4UXkDbt08/DBs6HNOmzlDWm/CRPiMIKnyYcquWbeDvH6CsTwkNDUO9uiHKxRwrUIwORkj/fgMxcMBgZU0LHynEu4MahjVWJi/eXt4EkTLw9vaGn18V5YR7fN2munXrKbcNGzZSFvLyEUhjxoxVzl/DF3k8cPCIskvo5KlzBInLyuHefPbfp09f4fWbD3j1+j1evnqPFy/f4dnzN3hC9z969BzPX7xTvkfGDh8mbgvAiFBITSlo4VIPXMTXaULRhtH3p0v+epZ279FbLNywFU2yElbiATME0Z5ddICpoJu+MGrel5MBo30CQ8CwC2AIFsklYiS5EqFETsSHqREmkkrGh6nFISU1YYVLBBMpGSGmJGJES4mAYd1EYFg7woCx9AHTaf5wrHh8HPNv7k22eXEteXAEnZaMQlXehfTiF/oze0Vfk78vE3tg0H3hPit016A71PM3v2Pq9PnIkycvevXqjZ69+sRFb/fUxYdBf6yXrh4f625QbwKI7orPPsph2cHBwco5XyoRXlxdXQkqEQpWeDIxUTlnymTMnDEb06fPBp+Nt3mzlrTBr60chp0zR06kTZsW6dKlQ4b0GZA+fTpkyZwZTo7Oym4gvqJ0cK06qFqlKiry5MWnonLOldrBddC6dVuCzCCCyHjl6/CVp+fPX4SVK39UpiPHjp9S1tU8efJC6enTlwpI+PYJR/c9eszXUnqmxEdP8Uno7j94gnsP+BpGfO0iQtwd3docXXw5g489fvxSWZtTqyYB5ioB5hQB5kYcYJRFvOYDZiwB5llqBAxtcJNK2kDbsjv08xT77Gc8efmb8ufFt3w48QPl1Pumx6fsT9BjtXc26R719PW/sHTbbh1gPAgw3gSYSsMQXTYSDbIUAXwHU0PovqF479MXoYSaeMC4dzBhAkO4SGnAiChJKgEnSSVCxNQIFsaSEWJOcWAR4CLhwpbZe8rCiSjREm1UbRPBwZ4JaNGPAcPxYdRdFo3G6hdnsCjmEHXQSPyxj618chKdl42BP/3r+t0HKLtjGDIm99z2PUkU/UKnfvsDGDFyAvLlzYc1q9diFW3cVyxfTa3C8mUrdS1diWVLV2DpkuVKSxYvU26V+5bG3Rd3/5LFS5XP5d0tYQ0a4crlaGVh653b95U1KYVcC2PQgCEY2H8w2rfrqCDHyclZ+fq5cuZGjuw5UCB/fhQp4qZcwDEkpIFysjg+TDkiIpKQ1Uc55T6vdeEpDp8g7+SJM8pG/cKFy7hy5Tr4jLV8XaRHhI5XL9/htTIdeYcXL/lK22/w7NkrPCacMEh4nQ0jRtmlRbf8thJhhEuIE/0SQiU++j4/nrGXd529xahRY4wCho+YOn/hKs6dv6ypi5eu4fSZ86kXMASGpJKAYc1uxjynn30+PcI7PHz6Affo7/jJK7cxf9VPGE1AHjB2IroOHobWkV3RMiIKrUyMPyclakt/X6qEhiAskwtQKlIHmMrDEV2uqw4wlQkvlYcCfsPwvkI/hCiA6USA6aYAJjo1AkbESFIJGDFWInCYEyEiqWR0mJsMFXtjxfQJCycDRGsiQrQmQsNaERTsmYCUpHr4+A3uxDxF1ar+yFfNHd6R9VCmY7DmvDvXgWuID3Lky4P6tLGuQxvbBNXnQj8Wovc2VVutHheSuPrq2x8/HpxcdeX7atWtL1Y/rBEKubkhZ86cGDJsGAYNIVwMHpygAYPiinubH8OLZzu07YCObTsqdenYGVERXdGd7u/Ttx9Kly6N3LnzKNMQXi+iTF+cXZEmTRpdf4u71euz//s/fPXVV8iYMSMcChZEyVKl0bBRYwUjb9/+TBh4g+fPXytraHhK8pinI8pU5IkSH5794MFjZZEwH07NiEiAEj2YSCUGCd1v+Plx8fPzVIYhxNMa3eSGo43ng6eEqDu4ePGastuoT59+qBkHmFMEGP5Yt666XUi8/ocnK3wiPS3xyfBOnz6XOgDDYEgmCRm26umr35UJycnz0VixbgvCw7uiQ63GaFK2GoKzF0brDG74MWd1bM1bC9u5fJ9Q+eugRwZ3NEjvCHhG6c4DU3Ukoiv2RINsRent4dQIoNoI/Fx5IBplLRo3gemGD+7tcd21kSbA2AsvnDbACDhJKhEipkSYSCoZH+YUh5XUCBdOhIphMkhMSUSJlkRwWCNtZ8G1WgJMtPbo6Tucv3gTBfI5IFdbb5SY0QhFJ4RQoZoqPrUh8kb4IkcJRzQcG4WQUZ2pLgZ1RijdJtnoCDSIi9+WajBGLVJubCTC6DUkaBxH9yu3cs2n9YZHAz/kds6PEaumY9iKqRi6fEqChqz42FBq2MppaNyrHUJ6tELTgZ3QsFdbBLWsj0q1qsGnaiVUqe0Pt5LF4OxdHKGDO6BO71ao37cNvJv4o0T9iihRxQsZc2XB91nSI3vBPKgcEoia7cJQs2NDBEc0QXBkU9Tu1pxqBodyRdG+Q0e8fv1BwYhhEi7iMwBKwu4rn89TEgaPgp+HhCEGkV58H39M2W3EKLoXq5x35uixU9i8eRtWrVqjTJ8WLlyi7J7iJkyYpCw4btasORoRwBhzvEuMj6j6ywCGwGAsCRe2TH1N02YvQnPCtCP9PGf85zfI/9m36JXeHdNy+mFB/gCsdAzGlkKh2Fa4AbYV+rTaXqQRonJ6IowBUzoSKEeACRiDaL8+aMBHJvmPokbTfaPxa9VhaJWzJJ56dibsdMV7BoxLageMgBFjifAwJ4JEUsnwMKc4oPwPK5YlgsOSCAL2ToCIuSmAuXQLDvkKovjIegg8OADVtvfSXMDefnAbUw9OFd0xbNdC9N86G/23zMYAatCu+Ri8e75yG9/OlGugkUYeWQH/7k2R380J846sx5xD6zD74Fqj8cfn0G3XmUMxdPccTDy9CuOOL8OQHbPRZ+V4RM0dhhaDuqCYpztyuuRHyzHdMeXoj5hzdhM6zR+CXKWckTFvNpSvXw0dJ/ZF9wUjMfXgKsw5tQGzj/+EWcfXYdYx+hon1mPR2S1o0KcdWrZqjVevPhiFiQ4zul1AultdMTEPcZ/QwbuSnjx5qew64gkOx7t2eH0LH77Nu2ZOnjyLI0dP4tDhYzh85Dj27N1PKFmMUaPHoF///sqaoF69+2DQ4CHKFaGHDRuJdu3ao27duvD390dAYKByDpnevfth0uRpmDBpKiYo627mKAuFAwIClaOQTp06p+zi+uQAw1BIIgkW9urO/Vc4f+UuCmTJgYxp0sD179+j5FeZUfLrLCj0VQa4fJkezpTTl+lQ8Iu0cPgEc/wiHb752z8Qmr6gbgLDgAkaj+iAgWiQszi9PZYaB9Qcj/f+wxFCqHlSpovy2Lcl2uGqS0MEpWXAJL2I1/6AEYBiLBEhpkSYSC4ZIOYWh5UUBouatdDCzyV/vx9TT3OvNREsnAgPa0QIsGcCQCzt0bP3OHP+BnLnyI20NV2Qp5svcnX20VzuyIrI2qw0vsz2AzKWyIuM7pRHPqQrmguf//Al/vbVP/C3b/6Z6kvzj8+QPmMGVKlRHZUDq6JyQPJV8q+iq7ru1i+wGqrW9EfV4EBUqx2IYu7Fkeaz/6N0u4c+//oLpHXJjozF8qBosDdKN/JDybBKKFHfB0VqlkWhIM/4igSXRU5PJ+TImwsFnByUo4/evPlZ2U0UG/tMObqHdx+pi28f0/u8K0l/d5Lu7cc4f+Eytm3biZUrVmP+/IWYNXOOci2mKVOmKYuI+VwwdevUURDCF6DkxcB+fn4oX7483NzckD9/fuTKlRO5c+eGs4sLypX3QdNmLdAloitCQsPocRVQuLDucTlz5VIelz+/A1xdC6F06TLKeWccChRE5cp+uBHNExgZMGcJJ1ri6ySdshdgCAdJJWEiJWLAHKOfY8/8Luiezg29s3mgJ9XjL1Tf7KVQ+fucBJi4XUjl+wB1JiO65jA0yFUCqD2RmqTc9ypwBOpkL6IDTOkovIkDTI0f8pk2gRHQYc3SyEj5xKHyF8OKfrzRf/zsHV69/Z02nu/w+LnxHpnQkxcfdIih55exYXkiKmyZAA5rpH+ocuzTdwpg8jsWRI7WZVBoTB24DK2puUIjayNnay9kKpEP1aZ3gN+k1qg6rR28h4Thqyw/4OvsafFtvoz4Nm/q7Tt6ff/I9A0yZs+M2k1DUKtJPdRqbEp1dTWqixqhtRBQLwhBocEoVqoE0mXLiGKVPZHf3RnZXPOibNsAZPEuiKrh9dFv9URMP7waE/cuwfjdi+l2KaYcXIFph3ka8xN6LxmDMl5lcfzoKWVdy61bd3Hu3EUcO3YKBw8eUQ7F3rFjt3L1az5xHV8aoHnzlqhfvz6CgoJQtWo1+Pr6KhePzJeXYJmRvtdvv8WXX3yBzz//O/72t8/w+d8/xzdff41MmTIpa2748GpeOFyhYiVUpMqV8wFfqbx8+YoEkCr0vMFo1KgZIiO7Y+Kk6Zg3fwkWLlqOpUtXY8WKdVi9ej3Wrt2EDRu3YxttKPbtP0ZouYdaterQc5VX4GIImIsEmHOpBTCEgaSS8JAaYsAcvxANzwKu6JauiAKYXn+x+hNgqv2QGw0zOBFgIgEfAkzoDETXG4MGeTyAkKn0/jRqOt7WHot6OYsRYDoru5teFW+Lyy5hpgFGAIe1S5MIHuZEG77kktFhTnFAMQKVvxJWpJ4SNE6cuojGTVqgXv2GqB/SyPLqN0JISGOcOH0Zj5++F/FhaiIo7FEcMqyZPlgMY8Ccu3ATziXc8HnB9Pi2aA5865Zde0Wz42uXLPi+RC7kbFgKOUI9kCOsJLIFF8c/M3+HH1yzIi09Z1o36/eDlUpbLCf+mTctsubNgebd2qFptzZoEtU6+boapHd/ix7t4VHeEwWLOqN+eBNEzh0M77p+cK7sjtJt/FFneFt4NKqMRsPCMf3QKsw/vRGjNs1B5+n90XRoOBr0bYOADqH4NuMPCKkfqsCED6nmDb6DgwPy5MmDbNmyKShJlzYdvv/+e/xApU+XHlmzZEW+fPlRrFgJ5WR6rVq3Q3iXKHSJ6IYoQkO37rwrqB/6DxyC4SPGEESmYcHCZdi0ZSdOnSEgXIrG+Qt8degbhItoXLp8E5ev3MKVq7cp3WUV+IKX6vWh4q8TdZ1TL4bJlzq4TZ97C3fuPkbNmrUVwPAamJMnz9FjbhO44gBzkQBzjgBzloDCCWjRz6qAoY1/UklYSI3pA6YrAYY3+DyB+SvVTwFMHjTK4KxbA8OAaTQH0Y0noUG+UvT2LKDxbGoO3odORmhudzwpy2tgIvCiWBtcdG6AwL8MYAgTSSXjw9IIKEbwIqHC1pmOFk6GidZev/sXFixZhupl62PfwvPYMvM8Ns+wrINLzqOGTxgWLl2B569+E0GiLTsvvlUjSFg7CStSDJiLV27DuYAzivaricBtvVFtbZTm/Dd0h+eUxijcuSraHJ2ElgfHoc2xSaizsheyl3BAvYmd0WB2d4TO7GbFulq1xgv7wKNNNeQt4oDha2dg6JppGPLj1GQbaqRh9PmjNs6GV0BFlK1VCU36d0SLYRHovXo88hVzxPd5MsHJpzi+y5MRX2T5DpkL5ED+Yk7wCqqMYhVLw8WrOFzKFkeRiqXofheCyQ/w86tGSG+ITuERGDV6PFasXIOf1m/B+vVblWnHps07sHXrbuzYsQ979hzCwUPHceLkeVy8HK2cXO/uvSe4E8Mn6VNP1PcIt+7E4ubth4i+dV+5SOXlq7cUuJw7fy0BYC5euqkgxjD1/qsEFp6y3Lz1ALfo+W7djo3rId33EE+evkVw7XrKpQVUwPBtPGBSZAIjg0U/CQqptf8WwFT+PhdCeA1M6QigQl+gxSJEt5yBBgVKA83n0fvzgZYL8b7xdITm9cAT7y74kx77rFhrXPgkAUNwSC4ZG+amBxQDpKQKqHAiTKRkhJgbr0d5+fYPLFy2Ai3rdcXTk0DMQeDuAct6dRbo2KQflq78UTkPiYyTxImYsEcEB2sn4URLD5+8pQ3XXRR2KQLP0WEIOT4SdfYM1Fy9g0PhM78NiveoiT4PV6PH3WXoE7saLQ+MRR4vV7RdPQydto5Dx81jLKpDgkZbtYg9k1GhV4iCiIm7l2D8rkUYt3OhpibuWaLsAtJv0r6lmHZkFcrVrIwKDQLQbmxPtBoRheE75qBio0D84x//gHfTAFTsWBuFqpdGhba1UKtvCzQj5EzZz9OYzZh7ahMWXdyBwWumo1qNQFwgVNy6/SBu2qGbcvAlC/RTLzjJkw/GCOPiwqUbOHfhGs6ev6rEb1+6wui4g+uEDsbLTXpehow+Phgj/DyMmVOnL+H4ifM4euwsDh85hQMHT2DvviPYtfsg1q7bhDFjJyIyqjuaNW+F+vVDlWlLYGBN1KD47bCGTZA3bz7lDMS8YPjEybP09W8hqmt3+wKGNvRJJcHgU+m/BTB+BBhlES8DpiIBpu0yRLefiwZ8heo2i+j9xUC7ZXjfYjZC85fC4/IR+E+pznhSrBXOOYci4HsGjMZFvAI4rJ1xwBAmjCXDw9zioJLK0KKWkmDhDBfUMmDWbtiMXFldUbJIdRR19qEqWFRxF19kTJcTP67diOevkgeMiAp7RGCwZhJITI0nMJeu3IGrkytK9AtGzW19Ebi2GwI0VmNDT5Sd3ARFOlVDx1PT0e7oZOU2ZE1f5CjpiIZzeqDZ8gFouqSf2TVJUF+D9y2v1Zoh8AwPQl63ghi9aQ5GbpyFERtmJpPuMb0XjELPucPRc96I+HrNG4l+S8ahTDUfuFUqjaDwMAS0D0Gz0ZHwqFEe3/3wA0pWL49SDSqjWrcwNJ7UFU0mdIVnqB/q9miJ7vScUXOGI3LOUETNG47iFT0xeOAw3I15hMuED93unMQxYq5Hx+DGzfsKTKIJIbru0333FLDwRGbPvsNY/eN6Zf3K1OmzMWHCFIwezZcqGIshQ0di0KBh6NatF+rWDVGuTs0n2cuVKxeyZs2KbNmyKxhxK1IMfn7VERLaCEGElCpV/VGpclVCShVU9vNHjaA6aNikJbr16I8VP26ClzevpeEJzC37A4Y28MaSMPAp9l8HmFIMmH5Ah5WIDl+EUEcCTMdlQKflQPhKvG87H6EFSiuA+TcB5lHRljjrlBoBQ4iQkrFhaXFAMQKVvyJW+HlfvPkNz17+jFeED158a6yXGvr9T2Drzr3IlDY3Mv6QE1998R2++eoHi/r6ix/w98/+gbXrt+LfAN7+/KfQf5TexKW+L5fwcxN/zsePvXr/Lzx+/l75M+K3X3/4N968/zdeU/zn9fz1b3gQ+xp37z8XEWJKEkAsjQGjHEbt4Ihv8mRAxqJ5kKFIbqQ3Wq4EZXDLje8cMuOH/FngElQWTgGecKlRBvkrFcMXab9B+jxZkLFANmRIxWV0yIGvM/2AjFkyoVZYXQSF1tZYMCr6+cLH1wc+lSokqFKVSihavCj+72//h7/98+9Kn/3zb/T+Z/ieAJM/fwE4FHKCk3thuJRyQwm/sijsVQL5XBxQoJAjfcwZhUoURZkK5VC4uJuyu4WRcvjISRw4cAx7CSG7dh/A9u17sXnzTqxZuwFjx01EeOdIhIU1UiYgfJ0jdTEuL8Dl+3hXDi/IdXUtjNx58hJKsiFLlqzImTM3XFwKo1x5XzRp1hpDho3F6LEEG2rseD4keiamTJuLWXOXYOnyddi8dT/OnI+m37Xv8fgZn9WYz8D8m9KTuB7TfY+e/Yz3vwLVA4KUMxMzYPhwbb76Nl+AkgFz6TLvsrpCiLmkqYuXruL0mWQAQxv1pJIQ8Cn33wSYkHQMmC6ALwGmyxrc77kGrQpXxp+dVwERq4HINXjfcTFCHTzxxCcCf5QKx8OiLXDaqT78v8+bugEjw8PSCCdG0GKICHtm691C/DXu3HuKnzZuw/bd+zB/8VIsXr6SWoFFy3Tx7iBdy7Fw6ccW6LdE1/wlS7H8x3UI79oFDf0jMHfwDoyMXI5RUSstanKvNahcpjaGjR6FkWPHY/DwEfENGTGS4rdHxvXxY4YNiivR/Xx2VqXhCRowZBimzJiFI8fPYcXq9Zg5dxEmTJ6GMRMmY8KU6Zg9b5GCqujbsfRn+VpEidYkfFij2LjDqHPlyI101Z2Rt0MF5G5dLsly6ZW7vQ8yVHdF5uL5UWNpN/jP74LAxZGoOL4lvs6eDn9L9yU+z/otPs/yTeqNXt9naf+JDFkzwT+kJqrVD0K1ejWSrGrcrX9oLfg3SFxQ47pwL1sSX6b/FpmcciBDfoJSwTgo5ciCwh7FUMCxIAq4OsGtYilUblkHhcqUQNrvfsAP336PdN+nhWMBR9QKIijVqIlSpUork5AcOXIgY8ZMStmz54CTswu8CSQNGjZFWKNmqF0nBDVrEcJq1kEtwkpIg0Zo1aYDevUehJmzF2PP/hM4dvIKTp65htPnbuDshZsE2Du4dDUGV288VDbuDx69xfNXf+DF638p8cUS+X3u6UvCyfNfEPvkPf29fK1cBVo/vubOvdg39DvpHfhU9g8IOAwYfj1lypSNBwzffgSMFS8lkMQFEzlp4/9X6L8SMJX6A93W41bvNWjo4kNwIbx0XUP3rcP78KUILVgGjytE4reSnXCfAHMqNQJGBoc5xQHFCFT+6liR4sPRr9+6j2qV62BU9x/RudEYRDWbpKu5Xup9SpM/vt18MrpSfF9k04mY2Gsrlow6iC6NJ6CooycaBnZE7cqtUcevjUWFVG+DwgU9MK7PTxjZeTWGtF+N4Z1Wo1uTWQir1gON/fugkX/vBDXkqvdKFH/M1z0EnoUDUKZwDXgXrYXeLRYqz8nPE1qlO8Kq9qDn7Ul1R74chVC0UEkUKVAKmX7ICQ9HX3gVCkRxh/JwzedBG6SMaNs2nP4s3+p2XxEakkuChq3i88CcPncN2TJnQ+6uviixvBWKzW+queJLWsChrz++LZgFDi0rwKG5DxxaVUC+MC98kek7fJE3Pb4skJHKYCT+WArnkBF/z/YdMuTIjIAW9RDQvC78m9WxqBqtQlC0rAe+y54Becq4IKd7QeQrVxhZixfAVz98g2+/+xb//Mc/lfUwfI6Y//vs/5DbyQGly3rDs4wX/ANqok3bThg9bgrmzFuKWXMWK82dvwwLFq3EkhXr8ONP/A+Lwzh17joeEigUaHBvCB9vCB4cvf/s5e/KhCT2yQf6uX5Dfw/5dAMJY4zEPHildJcQcjvmBfWc/gHzQkn39kv63fgOT1/8qjzvyzf/xsu3/4nvOWHnFj3u7IVbOHLiEvYdOoNd+47j8PGLKF/B1+giXosv5vjqdxEratIG/6/Wf9Mi3voKYDoTYPoC3TfiRp81CHH21uGl+zqgx3q877Jc2a0US4D5uWQH3HVrhhOO9VCdALP6rwUYwokRtEiQsHf2Rot+DJgbd+4joHIo9s59g4s/Aefo74jJrdXdXloPxOwEZvTbj1Yh4Vg1dROmDJyPqYMXWdT80UtQvUItLB52Bvd2Aze26Lq2Sfc1L28wrfP0M6C8Zuo8dX2z7vkMH3eN7t87/yUiG41Dg+pdULhAaXi6VkFTws3UyO1oHTgAn6X5B6ZNn08bkV9oQ2EcMBIu7FHs0/c4d/Em8ufOjzxdfFFycSuUmNVUcx4LWiJvRCXk9XFD+JEZaLdvIjodnoaQZX3xXe5MyOCSC5kK56XypNoyu+XD93kz47O/f4Yv/vlP5Twp1ojPsZIxdza4+njAyauYcpvdKQ/+7x9/w5fZ0uI7x6z4PMu3KFbTB5HrJ6PnthkYO2U67sch4sHjtzos0AZa7dkr3p37G568/BWPeRLCpw0glNy+95zw8CxhepMRjlHCWGGEMGYePeV+1vVMd8uTFf44T2EYO3xRQH4tjJjL1+5h/cZdmDRlDgYOHonuPfsjsmtvdInsiYioXsptQGAtOLsUQuYsWZE2bTpkyJARDg4F8c0338DPrypuRN/ByVMEmBt6gLlCgLmk242kJZ7YnDlLgHFJHjDSxv6v2H8LYPgw6obpnQgw4TrA9NyImMGb0KKoH8GFfnH3ol/4vTfifdRKBTAPKkTgPQHmtltTHCPAVDMFMHaAjAmAiUNKKoRKgukKJ8JESoaHpakLbh/yBIYAE1S1AQ4ufIuL9HdD3bCbEiOA47ejCQJT+25DXf/2OLXhVxxZ/Q6HVr21qAtb/o2mtbtjzsB9uE5o0YeT+rVN6QL9HOinfB/0fNJjGUi3twM3twK75t7HBNJ/Na/6KF3YD6Uc/RBSqzVu3H6grDVJaawk6L6u2CfvcPHyHbg4usJlQBAqbeuBCusiPrY26Xw3dUXhYXVQoHIJRJ6aqyAm6vQ8BM+MRKZCudF03TC03DoWLTaPjq95gkYZb5N9artnErx7hiKnc150nzcS3eaOQNc5w82OP7/nojEoVr40KjYJwsSzazH6yDIM278ILmWK4R9ZvkOh9tVQJrIueu2cjaVvTmEL7qJa76Zwdi6EZy9+o78nvPuWJx8Mj7gIKbd5IkL/35QevKT/l4QLLm7XDa9H4Q06T2Bevo2bkMRNShgn5y/dxsHDZ7Fj1xFs2rpPAcman7Zj9dotmD1vGdp1iIBfVX+4e5RC4cJFUbhIUbi7l4Kvr59yEjvvcj5wJXQwShwdnVC8eAnw1bSDg+tg7LjJmDNvERYsWoYly1Zj5Y8/4acNW3H0+FllDY7uRHZ34q+FpACmcBFcuXYTF+MQo6XLV6Nx9uxFHWDGJwaMtIH/q/ffApiqP+TWXcyxJAGmMgGm9xbcGbIJTd18CTD0C7kX/Su79wYCzAqEOpXBPZ8ueOPRDtFFmuCIY11NgOFSCDBxQBGQoiYBwp6lRqgYKx4w1cJwaBFt6CwEDMcb+jmD9qCIoy8imyxGeNhcdAqbY1Fdmy1DCddqmNF/O25sTvj1kkt6vebEz3WV8HSDvj++/WnKJTQJ6oZS7l44dvKC8i9lERL2Kg4shjFgLtBGzbmgMwq2qIDyk1rAa3QTeI1RawrvsVwzXePiGt8c5Sifqa3h0sYP+X2KIerkPIQfmoGupwgw0yOR1S0fIg7ORLeTC9D1+Lz4oqyY/vOaW+9Ly+A3pAUKehTGkmu7sPDKDiy4vN3s+POX3dyLSvVrwK9FHcy4uhUDN89CqZq++CFzemQpnB/N5w3EnFt78OO781jy/ATW4hoqtK2DhqFN8fZnKJMXpZcf4ynJ/Udv6P/ny/iJS/Qd+oV78xGu3HiAPftPYtqMBejbbwg6hXdF6zad0LJVe7Rs3UGBScNGzeBRsjRy5syFdOnSKxMSXsTLU5Dq1QPQrl1HtKVat2mPdu07onOXKPTpO0BZHMznnTl2/AwuXI7Gpau34g7D1h3xxIdh37rzEDH3n+Leg2fKLaeee+b5y58V4PAuJH3AdOvWg5BUBFcJMDyF4bUtyXbxGq5cuamc8E4fMNJG/b+p/6Y1MPXSFcSfJTvhz8p9CCubcWPAOoS6egPdfwR60i9iQsz7yGUIdSyDmPLheOHRBtcLN8bhgnUIMHk0Aea6PmBsiJg4wBBOjOBFQoS9Mx0snIwOayRhRUoFTI2qoQSYN7gUt3vFkm5uA+YPPYDsmRxRtlgdlCwcSNWwKM+itZAlQz7MGrBL2dUjfV17x6/j9QkgsuEE5VDTB/RneY/+v4q4sHUCXNQeEazOno9G7tx5kebLz/B/P3wR32f6pVX78mPpvsTf0n+JNF/9DXk9C6PH6UXowmA5sQD1ZvdAJpfcqDOjK0Lm90G9eb3i6qmXep9ec02rvhUKWzoAHm0Dka+IE8ZsW4hRW+Zj5OZ5ZsefP37XEvgEVYF3vWrouWoSKjQMgotnMfiEBaJc/UDswUNs+v0G1vx8CZtxBwMPLEYBV2esXLkBO/ccwY/rtmD5qvVYsmwtFixehXkLVxAmhiCwRjBKuJdEwYJOyvWGnJxclAlJ1WoBCAisqRz2XLRoMRQpUhQeHiXh61sJDcIaYsDAoVi0eDlWrf4J69ZtwsZNfKr/Pdi79zDB5Kxy/pjYRy/x+MlrPIorln+Xxr7AfUIJn/iOD8PmE94lSu/su1IP6XeJMr0hwETfvIvTZy4ot9276wBz7fpNXLl6QzkaKckIMNzVqzfBF3VUAfP0f4BRAHOMfo5L53NGz/RFlY09XztIqk+2kuidVXdtoU+pQTk8lQkMr4H5j0cn/LtSb8LKRkT3X4sGLuWArqt0iOmxFh+6LEGDgmVwu3wnPHVvgyuFG+Fgwdqoqhkw9pnCpPn0oWKYjA5Lk4CSXApgbusmMEeXvsOVTcCF9abHkxu12zuBxSOP4Msv+EiLbPju6wz4/puMFsXP8fnf/4l5Q/fi5vaEX08tudeVVNLnGus8dX0rcGcXML3fRvh518Gan7bg0fMPMi5skQAVY+kmMLfg6OCEnA1Lo+iweigyIBhF+htWS6zo4NrI3cwLBSqWQI/jCxBxcBa6n1iIkLm98X3uzHCrWwHFG1ZB8TA/Ib6fapCyeTSujtzl3JDbqQB6ThuB7lOHo9uUYRbVe9ZoeFWtCO9aVdFqRA/kcS2IcVsWodXw7sjrUQiNpvZG7WGd0GBSD9Qa0Ba53ByRP29+FC/hgUyZMivTEb7NX8ABZb280axZS3Tt1hNRUd2Vc7T06t0fgwcPx/jxU7B48Qrs238U1wgL0Td1Z8S9fScWd+5yj5Tzx9yNeYyYe0+U7sZwj3H37mPcufNIOYEdn0mXP98wHUIIJwyUZFIhEx/hhp/71ZvfUKdufZQrVw63bsUou39u3bpHgOmpAIbXw6hTGONdj48PweYLVLq4uPwPMHExYE7Rz7F7fmfUTJMRdf+ZU6zOP3Mg9Jt8aJ3VDXXTOyA4bX4Ep/s0qpeuANy+yqAA5t8eHfFHxV6ElZ8IMD8SYLzpX4vLCTErgW4/4nWn+ahdwAPR5TricYlWuFioIfYRYKqYABhdBA1bAkaChD2LRwsngOTR03d48fo3vH7/Lzx79bPS89e8n5rTvW/rnprZy7e/4d6jZwSYUBxd9hI3tgFXNlvWvb1QjkRKk+ZvyEx/ITPRX0xLy5zOAX//25dYMvog7u6Wv67U1bikj5kbf/0z656jc+Oh+JxeU4VKvgoGHzzm0T+hwdYJSEmq+F1Iji6oPK8z2sYsRIvLMzXX5uY8VFvWFY5+JdHj6AJEHZyNnicWoe70bshTzBlzz+3Aomv7seDyXrlLKd/quyfQbGRPOLu7YfO149h45Qg2XD6coI0mtIk+f/vNU6geEowKtaujXFAV9JgxErteXUXLIV2RxTkPqvdqhgZjo1CsdkXlKKTI8K7K+V34cgA7dx1QznR76PDJ+MsBMDx4OqL0+DUeUTwxefDwufIxRsv16zG6CA7xbxMkOAUUjBL1bRPi54vmXUX0NeLP2HtHF09m7t1/Sq/jBf1D8qXympQev1Re17ETZ7Fn72F4likLH58K9Ln3lJPR8W33HjrA8MJeRsmVq9EG3RBj8Jy/eOV/gEnQM9x9+BorVm1AZZ9KqOpbFVUrVUuUXwU/dGjXGc1Dm6LCNzlRO5Mramd0/iSqQ6/V/dtsBBkH/OHRAb9X7ElYWYvo3ivRwNkL6LKEELMMiFqBtx3nop5DSVzzbo8HxVviPAFmT8FgMwBj26OS7AoYU6crDJfr9IM6fvJ0NG3aBvPmLcfYMdPoX05jMGTI2FTaOAwZrGvY0AnK+SN8ylTDufXvcZs2ztE7LOvuHuDYqidoG9oLDYM6oHHNThYXVqM9OoT1x9l1b3HHCq/RpHbqbvnP5ulRYN/i66hYqiZypi+KdN9lw4IlKwisv8vYsEYCSkxJAcxlHWCqzuuCTneXoM2l2ZrrEL0AAcu6w8mvFHodWYRuB+ai17HFaLJwIDLkzY5S1SrAq1YVlK3pl7CglK9MXOXqVEe+os7IkjM7OvXpho69o9ChV6QFRaFz/x7w9q2Az/72GXI55kfvuWOx9s5RtBjaFT71A3AKLzHop5n4Ku23CK5ZR9nY864anpbw1ER3vaJYBQk3b91XECHhQlN86QEh5ZIEym1M/BqWB7H0d4Lw8egJ/eOLsfT0Nd1Pv8TpcecvXsfps5dw/OQ5HD56GgcPncBPG7ZgxMgx6NAxHA3CGilrXYJqBqN2nXqoVy8U3uXKEzQK4YsvvoR/9QDcuXMf589fVm579OiFwkWKKLuT1CnMx6KNxuDhk9kxYMaMn/Y/wOh179FbPHj2M/VB7OHzX/D0/X/QoGEzXHRqCviNAXyHfxrRa11XKFSZwPzs3h6/VehBYFmF6G6L0cDRE+gwD+i0AAhfhPdtZyKkQElcKtsWMcWa46xrA+x2CIbf97lNBgwXjxgrQ8amgEluumK8l3j74d9Yv2ULfLyroU3dnmjk3xOdG43DvvmPsHnaw0+irTMeYvXYG6hWrj4ubn6Fh4eAmP2WdXcfcP8g8OgIlOd7eNg6PSY88PNKX9PW8dfmxvdeAOe8JeHpXAeFc1VGNf8A5Sy9fDisiA9LE0BiagyY8xduokA+Bzi0rgTvqa3hObap5spObAHXzv5w9PVAn+NL0P3gPAUy7daPQ/YiDihVg56TNthe9fxTbeXDgpC/ZBFky5MT4QN7odOAHujYv7sF9UDEkD7wLO+FfIUcEdgiBD61q8ObsBTQJhRVmtUlvMxCms8/Q9ky3rpdPgQWXhirD4z4koGI2o3oGOW5dJMR3e4jhhB3995jZVJy/+EzQspzXfQ2v8+P5TP8rl6zAXPmLsIk+gfX6DETFJgMGTZSWdBbqbIf3NzcUCB/AeVK1y4urihXzgc1atRClSrV4FvJD5UrV0VgYBAaNmqK7j36YNbshVi2bA02bNyBJk1bKB+7fZsAc+EKvbYHCmCKEGBu3oqh166bwigRYJKKwcNrYVIrYJRDz/lQ+BSLv74cH6kW++IXNGjQBKdcmgBVRgGVhnwa0WtdWSQE9dMXxAf3dvjVpzthZSmiO/O1kEoBrWcCbWcD7ebgfYvJqJ/fHefLtMatos1wigCz06HWXxMw5iFFLfF6k5dvfsPGLTvRvM5gLBtxAU9pw9qv7Sx0aTgGt7bpDr3lc6qk9vhcJ8eX/44g34a4vuslnp+kDfUx6/T0hPV7fDzx17Flj6j3F+nt43+gSXBb5MjgAu9CYahWsh2yp3eGe1EfTJ4yF8/4+kz0d0VEiCkJALE0Pjrq9NlryJ4lO0oPaoA624YgaF1fzQVvHgTPIY3gRIDpe2wxehyci95HFqLl6uEoFlAe+/EEx/AeR/DGSG9x1Oa9S7ILAHqvmwk375I4+5/HOP3vWJz646HZnf5XLD3nc/g3rI2mfTvjCn7BwT/uYcreH1GsgidyuzjAvao3cuXJo1yX6B4h4lr0XVxPUIwSo4RT32Zs8KSGpyQ8HXny7A2ePnuLp8/f4t6Dp+DLDZw+cwlHjp3GgYPHsHvvIezctR8//rgeAwcOQfPmrVCrVrCCjkqVqyhHH9WqVQfly1dQDo/mhcFc4UJFUKGCL5q3aINevfqjX78hGDx4JEaOHI+Jk2Zg3vyl2Lh5J06cvIiz56+Dr0x9+QpfRPIO3d7Bpcu3cOHiTcJKNG7dfoTGTVqgEiHnLr3+Cxev4W5MLHr27KMA5tZt3kV1B9dv3NLUTXo8r4VxdXVNdYC5cfsJjpy5ij3nr2LvhWuprj0XruLkvViEEihPurUEakwA/Akxn0L0WleUaKgA5p17W/xSvithZQGi209HgwIeQLPJQIupQKtpeN94PELyFsfZ0i1wvWgTnHANxXYCTGUCzI9mAEYXocPKkDELMAkmK1wilCRVYrDo9/jZO5w6dwEBVRpjy9R/KxC4vQPo324WeracGn+UjHQobmrrAr32w0s/oGblMNw9+BLvaGP96tz/UuM/jxt77yCoUgiypXOFn3trBHp2QpF8vijiUAFtg2fi6y/SYuKUmXj84mf6lxmft4PgYE4CPqwRA+bMuevIlS0n/GZ0QJsrc9D85BTNtbowE5VndIRTpZLoe3wRehwiwBxdiLbrxyBvSVc0HRCFliN6ocXwHilQT021GzcA3nX9kdfZAWOWzMSoRdMwcqGG+HEUPz5h0zF+xRyUr+KLYuVKI3xMf3QY1Qfzz2wlJJVCppxZUcDNGdOnzcGrN7/EHX6s637crRLdz7tveHrCUxS+KOP+A0exZOlKZUoyfMRoDCCU9Ok7EL379EerVu1QwYevc1QIefPkRe7ceeDk5ARv7/KoWzdUucxA7dq8a6cBmjRujk7hERg+fCxWrvwJW7btxY6dBwk8R+hrnMDhI6dx/MQFnKW/GypEzp2/gTOE3VOnLysf27f/OFasXIcpU2fT84xB376D0LVbL3SJ6IZOnSLQoUNntGvfGZ27dIObWzFUqVqNvqdYZXpyjzaivRTAuOHWHb4qNqPttqb48Zev3kh1gOFz9JwhvPmXrogZVVpidmC7VNeM6q2xrsUgNK9YEyfKdgLqTQOCCTGfQvRaV5RuphxG/bZEW/xcPoqwMhvRrSahQb4SQMNxQGN6XJOJ+BA6EvVzF8XJUs1wxa0xjrqGYJsCmDwWAIYjeNgDMJYhhZOBklyv3/2BkaPHIbzBAhxYCJxYCdzfQ//CazMF4Q1HKIcRK0e2EA7iizuCxViGR8WYkvR8atLj9bu8ETi24gNq+YXh3uGX+HAZeEP/XLU42vBr6a2xLmnrnbHo+zC19wZ9uAL8Hg0EVqiLXOlLIqBUR1Qv1R5V3Fvh+68ywt+7PSrTD49b3iqoU6ch/R3k8a3GKYwADVvFh1HzBCZb1uwo0MALnoMaoFTvupoqSZXuHwKHMG8UrFAC/U4uQY/DBJhjC9Fu41g41/WG3/AWqDa2LaqNaWP3qmoscEonuIb6IF2mDPCvG4Tq+tVTb2vo3ubq14S/UpDuNkS/WsptUMM6KOxWBEWqlkHzGb1RoWUtpM+RGV+n+w6f/d9n6NGjj3KFaD56aPuOfdi0eSfWb9iKpctWE0YGIKxhI1StWl05SRwDxNe3MmoE1YJvpcooXqyEcjHGom5F4VXWW5mgdO3aCxMnTsf06XMxZ+5iLF68EqtWrceWLbtw8BAvBr6AAwdPYueug3TfHmzYsB1r1mzC8hXrsHDRCsydtxSz5yzGxMkzCCG90SCsMX19f5Sl5y9RwgNFixanSsDdvSQ8PcuiYsXKqFYtQDk02o1eB5/UrkCBAnBwcICLs0v8Ce5q1gxG584RyuHc/v4BClz4UgD37j9Gr159FcDwehg+Oik6+k6CeLeS1G16PC/yLZTKAMMnEzxy5RaaFioPlOgFlBlA9U9l8WsaiPYZiuFYQG+g2Xyg0cxPI3qtK3zaKIB5Q4B5Xy6C7puG6CajEJqnKP4MGQ4QXBA6Cu/rDEL9XEVw1KMJLhRpiEMu9bGFAFPJogmMfgQQK0BGBIy90aLf25//jYjInhjSfh/2E2BOrgKeHAEGdpqKiCYjlUWsV7fIR7AYSz1aRnP0/Fq6lkx81NHpNQyYBrhLgHlPG+3XBBCLI4SYk4ScZCOwGCZhx2iEFcNU1PxGgJk8YBYcctCGxCUUXoXqIm9WNwSV74wqZVqiYvFG8HSui74DBuOJ1gmMgAxbxoA5efoKMqbPCKfOlVFuXiuUmdZUc95zWqJg+wpwrOSOIVdWo9+5JRh4cQU6bZ+IMt3qYOQvuzAOBzH23/vt3hiNTcNpBM2JRG6n/Ji6fRkmb1uCSVsXYSK3RdeELQsxYbNemxbo2rgA4zfO/9iGecrt5O1LUKWWP3IXd4JPq1rIXaSgcg2kf379Jb7//ntl90xRt2K00XdQpiUMBF5D0qRJc6oFGjVuhqZNW6BN6/aIjOqBESPHKdjYsmU3tm3fi/XrtxE4FmHU6AnoP2AIevTsh6iuPZWTz3Xs2AXt23dG23adlJo0bamsUeGz6uahr8VXn86UKRMyZ86MnDlzwrGgI8HEQwFTgwYNEUZ4CQ0NU2pIbzdp2hytW7dDl85R6Msnths7AYsXLcP2bbuxb98h7N9/BIcOHcPhwydw9OgpHDt2BidOnFVOWHfmzEXCyD2Eh3ch8FQnuDzC5SvRyqSpV+9+OsDcJcDE7UbSEj+eF/MWKpT6AHP0ym00LloB8OwD+AyiBqay6DVVHIp22TxwrC693ZE2UG0XfxrRa11RNVw5/Ps1Aeadd2cgbAKiQwYjhLDye+1B+FftwfhPnSF4FdQH9XIUwuHiDXGmcBgOuNTDZoea8P0ul5UAY511MWlMx4oMD2v17pf/oFN4JPq22op9BJgza+hf7LTRHtFtCrq2GIGnx3QLWe/sTbq7qaD7+4HLWz6gvn8T3Dv6WgcY2qhbmgIJAoDZSc8R99yJIsSYnPQ8eqlfnzHz511g0/xtKF2kMr75RybkyOyE1sET4FW0Lvw9uqBOcCM8ePrG+GHUAirsWTxg0hFguvrBe2lrlJnTTHNei1qhYIQvchQviEYzeiJ0ShTCpnVH4OBWcKxRGk3WDkGLTaPQYsMIXRvtU3MTard3ItzbBCi7kOYfWIc5+37E7L2rzY4/f+HRDajZsC7yubvAwc0FvmFBqNqiLtKnTQeXUsXgHVwFefPlRc9e/bB82RqMGD6WcDCYNvSRCAltqEw/vL19ULKUJ0oQLooXd1cmITz94NPyV68eqCyidS9RUkEAn02XD0l2d3dXJjb88caNmyoLZSeMn4Jp02Zj5sy5mDt3IRYsWIIlS1ZixYo1WLt2IzZv3oE9ew4q6OALK17lM+0axGe/vXw5GhcvXsf581cJJpdw8tQF6jxOnb4Q10Wl0wm6QNi4hQ4dOtFr8sf9h48VfDyMfYrefXSAuRvD563h89fcVeLdSUl1hx5/9frNVAmYI5dvoVGxikC5AUClYdTQVBa9Jj/6O5+zFI6FDgeifgI6r/w0ilqH9TV7oH4GR7ws0QZvyoYDdUfiWnBf1CWsvA3sg3eBffFzjX54VL07grM5Y59bCE4WCsU+AsxGBTDWmsCoEUQsgEwaGSlqMjJskXryNwZM+w5d0KfFZuxdoDux2Z8xwNShszAscgo+0Aby6cnEC1BTY89PAXf2f0BYUAvcPfxW2bg/P2d5r+h5XhLqOKPwMEh93OPTf1C/J+jRqd/x9Oy/8eK8/PVsGX/NP24R9HbdQNkSvvjh6xz47psMqFCsCaGmOjZu34lnr3+jX27PUw1a9OML+h0/eRnpfkiHTMGFUKBbReTrXF5zBaIqIFtIUXybKz0K1iwJh0APONTwQIFAd6QrngvfOGTCt46ZU3fOWfCPbN8hW+4caNejM9p064TWXTtaVIfeEahYrTLSZUoPRxdneFQoCzeP4ihUpDC+T58WpXy94OHtCZ+KFZW1K3xtobZtO6BN63Zo3aot2rRpj/Z8Ov/OkejerScG9B+MMWPGY87s+Vi/fpOyQJenHcePn8GJk+fiIcELeM+cvYSz5y4rV27mqzxfInSo8an4eRHtebr//IWrOEePOXv2sjIp4YkJI+b4CX7Oswo+4p+HPufiJXoOjpDDmOFJCr/Nz8Nfk78+f/6xY6dx5OhJHDp8HPsPHFFeY2hoA1SoUBGxsc9xjUAT++gZ+hBg+MimmHsP46cwWuLH82Je11QImMOXohFWnADjRzgIGEONTl0F0muqMR7t8njiWMMRQI8NQOTqTyN6rZtq91EA87xEa7wu2wl/Bg/F5YBuqJ3NBU+rdsezqj3wslpP3K0cgaDMjthZqC6OudbHHpe6WF+QAPN9HqzZvt+KgFF7rGQqZAwAI+PCVqlo0e8tAaZDxwgCzCbsngdc2gTaUhNgRk3H4Ihx+COaNsTqrhQt0QZSvF+NP55Er4xFG1+pl3q9pcc9PPIBtao0wLmtL/DgOBBzJPnuqR1N3CPC24kNDzF10GoM7zYXfTqNR7/wicnWlx43sMsUrJp8FGunn8CaaR9bOekoTqx7jlhCl/Q1zem+iTGwrux6Bj+v2sicNh/++flXmD5zAd58+DNVTVwM0wHmEn749gfkbOeJwtPqwHVcTc0VnlwbOdp6IoNbLviOaQqfEY3gM7IRyo9siNJ9a8OjexA8etRM2XomXen+dZGjehHkcsyHoUsnYfDi8Ri0aJzZDVk6ESNWTkWVoOrIkDEjint6wMXVFZ37dkWbqE746quv8Pk//oGipT3gXKww/v6Pz5V1LTF3Y5VrBF2/fpvS3fLG/poyASEsEB4uEBbOxmHj1KlzCW5Pn+YuKBjhx4gRNBgkDBmetvDz8nSFT8+vnH+Fbyk+1PngIT6x3k6sWbsey5atxIIFizFr1lxMnToDEyZMJlBNQL9+AwlgbVA7uA78KldR1sSULu2JUqVKowyfvI7QElgjCJUr+6Fzlwjcf0C/7K/fwqPHz9G3b/9kAcNHHBl2lx5/jQGTCtfAHL5IgPGoDNSZDITNABpMT13xa2o0B+0cyuNY45FAH9pAdV/zaUSvdWP9vqhHgHlGgHlRtiN+rzEQ5/3CEZTFEfcqdcGDShGIrRyJ6xU6IDBzQWxxDcYh13rY5VIHP9kUMLoSTGM0QIYAI+PCmklQMRYDpl2HzujZbCN2ziHAbCbA/ApMHj8VAzuPUHY5fLgKZXeMsd4ZdjnpxLUbcYnrQvQSURQXf37s8Q+o6ReGw2te4toe4PLO5LuitkvXVb3uHwOmDdmIjmEDsXvhRSwZvQfLxu5PtiVj9mLVhCOI2Qs8PkSv6+DHXp8CZg/agfWzLuLWAeDabguj79PUrtLnMXyu7v4Z5TwCUbm6H2KfvsXDJ29FOKSWGDAnTl1GurTp8a1vHmRpXgKZGxXVXJamxZG+hhP+ke5r/FAwS4LSOmVDOufsFN/arrQWlq5QDvwj09fIljM7uvTuivCekejUI8LkOvbogs59uqJD13A0a9kcXl7eyJ03D2rWr4MBE4Zj8fY16Dl8ACpXq4KQ5o1RuGgR1G/SENVqBSJ/vvzYsnk74eIyTp48G9+pk+cUkJw/R+jgaQoh5kocPBgaCnDiYpTwafr5844dO4XDh4/jwIEj2Lv3IHbt2oft23fjp582Y8bMORg6dIRyMUWe8jRv3hING/K6lwaoXz9UWftSt249ZVeVp2cZZUEuL9QtVqw4SpYsqZxRt2bNWmjdph169e6rIIYP0R46bCRGjxmPSZOnYfac+Vix4kds3bYLp+n137nLSHmooOzGjdt4/OQl+vUdoACGj0xSdyPxEUZitz8Wcy8WfOK7VAmYCzcQVroq0HIR0H4Z0G5p6opfU6dVaOdaCccaDAJ6EAz4FPyfQoSYDbV7oG56Rzwt0QZPynTA+6q9cLlSR4Rmc8WNcu1xs3wH3PbpiPNereCfsQA2utTEfsLLdmqdY01UtDFgdOmmMQkmMpw9ASPhREvxgGm6HttmAhe2/An8AkwaOxUDwkfiX7cJBoQOdR1FUsXvQmFoGCu5jycR78oxfF+J8MLx2pLYkx9Qo3IYdi1+iTOE9ZPr/7SoqwSbKQN2ItC3FjbP24q1M3ZhzfTk0z1uJxaPX4dF49ZisV7rZq5BlfL+mDJwJy5tB05tsE8n44p/fz2Blb7+nqXP0LRBFH78aSNevPkDMQ9einhIDSlHIZ25hqyZsiJfrwooubYZSixtqDmPH5siTzdv5PJyQeudI9F8y2A032y/mqltSiL9xwm12TcaxdtWQX5XByw7uQmLj63HoqM/mdzSU5swb+8qdIwMR/de3VGtenUEhdIvzsM7sObQNvx4cCu6DeqN1p3aYfvZwxg5fQL6DR+E0TMmwdHVGcNGjsS5s5eUjTxPR/gaQDxxOXjwGDZt2qaAYP78xZgxYzYmTZqqTECGDx+NwUOGK+tJeBLCR/34VvRV4MELc0uUcFfQwZORatX9CSb1EVy7DmrWCqZqoU7tughtEKYgpkuXCAwePBTz5i1Uvt6OnXuwZ88BBUFHjpzAiZNncIaAxBdW5MW0Dx4+wdNnr5SecE/5YpAvlenKw9hnePCAr70US+i4T4+/i+hoPtme7kgifmy/fnGAocfcufsgAVKSKtUDpkw1ggJhoQuv3ViRuuLXFLUW7QpXxrFaPQkzBK129C/tTyF6rdtrRCI0oxMeu7fBozLt8aZSV5z3aYuQrC64WKYVLpdtjatebXDCsxmqZsiPdc41sNu5Nra51MVax1oEmNx2AAz3OL4EiOGsCRgJIWb1UNfbn3WA6d5kHTZN/w9Or/83aQCYOHwqerYbqcCEd6Pw7o7keqh2XHsPjv+ZdMcSdz8uw/v4NUTve4/qFRpg/cxYHFj5B/Yu+8Wijq8DxvfZhsIFy6FSmSYoVTQQpYsFWVTZ4rWRLXMBTOq/C0fX/Elf51ez2rNU6jeTO0r/qFk/4wmCqjbHlOmz8Jx+waZWxDBgTp2+iswZMsNpSHWU294RZX9qoznvrR3g0Lcy8lYsgi5npqH9sQlof9TOHbGsiAszUSoqCPlcC2L52S1YcmojFpNMTWnZuS1YcGStMsHp1LkT1uzYgNr16qJec8L/5aOEly3YcHw3eo8YgIbNmmD+umWYMH86mrRqhoCgQBRwckC5ij7K6fZ5ElKrVm3ltPy1CRjVqlZXAFKyZCkCCR/K7I7SBBRfX1/UCq6Ntm3bYeDAwRg5crSyTmbixMmYNm0m5sxZgKVLV2Ddug3YvWufMp2JiXmI+/efKLh48PCpsphWjd9nlNx/wGftfURQ4GLj4103d+nzGRt8KDOfQVeBiRkxevr1Hxi3C8lUwMStgXFNXWfiTQCYjgSYSMJCBKEhNcWvqRsBpggBpnpnoOUMoOmkT6OW07GjageEZiDAeBBgynbAS98o7C/dBFXT58OZ0s1wtlRznC/dAoc8GsEvfV6sdgzEdqda2OJaB2ucg1Hhe+sdhWRaeoDRy2TAiPgwtzi06KcCplvjH7F+Cm3MfvwDv8UAo/pNRXizEbhzSLdb5fLOP7W3I+kuJdX2hF2U2sb9J1GXd/BU4T0qe9XH0vHXsWXuK2yc/cyidi3+Ff07LUdwlc7YOOstVk58gBUWtmn2e9TwbY++HZdgx8IPCb/mLP2ea2qD0guzWz/zBb2O37B4zC14l6yBRUtX4vGzn0VApHQMmBOnLyNj2oxwHuCP8pvC4bW6rebKbegIx15VkMenMDocmYjW+0aj9V5TGpXidToxGaW61kSOArkxbOlEDFk8HoMXjdPUoEVjMXT5RAxaMAatOrZBs+bN0X/kYIydNREVfSuifouG2HHxiDKBWU+AmbhkFsKaN0b7qHB06NYF4b2iEBgchBw5c6BJ25aoUacWqlatilGjxmLRoqXYsWM3Dh0+hqPH+FwuZ3H6zAXwlZgvXdZdlZk36A8ePlZA8Oz5a9005OlL6gUeP3muLJZlnDBI7tx5gJs3Y+QII2rR9L5h+h/Xlu6IosTpPv7s2Wv0jweMqYt41QlMagVMVfzZYRH+jFiGP7ssTV3Ra0LX1WhbpBL2V2iNPxuMwa/1hn0S/Rk6Gmu8m6BOOgc8LtkGsQSYJxW6YKd7KPzS5cVR90Y45t4YJzyaYE/xUFRKnwcrHP2x2bEmNimAqU2AsfZRSFr7OJFRSxIwIjjMTYCKsd7+/KcCmKhGK7F20nvsWfIbHp8G+neZilYhw3FqPXBo9X9wcNW/U10HuJUfO7Qa2Ln4HSp6hmDW0LOEjRgsG3/botZNf4oerReinEcdzBh0BpP7HcOkvkcsas7QS6jk2RDdWs3FmqmP6evcMd44qbtGW6qpO2KbZr9Du5Apyjk4dH8/XomISLmeE2DeEWCuKIBxHEz/0t/eEZ7r2mjOa2sHFOjjh9zlXNH+0Di02jMCrXbbtpZWrsPxiSjRsTpyO+bDnIOrMXPfCszYuzxRM4VmH1yF8evnEEbC0b1PDyxevxKrd27Amt0bUS2gOhp1aIHjsVex8/JRpd1Xj2PLuQPYfe049t88jeOPrmLaynnInDULBk8Yif2XTmDY+FFYsWI1beRf4f79x4iJidVLNwW5e/dB/CSEEaPAwCxoxEUw0E9/4pFcN28l7JaGnr94g/4DBimHUesDxvB1SH1cxJv6AHPkYjRCS1XCr40n4teW0/BLi6mpKn5Nf7aZhVbO3tjs2Qjvg/rjSUCvT6J39FoXlaqnA0yptnjg1QH3y3XA5mL1UCltHuwvFoIDxRrgEOFlm1tdVEybG4sdqmKDYxA2FKqLNYSYlJvAGKZDTALAiPgwNwOYaE0FTGTDFfhx4htsnvUzruwAIltMQMOa/bBjwW/0r/xX2DDzZcL4vlTWpjlv8eOUWFQoHYKJfY9i7tDLmD3kgkUtHn0LUc3noUDuEijq7AuH3MVRMI+7RTnmLYm032VGt5YLsHDUTfo6F403+GOzTIk+16QGX8Dy8Q/RMHAoqvkH4gGfiTcVAiaWAMNn4s2RLSfS13ZF/t6+yBvlo7l8PX2RrqYLcnm7oO2hsWixezha7LJnwyyu3dHx8IgMRJbc2dB9/EB0HdcfUWP76RrTVylSbXQfRMTVdXx/dJs4EKEtGiEwMBBRfbpj6MSRGDR2GN2OgrdPOeUIpC4DeiiHZ7fv2QUdekUgvF83hPftqtxGDemDsNZNkbtAXkQM7okdZw5i36XjGDFhDLZt3YmnT1/h8ePnBJlHtOEnWAgYSC5DYNxkdBgkwURrt9XuaI8BM8BCwLi4OKdKwNQv4YOXgf3wqvYQvKw9OFX1qs4Q/FJvBJrn88Cq4nXwsFIEoit0+iTiI4xmugWgdnoHPCrdDg/KdcQdr3b4yS0YFX/IjZ1F6mJXkXrY41aPwFILPj/kwLwCfljnWAPrC9fDj651U3ACI0WAEfFhSgJCLEkBTPvO6NJgKVaNf4l1U17gwPJ/oXXIKNSv3h0rJjzAwpE3sGDk9bj47RvKfWKjPrbIrKITN1pbS8bewpxhF1DSrTqGR27D5H4nMLHPUYviDXv7sMkoXNAHtSpFokrZlqjq1cqiAsp3QN4cbugQNgXTB54Vv65Yb/OakFy9jmDagDMY1HELirn64Md1m/DkeerahcTnpeEeEmDOnL+O3Lny4Ev3rMhU0xUZA5w1lynIBV+5Z0POss5ofXAsmu0chmY77NFQq9WG4OXVry7S5cyEWp3CUDOca4Ca6tt825lrSO9TdBsc0RhVmtaCo5MjXJydEVgvGDUb1KHbmgisr3s7X4H8KODiiIAQ+mVazReeFb1RomwpFPEoBme3QnBwcUIeh3zImTc32vfqgtkblyEopDZGzhiPmasWIDyiC9b8+BN27d6nnJuFpy/xWBBKBIq49LEhx3gwJek5TOvjBKZIohPZJRc//tr1m3CmP/fUBBi+FtKJq3cQUrwc7tPG9UHlSNyvHJGq4tf0rEo3NMpRBAtc/XG1TCtl7cin0BV6reMdfRGcrgAeebbHQ59w3CLArC4cBJ/vc2Kza7By2PS2QrWxxrkGyn2fA7PyVcJqhwCsI9j8WLh+KgPMEzMAI6DDer3QrYEhwISHLsLKcc+wfNxDrJ/+Go1rDUIt+gs0feA5caMnbSit07HE9dHW5L4nMKb7PhR3rYz+HdZhNL09sutui+LX1LreOGTN6IDKns3gW6oJ1dii+LT9ubMWQqt6YzC+12Hx65pUlBlF6hoRuQvjuh9EvzY/wb2wH2bPX4SXb/8lIiLl0uFFBczps9eRK3su5O9cDp4LGsNjRqjmSs9riDztvZC7fCF0ODYBrQ+MQuv9tqulDepwchK8+tdHjkL50GfLJPTeNBG9Nk7QtSlxvTdPRJ+tk1G+dhXkzJYDLkULo3CJoglyK1kc2XPmwFfffYNMubMiQ/bMSJ89E9Jny4R0WTMibZYMSj9kTq/EH/82ww/45zdf4v/+9hm+o7e/z5yObtMiTZo0aNS4MV6/eUcb/xhCianpgebWxxJNa+JwYY/UCUxhAgyfWZcPlTY8466x1DPxpjbA8ATm+OXbqFnEE+fcG+NC2VY4T/9AS03xa7rh3RbBmR0xw9EPZzya4HCJsE+i0/Rah+cvh+C0BRBbhgBTsYvyvSxzCUB5Asx65yBsoDa51MRKR394f5cD0/NWxAoHf6xlwBQJ+cQAIyLD0l4k2bs4wHSsPx+rJxJgxj8gxDxAnSpRqOTZGKO77sPQztupbQkaYqUMn9eShnfZgQHtf0Ixl0ro2WoFBnXajAEdN1rUCNrIN6k5DF/+81vkz1kCebO7WVyBHCXw9Rc/oGnwCAyLoNcsfF3rtQEDhQZ00DUkfCt6t1oNj0LVMHPOArx5/x/E0C82GRIp0Ue8KIB5EgeYHLmRLaw4Cg+rAdf+1TVXeGggsocVQ5YS+RG8KAI15nZCjTla62hygTYoeEkUirSphKyOudBxfn+0n9cP7ef2NVrHBQPQcko3uFf0hLObK9w8S6BI6eIJKlrGHdlz51RQkss1P3I4501QThf98tF9eZDdKQ9yuuZDVoec+C5TWmTKkxXfpP9eAUz7Dh3x8tVb2vgnXNCassk40dLzF6/Rf8BA3QSG1/LQfTdv3k2Q4ZFLarz2hy9HkFoBE+BaErtcgrG3WAj2FKufqtpbLBQHioeiZdYimJi/AjYVCsZa16BPos2Fg9EtZ0nU4gmMV0fEVo7AlTKtsdCpGry+y47VjgH4kVrrFKisfSn7bTZMzuODpQSYNUVD8SNVgQGzgwDzKDUBRoSGpclASS4dYMLRod5crJ3KgInB3KFXEeDTHuU9QgkEG9CLNnC9Wq0yv9b0+UbqbWptEtdHre0adGu+BG5OFRHRZL7y/AwZS+LnbB86FaXdaqB0kRooZY0KB8KreF10ajhb+Z6kr2vrerSk763NGnRvsQIlXP0wa95CvPsFAiBSqoRwUbpHgHn8DmfO8S6k3PhH0YxIW70gfvAroLm0VR3wbekc+DzT1/i+bG5858nlslnf2yKv3PjCKT3S5cgI/7Z1Ua1NHVRrXTvZAtrXR/U29PiW9L5BAW3rIW8hB7h4F0PDIe1Rt1dzzYX2b40qrYKRv5iTcvFHPt/J/PkL8OjRc+jWwZifuIDX3AgxCZIeYyQ+YoqPQipSuEj8+hfDizYaSwHM1Wg4OTkRYKYjNe1COn0tBtVdPLAyjx9+dArA6lTWWqcayqSiXVY3lP4uK8rQhr/sJ5LXdzng/FV61EyXH0/Kh+NR1W7KeV/mFayCMoSVZQ7VsJxaWbA65uX3g+c3WTEuVzkspPtWE9rWFA9DhR/y6CYwDJjbhAhOgIW9SiPjw9xklJiSCph2dWdh4+xXWDPtIWYOOocqXi1QpmgwujZbis6N5lPz7FaXpGpsvIgmC9ChwXQ45S2N9iFT0LXpIgUyFtV4PqKaLkTPlisp2vgrt5a2QoFL12aLlecXv66N69psCSLpz6tgnlLIkckRkyfPU65AfT/2tYCJlCgxXrjYJ+9w6sw15MieA2m++xs+z/EtPs9mYlm+Rpq//x+V5tPtb2nw1ddfwcHZEQWcCirnZUm6gnAq7IKCrk7K5zi4JMypkDOyZsuKz7/4B75O+y2+/v4bTX1FfZvuO3yX4Xv8H/+ZfpYG3377LTqFd8bzF29FDNiqaOG+BBkCxoSe8QSGAMMXoLxNgOH7bhBOtMSPv3L1hgKYsakIMDyBOXX1Lio7F8es7OUwv0BlzEslzaUWFqiCKXkroEc2d4Smd8Ryp2BcLdkJV0u0/SS64tER0wtUJ8AUQGz5TngS0BOXy7XFLAcdVhbR97eYWuJQVVn7UuqbLBiVy4u+9ypYxYAp0UgGjH4CMmyZBYCRAWJKMUK8BqZtu3C0rTMdOxZ9wKZ5TzBtwEn4ejaGRyF/dAidgdb1JsXXRmP6n2NK0nNprW39KWgePBoOuT3Qss5YdAqbqYDGGnVsMMPKyV9HKdS2hTecrfxZlSoSiAqlG8DLrR6yZyyIYSPHKiexu5fiiDHASyLAXEW2LNmQoRptfDuWR77WZTWXv305ZKrujPRO2VG+d31496gD7+761dZeN+vnpSGfviHKxScz5M6CkD6tUb93K9Tr1dJo9XvrbsvXqQIPH094VCgDd7rVr6RvWeTMlxsZc2ZBYR93uJYtmmQucRX1LYWMubLgmx++g3ulssjunFfZhcRnreVzvEiLWhNGQLBDjJtEGZw7JqmePnutnMiucOHCUE+Kp56lN7n48XyWYidHx9QHmCt34ONYFGOzlMbEPOUxIRU0nppMcBmbuxx8v8+FObRxj8hSHLcJL6gyAfAd9WnkNwHHijZHrXQOiK0Qjuc1++BS+XaYUUCHlbn5CWvU/AJ+mJa3Ijy+zozhOcpgFr2/skQY1ng0SR4wagI2bJGJgJEhojUJLIapgGldeyoOrPoFe1a+wPTBx+FTsgGKOlVCi9pj0aTm8LhGoGmihluQ9Hzm16zWKIQFDEJBAkyToOFoU3cCWtUZ97/0akvQa05/Tm6OFdGs9jAsGRODsMC+SPdNDvzwbSZMmDwdz17+lsJn4jXAix5g4tfAZM8Fhx6+8FrdCp6Lm2iu7MoWKBDpgzw+hdDh5GS0OTQGbQ7artbcgbhbK9Xx9BR4D6yPnIXzYcC2qei/dQr6bZlstP7bp6L3xgmo1rouipQsBq9qFVCuRiV4B/jGVz7IDzkL5EH2ArlRNoh+wVYvT5VDqWq6StP7XMK3vZX1MulzZEZxPy/kK+GKtBnTI0+ePDrAPH2ZaJ1I4ggYGpJQkVyGiDEl/UW4DK1nz1+hP31PheIBw5cZuB2XIVrU+3UfS82AOX31Lrwd3dA/Q3EMzuGJQamgYTnLon+O0ijzbVbMylMRKNcfHTK7oV+ucljuUhfLnWp9GjnXQTcCSW0CzJNKEXhRZwAu+LTFlAK+8CDAzMhXETOpWfl8CWw+8KTvl/8fzGDAeDTCmpJNCTB5tQFGTUCHNUsGMDJEtCThREsMmDbtOqFV8CSc3PQrjm9+h2lDjqCcez24FayARoGDEVq9X+rKX65BQH/UrdIDBXIWV95uVothI8Hpvy8GaLNaIwl4A1CysD+6NJmO1ZMeYcX4exjbcw+KOFRAXZ9+KJTfC6vWrMeT578IsLBHBnBRSzCBuYbs2XPiK4f0SFc6L9KWzK25dKXz4Ku86ZCztBNa7xuFZluHoNkWy2qaXFsH0631ar1/NEp3DULGvFnRfFwEmo3rgqZjjTRGV/MJkQgZ3BaeAT6oUKsKQro0U6rbqQnqhTdBaGQLOLq5IJszAaaBHzyCfeBeqzxK1CyHEkHl4ObvCRc/dxQP8oZrlZLwaxWM1oMjUKSMO4bMnYhW/buggLMjFi1cisOHj+H06XPKmXSldS3mlnByo9ft5KLPlVKeU5c4odHr6XNpAqMPFePxIdeXr1yHYxxgnhFgbgqgsHcqYMoWLIzIdIXQM5u7srsmpepO9c7ugaisxVHim8yYmqcC4N0Ppws1QFDa/KjwXQ6UpvtL08b/U4gBlu+f3yGAEPKsSle8aTAEFyu2xyQCTImvMysLdqcqVcD4PPQPBfqc/tlLYUr+SlheqjHWlG6OimnzYg0B5j4B5gYBxVgiZgwTQGJqRgAjoySpJIyYkwqY5jXH4eyOX3B29wdMGXwAXsWDUYQAU79qL9Su3DWuKCH1YylfHb9uCKoYrhyizJBpSPgKCxhon/xTefQaG1I8Vavq3Ryb577GzkW/4eBKoGGtPijuUBldQ5bA2zUMPhUr4X7sK/p7lhInsjOAi1o8YPhSAleQKWNmfFsmF7LUK4rMtQprLksdN3ztnl0HmL2j0WwbIYQRY+sIHtaq7f4xcO9UHZnyZUePpSPQbfEwRC1SGxoXvb2Qo7e5BUPRfdlIRMwbDL9GNVG9UTB6Tx2GwfPGY9CcsRi2cCKKly0J1zJF0XxYZzTq1x5NBnRAsyHhaDOqG1qPjKK3OyNq2iA0G9oZDhXcUC6gEkYvmYEJP85DCa9SWEvwff3mg3IpAD59Pm/kEx8JpAcIc6LnTImURbwDBqJQIQJM3BFIfJVqXbcSphEwhknIsGUMmDMEGE+Hwmj7gxPCsxRFpxSqI9WF4NI6U2EU+io9ZvLkxbs/zhduiCrf50avbB6YRBv7cbnLfTIxTOqnLwh/AsyTqt3wvskoXPILx4QCFVH860wYF7fLbCJ9XyNye6HoVxnRO1tJTCDALCvVBGs8W2gGjH4iXgwTcKKlOMDIKNGaBBFzUwHTpMYoXNjzMy4d+BmTB+1BySLVUTCPB2pW7ILA8h0sik/cZo8CfToqJ4rLmcUZNX0jUL9aX9Sr2vt/UfWV215wzFsKXkXroUmtgTi85g0m9NsGp1yeyJO5CNwdq8ApmxdqBtfFw8dv6e9aagTMO5xkwKTPjNydvVB8fijcptfVXLG5ocjepjRylXVGmz2j0JwA05yAYbe2WF67/WNRsnMAsuTNjpajotBiZCRajIhIUHNupEF0X6tx3RHSuxVcSrmhSt1A9Bo/BN1G90f3MQPgUMgZtVqEYN2VvVh0ZL3S4qMbMH3nMkzbsRQzd6/A4mMb0Xf+aGTKmw29xg3BssNbERBSG+t/2ozffv8Tjx6/QOyj5wpi+CKLfBkBnljcSdC9+JQz3RII5PPBJJ8EpMTFncH3lkHq/ZR6uLSEF44BwxMYBox6DpjrhBMxQo1+/Lx8LaiCBQsmCRhTkkBiagyYs1djUNKhEBp/lx8tM7miRQrVOnNhhGV0QsEvfsCMvIyXfjhDeKn8fS5lIjM6lzeG5SzzSTUmlxeC0+ZXAPPUvwd+aTUel6p3wdgCFVCMsMILdvkxY+l7G0qPd6P7umd1x5j8vljq2RRry7YyCzCmJgJHyhqAkRBiSeoamIYBQ3Bm11uc3/ceY/tuQolCfsifsziqebeBX5nmGmthkO7+ynbKr2wLVCjVCLmyOqNGhXDUrtwNwZWi/ldcdfy6w79cOzjmKYVKHs0RViMKhfOVRaVizeFTrCHSfZkHBR2dcfLMFTx6+kHAha17Hl9SgDlx6goypsuI3B3KoPjM+nCbWFusiFDR6fWQvaWHApi2e0ajxbahaLHV9jW3Yu0OjoVnVE1kyp4ZXoEVUZYqE1hBWwEV4FWzEryCfOHg5oxc+fOgXJWK8Kvlj8zZs6BG07pYfmoLZhFW5u7/EcOWT4Z3fT94UZWa1oB/m7rI7pgb2QrmRuSovihV2RteZb0wb+5CzJo1F/PmLcSyZSvw008bsXv3fpw9e0EBAB9KzJi5d4+6H0u4eaQAh68m/TCWe0rw0b/aNF99+gnuP3ysPJY/R8UQA0KBD8Vvx6cHETE++Z3RCDr66eGHU84DowKG3ufzuxhCRYxAc+tODC5duYaCDtYDjJYktOinAsa9gCvqfJMbDTI4IjQFapTRWdlFlOef32FuXl+gXD+cI7xU+j4nwrMWVTAwIEcpDMxR+pOKX3fgD/kUwDwP6o3fO0zBRf8IjM7vo2BlWK6yGEGNJMT0p++PJ09ds5bAqPwVsbRsM6z1am0XwGiNEUOAkWGSVBI8rJU6galfpR8ObXiJI1ueYXDXZXBz9EGebIVQsWRDlHcP0VhoCtYAPh5hKFuMfsFmKgh/gldQxc4EmU7/S69g5XIILVAwd0lUK9MOnoVqoYxrbXg5h8HLozqOn76IF6//ULAgI8NWfcSLVsDk6eyNEvPCUHRaPbFiQiXmNECO1qWQ28sF7fePQ6udI9BqhwXx55vccIvqeHQCPML9kdM5L2YcW4Wph5djyqFlmHI46SZzcY+bdnwlRmyaiTrtG6Jl9w5YvGctvKtWgH9YMJafJMDsXIH5+9YgfGxv+DWriX7zRyNqygDk5nPFeLihRBUv5C/qBHf3kujXdwBatmyNsLCGCAkJVQoLa4RmzVqgQ8dO6NwlAu3bd0CrVq3pca3QqnVr5f2IyEhlse+48ROwdOlybN68Hdu278KuXfuwb98hHDx0VLmq9ekz53Hp0lXcvHkHsYQbXlDLF47k+EgnXiz8+MkLPHr8HA8JQYwevv4QnwE3PgLUx+4rhzarGBLxY3CfeimB+AmMJsDcUmIIXbrMgHHA2AkEmNcEmLuEDMMIFfbsLgHmPAGmeAEXVPsyu4IIe1aD4tPs85FGuf75LRbk81MW7PLkpdJ3udAhi5sCgT7ZS36S8Wuv/kMepee1+uH3iJm4FNQVI/OXR5EvMygLlodQQ3OUQZ9sHnD9Mj26ZCmGYfkqYLFXc6wr1xa+CmD2pgrAcCYDRkKHNVMmMO3DEezbHZsX38GmZVfRre00uBbwRI7MTihbtA5KF6mpOU83Y9UyqzJuwbqKJl/ZYrWVk8RlTp9XOe1/9f9v7yzgqki/P+xv/9troyAh3SkqXdIdSinYCQp2K3Z3d9caa3d3d3cHgt1ufv/nvMAu4ujepcHx83mcy42ZuffOzPvc8573Pa7xIoKUUwIYOpgCCV7mlL/Xk2U7+QV3tXna14e+ZnUEu7WGqZYbbKxdcOTEuQKSl8x8XmI+jMA4oerU2rAaG64w1pOjodHMFpqOJmixeSiarO2PJmsKgn7ZJn7HcNjE+0PTWBfjds3H6O1zMGrb7P/G1tkYt3s+Bq6cgJBGEWjQuqnIY2GBmbd3FaZsXoQZ25YiYVhX1EyIxeQti+AbEwafiGB0GTsA5TRV4OHlhYMHj+H06Ys4euw0jhw9hcNHTog6SAfo/v0HjmDf/sPYQkKyePEyEaEZNXIsBg0aij59+gt56dGjF5Ekbnfq2BlNmjRF7ejaqBlWEyEhwUQIwsPDUbduXcTHt0TPnr3o9UOIwRgyZBiGDx+JMWPGYfLkqZg9ex6WLltB29uB4yfPCIngUUAcARLdWCQvnJtz+84Dkpy0qA9LT4b8MPcfpIpIEEd/hOAIgbkj5rRJy4ExF0LCE9RlCMq/8Y/A6H9eYHILCVmRIkNgquiZwP07FZFrkp9ww+5aWh2a35bCYn1/EXk5ZF5HdBvFq1ihp7pdeoKvTZGE99+P3qc/vc/UWkn4rctMnA/vioH6bjD/obyIuvQh+pLocI4PC0wCve++Om6YTQKz0q0VPMvrygLzOV68TROYQJfWmDVqH6aO2IKmdfrAULuamBvEzjwYNqYB/45ZGtXTl9nCXIpAhbE1D0JVE18ol9eCu22s6MZikckxjo3gRUtRB8k+F6D1pK238cfbyhcailyhGjYxYs4cfTUHhIVF49Hz93TMFXQF6n8E5iOJEQLzCoeOnINSOSWUctGCWp2qUI2wUpxoa5SvoYeSlcvDIMIeerVs/0af/jas7Viw1Pl3jOu7ooKtDtR0NNBmVA8kjuiKhOFdskXbMT3RvH87hDSIhL6JIap5OKD5gHboPLYv5uxagS4T+8O1th9ca/pAQ18H4XH14BTiBSMTExzYfwRnz14icTmZxpGTQmA+4PAJ8djx42dw8uR5kp0LOHPmonjduXOXP+DkybNCeLZv342NG7dizdoNWLFqLZb9shKLly7Hop+XYsGCxZg4YQp69+6Htm07oFmzFmjQoBHq1a1HklNP3G5O97Vu3RYJCYlCiOrXb4h69erTYw3QtFkzJCa2RvfuPTBixCjMm78Qy1eswqrVa7Fu/UZs2rwVW7fvFJEfFhyWGObxkxe0zT4wMzP/O/+F6xspAj//9NkLMMgvgVGQvwVG3wSe31USDW1+wqLC0+evNgwBXHpim0kEPEtXJnmxFALQQbVakYbfg18ZbQSX00VKVB/8njQfF6K6o7++K8lKeRGlSSJ45BGPwDIlgYlTtkQvHVfMdGmClTVawau8XqHpQmIKrcB42zXDoK5L0avDDEQGtoa2mgXUKhiQWASimonfv2Na8FQ39RejbCqWqyym6ne3rSu6lXKCh209OFapifJl1FGutCoqlNPIMUpl1aFSQYfWG077WE9yu//AXWP/htTr/o0YUVjStXpt+q4t8eP3peiCPlFMZMcXNmm5yA8+FJisEnM/5RUOHjmLsqXKQr9tDdjNboDqk2MUxnZGfRi0doeqvQHClnVC0MK2guAl7eE/qxVsu9eEbTeCl4UUh75R0AyqAlU9TbSd0getJ/VC4sSkbNNuej8kjOsOYytT6Fc3RXDrOmK4dWzrJqjXoQXUjLTwzU/fwznUB9V9nMVEdVaWVjh56iwOHT5GgnICx0+cxukz58V8Jxlw4qrg7EWSlgskL+dJUs4JmTlKUsORmkOH0jjIS/qbZYejOcfoOcdPECQ1J9JhwWFOnMiAHufnHafnHztF6zxFEpUmTQcPHsWWLduxZMkvmDFjDsaPn0TH92gRtRk4cDD69R8o6Nu3Pzp06IhGjRojKiqaRD4MQUFB8PP1xcyZc0VURgjMU47A9BVlEnh23YuXr+H8xSsKwc8/RZ+Nvr4+Ro6eTALzGwlEajrScpEf3LxLAnPxFqxJYHy+U0NQWd18I6SsnpiNlqMwcOmBNSQxTqVURTIvJ+3yiKg2RZyO9D7cS2nAj95jSp3++LPfzzhfuwf6ksCYksDwsPXuBHcf8XNN6L5mFc3RXccFM1ybYqV7AjxJfuQIzGd48fYvxLdqA1frukhsOApN6/SCv1sjaKtboLKKCewtQj6OlBRSbEm2qpr4kMBowN4qFC7VIklkInIE14My0XWEnoYpDLWsoVZRB+rKujmisoohSv1YFhYGNcC5Q1Lb/QDrT+MkCIcTydDf8N9ZcJaA73epGkWfUxQqldOHn1ss7iW/Ft00haUbKavE3E/lCMxZlCtTDmpR1jDtGQDjTj4KY9LNH1p17VBKXwVGzdxg2MQVhk3dYNDQGeWM1fGjthJ+0q0oKFlY0VPGtxVLolyF8vCq6Q+PMD/CN0f4RAbB2NJUVKNW1asMm0BXGNlYQElZCRUrq8IuzBOlK1eEmoYGGjduJooaVqlSBS4uLvD19UNkZLTo4uGuoP4kBoMHD8Ww4SMxavQ4jJ8wSXQfzZkzH4tJKNau24jdew6QAJ3DGZIbFpw00ckkPMRpkp5Tp88JeRGScvwUwctMkLgIeRECw1EgFph/ZIgliLeTEflJ2176dtK3yfK178Bh7Ni1F1u27cSOnXtEBCeO3g/n2HC+DEdguAuJBSYj+nLuAomaAvDzT9L7kBaYzEiLRl6RITBVSWD8vlcjqWCxyB9qksC4llRHIDXuSwwCRSQmTsUSHdSqoo2qdbGgg1o1eJDAcHfZwxgSmEHLcL5uL/TRdyFZKYeOJC8ceeFIDQ8hNyaBaVzRDJ21nTHNtQkJTGK6wHAE5hUJREouIC0milIoBaZlq7awNa2FOiFdUcu3Fbwc60FH3RJalczhaFlTdCMVBezNQ0QURqmshujK4twbe8vQHMFCoF7RFB2b9sOxVZexYeZBbJx1OEfsX3oMtYMaQUOZPt8qtSS3qyh2Ai4QmYkPikfSZ2MRDNtPEiSex/lL2qqWaNSkBV3cksUwamm5yA8+FpgM7qe8FPPAcA6MQbw7HCY1gt2oWIVxmNAA+nE1oFbVAJGTOqDWuDaInNgeXt3rQdlEC5HzuiJmWW/UWZxUaGmwZiCsm/tBy0QPo7fNw4jNszF806xsw68fs3MBXIK9oGlpAAtvO9TpFY/Oi4ajsokuNGk75i7VoVKpEvr2G4QDh45jxKix6NS5G7p264lu3ZOQ1KsvBg4ahr79B6FFXCvUCo+Ep6cX7OwdSXSsRcNvYmIGK5IeBwdH+JD0hNNzatUKR0hoGEJDQxEWVhMR4RGIiYlFk8ZN0aZNW/Tu3VcIEEdSVq9el5bou3ErNm/ZIUY5iWRfkiHOt+EuK47QcHcUF0/k+kPnRTSIu6vSxEhIEQkNR2+OHjtJsnNMCA9HkfhvliF+DXdRcfLxw5QnYuh3msD0hampGS5evo7zF6/iLEeZFICff4K2+e8Ckx2k5UQRWGBOksBU0zdF4A8aqEk/YvKL8HIGCCijjYpf/wD1b0sKgfGmht69TGVJ+DFO9vWg20UFr7Ja0P2uDHxo35PrDsRfw1fiQoO+SCKBMfq+HNqRtHC0iUce8Vw4fF/9CiZor+WISa6NsdIjMa0LafMu3EkmgblBAsJIikn+UCgFplVie1Q1DEKQezx8XBqihm2dvyMwTlbhsLegxrII4ECNsK1ZkOiisTLyFBJTjYQmJ9iSGKlWMELjyA64vgs4t+kPnN34e464ux9oEtUJFcmubcyDJLebO0h3tWWmqqmvyBuqRsvqpgEo9X0l9Ejqi4eP3hR4OQEpHpDA8DBv5Qoq0GvuBvvxDWA7vI7C2I+pB93GztB3rYLue2eh07bJ6LZrOhrN7A09J0v0urwEA+6tRr9bKwstw59uQeCIeCEXIzeSvKyfhWHrZgqGCmb8w1oppmdhBkZumgt7L7qwOloirHsj2Ed4oWSlcijx9Vf4v//7P7g5u4nIS9NmLeDu4Ql7ewdUq1YdVQkXF1chLF269sSw4aMxaPBw9B84hIRmKIaNHIPJU2dg+ap12LX3kGDH7gPYtnMf1m3YhmnT55L0DEbb9h3FuuvWa4Do2jGIiIgW62TC6XZ4RBS8vX1hZ2cPLqhoYmwiiiOyUFSxtoaTkzP8/QNQt259tGvXAd269hDJwb1IrPr144jQMIykfZkwYTJmzporhGjjpm0iUsPdUSw+LDanTp3H5cs36DUD0gTm4WPwcO3HT57TutJyYLi0AT/nwsVrCsFJxCxOeSMw/4VPC0zYj5qIKm+Yb0SXNxISo/9dWTF8mud/0aPGXv97Kcqi9P99C+VvfhSjlSp/WzTgfeX95lyf5AaDgTFrcb5RP/RIF5jEStZoQ3CdJ05aNqT7YpSM0VrLAROFwLQWEZjlm3fiLgkMD33/W2KkkBCO3KbQCczjF79i3KRp0FA2g69jU3jYxcK1ejR0NapAT90aLlUiRRSmKOBkVUtEYZTKqMPSsIZolLlLKSdw15SWqqmIUPRuuR7dmi0nluWIfomb4WgdDq1KpiRZ/pLbzX3SROXT+JAA0mdXUhdO1FjdffCcjr/CldCbITDHT16EhpoGdGOdYDegDmySIhTGth8d2zGOQlY6bp6ENmvGoMPGCSQwvaCkqw4NRxPouFtBuxCj51UV5U0ro3T5snDydoODtyscvNKwF7ikL9NuO2TgKY094eRdA9p6OlA31IZLtD8sPexQQVUZFSspo1z58qIr6NmLd7h7/xE1+iewZt1GLFy0FNNnzsGkydMwdtxEDB8xGgkJbUgkAmFraytEg2sH2djaifsiI2sjODgMfnQ7IDCYpCQSzZu3xKAhw7Fi5Tps3robO3btx559R3CQtnHsxDmcv3idjsNUwakzl7Brz0GsXb8Fi5euxOy5CzFx8nTat/G07TEYPHSkiAIl9e4v1hsSWhMurm4kWjZiX1g+eBg0R4RYhDw8vBAcwjkvIaIbzMvbhyTJBwEBgSLHJzGxDQnMEzEvzGMeRk0Co6qqKpJ/hw8fiWHDRigEP3/o0OFQV1fH6LFTC1BgPuTm3ackMLdhXEkTLiVKwev/KuYzyvD/upLA72uVTxJEj2v/70e4lFJHzfL6Yvh1UYD31eJ7JSEw9xuSwIzfgLON+6GrvrMQtpaVLJFQiY6zSlVE4jIn8dZWMkJLTTuM/4TA5AskKp+i0AnMnQdPcYsuSv4BYbDU8xGjZDixU7cyCYxGVbha1yYxiCgSOJNsOVjUzPUIDE/ox11qPNLJwsBNlFjICVVMvMVQb56LJW8jMIrB3W7cnWSi5YIq5g7YtGWPGO0jLRX5yccCw11Ix05chHoldVTtFIrgnzvDfxY1mgoStKAjrNoGQZcEpsOmiWi9mgVmImIndoWKviZ8GkQioEVdBDSPLbSEJjSEmZsdVDU10KZPNyT26ozEpBzQqwva9esBc2tq5KtaoUGbOMH2W6dQq0EMyqkowS3QS4wAepj6HDdu3cedeym4n/wYD6iBT055Svc/E9yl+69ev4MLl67j7LkrOHX6Ao4dP4vDR06S9GwSXU8dO3ZBs+ZxqFe/IWLr1kf9Bo1E5KRGDXchGbq6utAh+DZHezgy075DZ3Tp2gO9SE5YeMZNmIJFPy/DvgNHceXaHVy7eZ/2Kxm37qQQD3H1xj1cvHwTZ89fFeJz/OR5HD1+BodoP/YfPCZEaOv2PVi/cRtmzVmIwUNGoHPX7mjZKhHNW7QUXV7h4RFISX0CrrfEM/HyEG49PT3RdbV583Zs2rRNIXhem/XrN0FLSwujxkzGIxKYayQQjJRY5BfXbz/GpevJqBfbEIEePgjzDs5jgv4zIV6BaBwWAyezqrD/rgLCSAx4criiAO9rhsDcY4GZsAFnmvRDJ30nGHxXFi1ULIS4tFSxQlNlcxFpiihviGaVbTDapSFWeCTCU0mfBGZX/grMZ/jPApOBlHzkFg8fv8aRk+dgb+sGPVUHeNk1Eo22tqoFvGwawr1a3UJNjXQ8qtcTwqVcTgvWxt6iO4lHUeUE7primWvLla6EShX0hBxVKKuRIyqW08QP35eCsbaDyFmR2m7+ESTeo0FlW6iqaGHN+q14/uqvAk7ileIfgTl+8hI0K2tBpxYJYKdasG4TrDDVO4ZBM6gatG1M0X7TJCSuGo1268cjanR7mNWwxR48xiG8xQG8/ICDhYizADovnQAzW2scenETB55dx/6n17LNgWc3cOztXTj7eqB593a4jjfYn3oZi/ash0+gH5TUKsKguhmq2VTHRh4RQZJy6QoPJf6Hy+mIKtAkMNeu38U1kojrmbh5+wHu3k9Nl5404cmA18mjjzZt2YHlK9diIcnJnLkLMWPmXIyfOAWt23ZAUHAI7B0cYWVVBZaWVrC1tYOvXwACA4Ph5uYORydnODm5wMvLB9HRddC1e0/MmDUfPy9ejmUr1mDVmo3YsGk7tu/aj8PHzuDytbu4ni49d+hH3N379IOOlo+fvUGHTl0QEhJK+/pIjCJ6SCLTo2cSjAwNRaLwgYNHRd7NhxyWhPNsdu/eJ6p0ZxWY3EJKUBSFG6aL1x/i4o2CJFmSS8S9J29Rr3EzVC1RErXK6SO0rF6RgPfV6vsK8CKBuUMC89ekjThJAtNez0EUeeQSCs1IXLj+U6OKpiJfhvODGmpUw0jnBljunkACo4flW4qBwGQgJSC5Ac8BsnnHHkRF1oe2mhVK/qAEFTJITfpw1ZSMoU7wMjN8n6BCFjI/JsFH68j6+gpGEvf9OxqEmpIhypaqJPI5OLGXJSYnOFiEwUjLFioVdNNybNITX3MCJ+6qVtSHIZk2y4PUdvMDsW36jHjIfJkfK8HE2AIXr97F3QcFmcD7KdIF5uEL+kV9FYYGxtByt4JVPR9Y1Pb4NHU+xDLGE/pBdjAJdkSbDePRctUotFk/DlHjO0LFSAsRnVqgdo8ERHdv9QFR+UDWbX6Ken3bo1qgOzT1dTBkxngMmjYWA6eOyTaDpo7FsFkTUdWuOjyD/DBq3lS07dkZPYb0Q0BEKDwjgtBr9mgoaSjDzdWNPv8LuHGTIxw8mdsnuMJ8KDmZyRAeRvxN4sPrvH2Hywuk4h6JxP0Hj3E/+Yng9t0UIUSXr94W2z1/8RrOnL+CE6cvYMPGbRg/YQqSevdF23YdEN8yAc1bxKNFXEsxB4yrWw2RK6NFAqGlrQUTE1O6zx0NGjYRCcdx8QloldAG7dt3Rq9e/Uh65iEmtj5q1QzHg+RU2sfreJjyWOTUcD0jniNm776DYqbgD9gjzf79h7Fj++48FRhFySovDJcU4O6km3f+4Ua+8ITanmf0o+Q17jEPs/IKD1Lf4PHLP1CHvo/qJUohvLy+iGwUBXhfLagd5eTj241IYCZvxLEmfdFe3xEG35dFQ5KWxqIWlLkop6BDUsNdT/XUrTHcuT6W1WgFj/K6WFGcBCYDKQnJCTfvPqIT6z1u00Vj1fpNGEsXhAEDR6J33wHoRfTuR/QfiD48d8IAgudSYAYxQzBg8FDBQJ5nYchwDBo6HIOHjsDg4SMwZPhIYhSGjhiFYSNGY+ioMRg+aiyGjx6LEaPHYcSYcRg5djxGjZ2AUeMmYPS4iRg9fiLGTJhE+zEZY+kX2LhJzFSMnzwVE6ZMw4Sp0zGRmDRtBiYz02dh2sw5tJwBfV0TWOp7iwbazjwkRzha1oKJtgPKllaBWkUDKJfTFBPl5QTuPvrx+9K0XkeSIh7lJb3tvII/F+cqETDXc0UlEim3ajEiamWu7YLBQ0bj6Ys/6NdyVoEoHPAQ79Nnr8HYwATe41si/uwMND08QWFaHJ+M0F96oHrrECSsHo34lSPQesM4hAxrhYq66qjbOQENk9qhfs82afT4HG1zlQYK0qx/F9j614CmjjZGzpiAYdPGYShJSHbh14+aNQnV7W1gaWWJzkndMXPNEmw8sx+xLZvAyc8Th97cwrCVM2FY1QwtSRC4K4m5e4/E8nYyrl67I+TiSiZYShghLSQdLB6f4iMBEvDr0rh8JW1dV67RugneHkd6rhDXM3dppTxFcuozIm3/WHyOnzyHnbv2C9FZuXo9lv6yUkR4OLrTsXNXcIKwu7sH7OwcYJueG6OlpY2g4GA63h7R/l0TkZjuPXrCwMAA+/Yfwu49+7Fr9z6FYNnZtm0ntLkLaSwJzHMSmFskFBmQRBRFpGTov3CNu7DonD5w4iL2HD+PI6eu4NDJSziYiUMnLuHcrRTUbtQEdiVKI6q8AcLFKKbCD+8rlwzgEUk3Gw7EXxPX41Dj3kjUtRcJy/XoB3cDEhcWGa4Jpf1dKVE3qbaaFYY61sVitzh4Kxti1dY9hUlgcl6NOq+4RRJzN/mZEJnUp+9E11LKkzfE20/zVJrUXOGd4jx7hycvf6Ntv0ZVaweY63gIObC3CMsRnFtjquuE0j8piUiFZiWzHMMTx5X6qTwJjBMcxSgv6W3nLjxKqyacqkSK6AtX7NZSNUdc+DiM7nCE9ssE6uVNEOJfH+eo8SgcOTAfkyYw14XAuA5piAZ7RyJm8yCFqbd9KHxntUGVeH+0WjMScSuHIXH9GAQNiYeWpRGm7lmDWUc3YcahDWkcLHwsOrsbdTq3gq6RAZbu3oCfd67Doh1rsw2/ftm+zajuYIeIBjEYNmUcpiybh/33LqBx23hUVFVBWKM6iGzZEFYutmIiu8jwaBGt6NdvEGbNmk8N+kGc4Jl2z1wSeSecfMs5KCwyN26yYHBU5bFIAmb4b5YLlh+OrFwiQblwiWSGoePvIyQfuyn4R3SyPk4SROu9doPrIT3ArTvJtM2HdK3jekmpglv0943bD3D95j1cpeexHN1/+ISkJgLuHh649yCV9usKyVEqunVPE5i9ew9i1659Ygi3InAUZuvWHWk5MFICk5ewKBRCrt56hAcPXmLDqNmoYWaDds50ra5iCz8bN/gTXtWd4VLVAdUtqyE+oDaaOQbC4du0JNdIEoOiQG0lQ1T7URk8DPxag/74Y9xq7GvYAy20baD1bSkhLbECY0QpGYj7eM6YKFVLDLGvg59dmsNXxQirtpHAPJAF5j9z5/6Tj7itILf+Dfoc0vg4GpRdWL5u0kWxiqUtLPS8RA0lbrRzRi0hABytMNFxJJlxzjG8Lg0VE1Qx8hLzzEhvN3fhz6K6WSCMtO1JVkzhZdsAQ1vvwfSeVzGp2zl42jRAuZIqsNL1wphx05FM8iqGUd8lcciMhFTkJywwJ09fhZ62HtSjbGDVOxwWXUM/iXkWLLqHQa+VJ8ybeaPl2pFovmIIWq4fhVrj26KUWnmomuhA3UK/UKNhZYAylZVRtkJ5eAT7wj3IB+6BOYBe7xniDz1jQzGRnXIlFRibmaDX6MGoGRsFKzd79Ph5AsK7tECNhnRORfuL7X/zf9+IEWt+/kGoFR4FV9caYq4XLS0d0V1iYmIihjfXqROD/gMGY8LEqZg8eQamz5gj8lt+XvwL1qzdhN17DwkBuffgsSCt2+gp3X4iZOf2HZ7S/55I1s0KR304OsOv/1tyPsXfYpMmPkJwWHzSu7HSuCVydOrUiYWnh5eoicTzyXB17K7desDQ0EjM9CtyXvYfFnD5Aybj76z3HTp0TAiP6ELKb4HJDhLCkdtwl9XRM1fRuJo7+pt6IEzZCAZflUJiWSuM1/DCOv1auGLRDPeqJOBx1faIV7KCYylVNKxgilgl4yJBgwomsP+pEmqUrowr9fritzErsKN+VzTVribqP0WR4LDksJRxdxMPveZ8mQhVCwy0jcYiLvdSVluMQuLuNKl6Vp8jq3zkBukCkxVpgSiuSMlHbnDnAQkM/aqys3FFFQNf0U3C89jkBG74uaAlj3CSejw7cNRFrC8X9k9R+LOwMQ3ETz+UhZWBB8Z1OoG5fe9icrfzmNbzClrXno5KSroo/YMK6kQ3SxfRpx8LzKeQkI28gEsJHD91GZoamigfYArd1p7Qjqsh0GHiP4V7Gi09oFbfHmbNvBBPAtMsXWCChsWjnIEavIY1hd/YlvAdE5czRucdgZMSYRHvCzVLPbSa1gctp/dG/LRe2abltN5InN0fVQKdYORtA9tYH3z1wzcoVakcSpHQ2Pt7YNm941jy4Bjm39mPJU9OYOCeRTCwNMOBg2dETgfPK7J5+37MmP0zho+aiH4DeDjzQPRI6i/o1rMvwiPrwMKiCiqpqqFsufJQUqoATU0tMcw5rGY46sTUQ81aEQgNq0VCFCEqWrdsmYj+/Qdj8ZIV2LPvsBhefeTYadEtdOr0RRHtYQnhBGEhPyQ9QoQ42nOP5Id+0HD0hWWHIzx/R3kkyHic829iYuqKifju3n2A8+cv4d69ZHTv3hMqKiqikOSAAYPEjMPMgAFE+u2//xYMEnDxSZ5XRkVZGWPGTyv8ApMXZBGYW3efYfexc4io7ga0nIBncSOxKrAFBjmGIlTbEn4VDdBKwwadNJ0w2TAIiWrVofz1D2KuFM4fKQrwUGmeqM+ttAYux/TCmxFLsaluJzTUtCZZKSkqcbO4RJQ3QGg5XWjQfe4kO+Eq5uhXPQLzHBoLgeEcmHt03cs8h09B8QmByUC6wf+SkBITReEIzA26YFWzdoS1gR+crdMlIYewbLhWrZ3r/C0x+YRL1WjYWYRCS9UMOupVEOXdHQNabsWs3jcxo+dV6GvYiSTH7bsOIDmVIzD0uWZBUl6kkJCP3ODvHBh9Y1TvF4Wa2/oieE13BK/tgRBmXc8PCF2f9AG1NveB26w4WCT6ofmaYWiycjDiNoyE/+DmULHURcL+iWh7fDraHJ1aaOl8fg68xzSHjr0Zhh1YRCzE0P0Lsg2/fuSxJahWqwZ8Wkdj3O31aDClG8z97fG///sfSqsqwbtZJAatm4vF949gzo09WPToCFwbhSI4uCZSHr+j8++p+JWY8uQ9Hj//HU9e/oGnL//8myfE7fvPcO7SHRwjAT149Bz2HTqN3fuOY8eeI9i4dR8mTJqJ+JZtSGYi4enlC7cannD38IavfxAio2PhHxgCC0srVK6siUqVKkFDQ0Mk5HL+CiftDhw4FEOHjcSIkWMxZuxETJ4yA3PmLcKq1RuE+Fy/cV8ITUb30R0SnDt3U0WEhyWHR05dJVIevRDDuz08POmx++BK0nfuJqNz56607cpYtGgxFsxfhHnzFmDe3AWYO3ce5s6Zhzmz52H27LmYNWsuZs+aQ8zGzJmz6f65mDp1OskPCcy4qfT5fIECkwVO3t174jxq27rjbdMR+LXVeKDtVMHj5sNxqX5vHI3thpWhcVgb0hKdzN1R/fuK8C+jDd8ign8ZHZj/oCQE5mztnng8aB5WRbdBbGUrISucsBuanvDLuS/q3/wkBCaikjl6V6uF2XYNiprAFBak5aKwICUvTIbAVLWyR1XDALhaR8OlSlTOoHWwaBhUtkGl8oZQUzLKMZXKGYphy7xeXr/kdvMIHmbuVrUOrAw9oVJeW3QncRJv5/qLEGCfiEDfSPqF9IBE4YWkwCiKpNRkICEmisIlDs5duAkrS2soWWlDN8gG2n5VFce/GpTtDKDnWw3xm0ej6eohYuk/tDkqGGmg3i990WjdYDRcMzBP4XIA2aXZ1uFw7hMjIjAtp/dBPBE3rXe2iZ/eGwlz+sPcxw5O9QPQ++AsJO2bic6bJ0DL2Qw/KJVCRTtdaDuZI7JzC0w6tR6r3l9EaFJzmJlZUIP/lr7zD2dtvsHcfvQB/Jw7D57TefqCZOdlOq/+hkecPCQZSnnKOXi/iiULUfLjt0imbZw+fxNr1m/HrLlLMJ5kZ+SYSRg2YhwGDxtDjEXbDl3h4ekLQyNjEhxVVKxYEWrqGjAmyfHw9EZEZDQCg0LEMGtPL2/4+QWIGk4c5Rk2fJToztq2fS+OnziLoOAwMQfNzdv3RCXpWyQynTp3ERGjRQuXYD4JzPx5CyXg+z9k4cLFQmqUaX/GjJsmBO/6rUcSpOYJUgJR0GQVmLctx+JN/Bi8JX4jmfkjYQL+TJgItJ4MtJ+OpmZOqFPGAP01HJCkblck4H3lCIsrCczxiM6423s6fq4ZjxgNS9FdFEDSwuISRLDwqJHAeJbWRLiKGXpWCcF0m7qoUU4HK7fupvPjNQnEx4nQ+U0REZjcQlpAcpusAmNhVg1WOn5wtIiEg3mEWGYXF6s6MNV2QzVzVzSJbo8G4R1QP4c0q9MBVUwcYVTZCc6WtSW3mxUni6gPsVQEkq+sWKXhZh2LGlXrwsYkCNqqViRn+qhU1gj21bzxy8p1eEDGLyUm2UFSYjKTqeH7N0QOzJmr0NPVR6mqGlALqQJVf0uFUQuqgpKWatCoZoim64ahwS/90YQkpuakdihrqo7vlUvjR/XyhRuN8vi2QkmULFcaVZxsYOlYLcdUcbaBpr42SlUsCw0LPSjpqKKspjLKaFRAif+VwP+V+g7/K/udSODVMNJF4xHdYOXvjM6deuLVW+AhCQaTQrKRAf+dTFLyIOW1OJ4yw0ni/F2ykN65/5yOkye4nkV4MuD7GY7gsOSkkthwN8zjF7/jyYs/0nj5h5CfG7cf48KVezhDknvizDUR7Tl87IKoYL5mww4MGjIKzeMSRUQnOKSWEJXQsAhE16mHmLoN4eDgDB0dPfzvf/+Df0BgmsCcOS8iMSwwP/30k5ipN8A/EFy6QBEC6fl+fv4oVaoUxk+ciSfP/yCxyCwu/wVpScltpKQjN/mUwGSF70frSWhGAhNZWk+IQVc1myIB72tYOV0SGHUcDGuHK90mYE5wM0Sqm4kIjE9ZLfiW1RbVqjn3RVVEYEhglE3RxSIAk6vWLoQCI3ILihGS4lIw8PT3PJLK2ysYNapHI8ClMXyc68PCyAGmBjYwM7ClZTqGafB9H9yfBXN6bUUldcSGJeLY2ofYsywVu5fmjNMbU1CvZjsY6lSFiYE1DPWsCEsY6FoRtNRhLKCvTeiYQ0+b0DIT6GqZQlfTFDpMZcYE2oyGsUBL/R801Y2gqcYYojKj+g8alfShUl4L5UqpoTydYPw8NTVNKKsoY868xUh9wr+qpYUkt5GUmqykCww3fsdOXIK6qjqUnHWhHWMPrUgbhdGubYeKbgYopV4BFjVdYRbiBLNQZ0EpnYqigS4q/PjjjzAyNoKhkWGOMTYxpu9fDf/39df4/vvvxfoNnCxh7mWLHyuUhrKVNsrpq4poTIlv/yce//rbr+HrQ410QDACAkNoGYTAoFDUDI9CFAlCfKu2GDVmEtas247NW/dh6/YD2L7rMHbtPYq9B04KqeB8pguX7wqRefbyTzx79SeepyP+JjF58vx3PHr6q6jPxed4ZqFlRLSHb5MEseRwlCcNkiOGJYmWHPHhaE7qs19FFIQFiJcsQwznVx06el7sY9VqNnBzcxOVqE+eOosbt+4iIbE1yY0Orly5hosXuVDkRYW4fPkqSdBZkdQ8csxksd0MKRNIikpBIS00ucGXKjAupTWwJ6Q1TrQbjsl+9VFTzVh0F3GBSi70yCOPPEtXRqVvfhQJvywwHc18Md4qAm7ltMUw6vskMFnziKQEI68pfgLzX5CQjtzkzv2nYnn42Dns3X8C+w6ewj66UO7aexg79x7Czj1p7BAcxHZix+40tgvoAkts2/UP+w+fEnPT6GlawdUmDDYW3rC19MkRdlZ+UFfRx+JfVuPUhSs4ePQ0Dhw9Sds6gb2HjmPPwaPYvf8Idu1L2+8de/jCvx9bd+3Dlh17sXnbHmwiK9+4ZRc2bN6B9Zu2i8J4azdsxer1W7B67WasWrsRK9dswPJV6/HLqnVYtmItli5fgyW0TWbRkhWYPHUmho4YjSEEP+/4qUt0YiRTI/GMPkdp2cgvJCWGeJD6CidOX4G2pg6UvA2h28IVOo2cFEa3mQsq+ppAyVQT7gMawLV3LGr0rQen7rVJYJTxVfnv8U2lUoUb1VL4qux3KFWuDGxqOKC6m71CVGNc7CTh9VTW0UIZ5fIoU7GcoJKuBr776Qf8pFQGunb0q9FEF6oGmtCqYgibcHdoWeijgpISzM3MUK2KNYwNSY7VNaCnq4uIiCg0bNQEjRo1Rd26DeDp5SNqEOnq6YmaQJVUVaFRuTIJmAkcnVwRS8/p3CVJ0KlLT7Hs2r03knoNwMDBIzFuwnT8vHQ1Dhw+K6IyXKfrDskKCw3LD0dzOKrDgsv5W8kkOxlRIe5+4r8F6REhlhmWnJt30iI/DEsQd2+9+x0ICa0FR0cnXL1+G8dPnsG1G3fQqlWiGEb94MFD3L17H7dv31WI+/eTcf36TfE5SQpMbiApI3mJtKQoym0SmH1fhMDowamUOrb6x2NPXD+MdI9CcCVDEW1heckqMCKJt6Ip2ht7YYx52GcFpiD4sgUmu2QRlX+DC/4lU0OXwcNHr7PN6/fAL6vXwNGqJro2+xlt6k1Dm/o5o3OTBahu7oelK1fh+es/RaP8EbTt5H9B7OPjjH3lC/aHpDzOzIfhfY6w8Hw/T+iXJ8PPSQvpcxHHJ5JSURjg7/bM+eswNTHDN3ploeSog/J22orjoINS5qr4QaUM1D3NoOZuAnUPUyg7GeD7iqVQyc4Aqk5GhRo1VxOUNq6ECuoqiIivh/D4uqjVIlYhQhtGE1FZiEatJjHQMzWEYRVT6FkYwdTOCiHNomFobYrvfvweSqoVYeVmA7+4SPg2qQX/FpEwcrBEReWKiKxfGzXrRKBWTCTCY6Ph7u2JqVNn4MXL3/AgmY6l2w9FTaS99ENi85adWENyvZxkevGS5ViwYAlmz16AadPnYNiwkWL23NDQmnAVRRirpRWENLeAFcmPg4OTiPSE1YwQQuTg5ILq1e1EtMTG1h6ubh4ICYsQicBjx03FLys2YMWqTST0W0nud5Ds78aW7fuxa89RHDp6Ducv3Rayw6UzONojlgT/4+4lewcHXLl2E8dOnBYi07JVgqgo/SA5BXfvPcDtOzxz8L9zn4Tn+o2bMDMzzTuBKUgkBefz3L73nATmQrEXGM6B4SKUqz0bY2ODrhjgHIYAZQOof1MSfiQujD/hVVozPQemMmpVMEaifg2MMAmGKz3G88DwbMWZI1gFhSwwuUUWackruHFftnINNJRNEeLeFsE1WhOJOaKmZ0dRKHPxspViEr5/5sTJQ+4qgrQ0FCYyBMbEyBQW8d7wmxoPr7FNFcZ3UhysWvpCx9USLXeMQvNNQxG/dSSi5nVBZXsT1JvdHY2X9EOjn/sUWlqsHAznNrVQ2UQXSQtHoueCkegxf3i26blgBHovHgMze2u4RvjCxt8ZnnWDMHDTVHg1CoOSdiU41vWFvr0Z/NpGo+vWcWi/ejiMXa3RcmgXrLp/ED9f2Y6Fl7Zi8fWdiE1sjEkTppK4JIvhyTzMmWfOFfWQeEI5Eprbdx7iDo8IupsqSgfwkGe+ffNWsngejwgSs/mKOV5u4PyFazh77jJOnbogZtVdsHAJxoydgL79Booij+3ad0RiYluRkBsfn0ASk4iY2Hpwq+EuBIjnYOFK0jx6qbKmppivhoWnYaNmaN2mo+juYvFhOnbqDm0dPTGR3eWrN3H0+CkSmVuIa9lSRGAepnCZg4dCYhQh+SG/r9siAsOlBJ6SwGTO7fmi+IIEpiftKw+V5hyYZTXqY1l0a/S0C4BPBT2of8sCoy3gkVU+hMa3peBZShM1lYzQUtcZQ40C4FJGE6u27sZ9Em0pochvSkhNDvc5JBtvmX+HGu3cgAVm+ap1qFhGB1WMfGChXwMWBjnDysATFctqYsXqDXhEAsPbkZSOvEZSYhRFWjDymswCY5Xoh8DZreEzuYXCBMxIgHWbAOjVqII2+yeg1c7RaL1nPGKW9ISmkykaLUhC85WD0Gx5//9M03yi1YbhJDA1oWGsTeIxGr1+HoWei0hkFCBJAn5932XjYO5gDbdIP9gGuMIjNlAIjEe9YPxQvhS82kXCp20UyqgpoZKJFspqKcM+oAZGb52H0dvmYfrRlVh6czfG0O0mcc1w+3YKUh+9pMb7GR4kPxWT06XNzcLDlh+K2XlZajKXHmBEiYAsZDwmygkQfB+LEAtQWs2kJ2IbyQ8zeCaWPDT69JmLOHjoOHaR9GzZugsbNm7FmjUbsXzFWhEBmr9gMYYMGynqIYWHR8LLyxuurq4oU6YMfHz9aHs3cOTYSSEycfFpApOa+hjJySmia0gRUkh4uCspq8AUBiQlIx+4fZ8E5iQJjF3xjsAEltWGXclKWOhcB7NDmqJ9FQ94lieZ/uYn+NNjTADB+TCV6D4vEphwJWPEaTtioIGvEJjVhSkCIyUpRRFJaSiKUEP+Ofhis2zFOpQo8RW+KsHJjV8R/5dD0pIg123Ygcdcf0piu3mBpMQoiqTE/BekheS/wgJzlruQjM1g3NANHiMbwXVQrMK4D2sA86Ye0LA1RsyC7oie1Rkxc7shYERzqFrrIWxIHCLGtkb46MT/TK18InpyB1jX9UQlvcpoPS4JiWN7ImFMdulB6+iFjtMHwtTGEnZBNWDmVBXuMQHo8csoVPGxh665AaLaNkRVNztoaFZGJZVKhArUNDWgoq6KygbaMHe0hmOQByydq0NbWwfR0TGoXTtWREEaN26GxNbt0L1HEoYOHYnp0+dg7drNYrjyufPXBBxhSeM6LlzkieW4/tFtEYnhqAxHaMQkdaIcAYtQWjkClhgWIn5OhhRlzMp7+XKa7HBEhx9Li/4kp0Gv4ddlwPfx48zjJ69o32Pg4uoGroN0+OgJXLpyHXFxLaGnp4dbt3idHFW6LrgmuPER15nrN4W8XLp8BaYmxoVOYPKbL0lgOAJTU+TAqGG6TS2M84pBKzMXITDcXcTDqDOGUnMEhu/zJmGppWSEppq26KNDslNRH+t27hcJ5lK5RPlNsRGY/4qkPBRWqMHOgHNFtu08AE9vX0RE1U4j8j+S8bpMr+e+/D37j4PzVzJvrzAhKTJSSAqLokiLyqcQEZhz12BkZIJvKpdEaWsNlLJSU5jSVdTwg0EFlFQpCyOvajBwt4ahZ1VoOZrip4plYOBqDWOPajByL7yYeNtChaMgFcrBJyoY3pFB8I4IVAx+biZ86fVuQd6wsq0mEmu/L/kDNE31EJPUAnHju8A+3BN2Pi7oNLIXmiS2wOKda7Dt4iFsPL0Ha47twIqDm/HLvo2Yu3EZegzrCz9/P0TRMc7Dh52dnWFnZ4/q1atDV1cP5ZXKi2HIPMqJR1CVLl1GwDPycmKvnp4+zMzNYWNjixo1PBASGiYSgbt06Ynx46dg1qwFmDV7AebMXYR585dg4aJlWLpslZiobtPmndiz9zBOnrooZOYencd376XNyMu302DxeSwmsOPJ6zJ3V127zss0Hj1+SQJWhwTGFRcuXcXhI8dJpq4jPr4V7W9p9O8/AH379iP6og8t+/RJu512H9eHyrzsL57fn25raWli7PhpePqSBOYONegZZGrgvxR46Pz+LyACE1JWF/YlVTGxaggGOddECyMHePP8W9+mFW5kMs8D411aC7XKG6KxRjX00nKDazltrN2+j657b0ggSP4KmC9WYHITSenII3h+mXsPn+PxCx56ybOMfoJn/5Vf00b7UKMsJQ/FEUn5yUBSbrJCApP6Cie4lIC6JirWNIdBF2/otfNQGINOXqhYywJqVfVRZ3pnRE5sh9pTO8J/cGOU0lSCRlUDaDuYQqsQo+NsjvJ6qqIWkld4ADxr+cOzpt+/IgSmFj0/zA/uIT6oEehNeMHO1RH6+gaoWKEivv7uG+hXNYVvk5qwCXSGurE2dPR0MWjccKw5sh17b57CrqvH0rh2HLuZ6yew7/YZLNu7gURjAu7deYjnz1/j9ev3ghcv3uDSpWvYuXMPli9fhTlz5mHSpKkYPXoshg4dgXbt2iMkJIRkx47E1EjMsFuhQgUxb8o333wjopWZ+fa7b4VIKCkp0T5XELktOjq6sLS0gru7J2Jj64scGCYurpWAbycktEHbth3QuXN3kouBoi4TR4J27T6EvfuO4MDBEyQrp0Q3Vc2atURX0oWLV3Ho8DFcunwNTZs1F/u1cOEiMfvunNlzMGfWHBKr2Zg1cxZmzpiJGdNnYPq0GZg2bTqmTp2GKVOmYhovJ0+h92aIMeOnksD8IUY8/QM16oUZCQHJKV+KwASX00H1kioYZeGHpOp+aKJrA8+yWmIYNYsLE0xwLgwLjA8JTDgJTCM1a3TXcIZ7BX2s33UA91NJYOhzK2hkgcknpGQkJ9x58DT73JdGqpGXIVH5FCQxPEz29LnrMDQwwg/VVFEp1ALKgWYKoxJigbIuOviu7E9QNqyMioYaRGVUMNBAyUrl8G3pH4gfCzdlfsRX332NktTAV7GpBqvqVQnrz8CPV4Wurq4oFaFnbAA9E0Pop2NkYQoLmypiGHVmUfixTEmxVK+sgUbxTVGvaUPUbhCLqHp1EFW3NiJjoxEeE4XwOpFiGRpRE+HRkQgKC8H4CZPw5u2vSEl5Injy5AVevnhLQvMr3r79He/f/4Fff/0Tv/32F169ei+ec+fOfVy7dguXSXYuXOB5Vi7j4MEjmDN3PgYOHIwOHTqiRYs41K/fEHVqxyAsjCTLxkZUea5QQUlEeNTVNWBtXRVe3j5wdHSGsbExNCtXhqqaGjQ1NcWoJp6grlHjJmjWPA4tWyWiQcMmCKV1ce0jHjptb28v5MnHx5cE5ooQGO5KatasBZSVVbBixUosXfYLli5d9g/8N7FMsBy//JLG8uUrsHLlarq9Amamphg9bqqY2ybrXDbZ5UMRygyJQmGCGr+sAsPDqKO5FlLcOPyVOEnMwPs2/kORKfIRmHK6qPaTCgaaeKCjhTsaalVNF5iSJC66Ao7ScNkBvs+XBaacIepXskJXdUe40HPX7thHP9wKjcBIN2ZpfNgIyxQ+pOQmT6AGW+ZjeFj8GRIYfR0DmHUNgPfyNnBf0FJhvJa2hlF7Lxg6WqH/hllIWjUFSSsnC3qvnYY+6wheFmKG7FgA/4RYaOhpYeSy6Ri+dBqGLZn6SYYvm4YRS6bBOzQADUa1R5slgxA3IwnNp3ZHgxHt4NW4JpxrekPTUAf6NmbovGgYfTZTMe7IUoS2qw9TWyt0nNQP8YM6oteM4Zi7ZyUWHFiDJUc3YtXZnVh7YQ/WEGsv7sWmm0fQf/YoDBs+Am/e/IqHKY//lZTUJ3j0+BkeP3mOJ09f4Omzl4Jnz16JSM7LVyw+78X6WIrevP0N70iCXr16J4SHJWfTpq0kFqvEtP1cj2jKlOno0SMJsbGxQkScnV1EZWxvul23HkdoElC/QSPUrhOLoKAQUVogIDAITZvFYdSY8aIOEif0skQdOnQUFy9dRQsSngoVKmLevPmYPWcuZs2eQ8zOwsf3zRHPnS0mHeRaSDxkW0pGih/p8iIBz8Fz8sJ1OFhVQ2cjZxwPa49HjYeQrEwG2k4T0vKO5IUpygLDtY44AtPbwBWtjZ1QT8MSHmU0haywuDChREC6wPiV1hYCU1fZEp1V7eFYSgNrt++l696bjySwIPgXgclvpBtpmdxHUlJygkTj/iXAXUjnL96ClYU11KOsYdUnFObdAhXGslcI1KKqQs1EG3WSWiGyWwtEdm3+WSIy06XgqdM7AVX8nFFZVwvNurdBk66JaNwl4ZOIxzsnwMG/BvwTo+HZKBTWXg4wqmYOXSN96Jroi8cMqhjDytseLaf0RtNRndFibDfYhbmLCfDGrZ2DFr3aIjKuHuq1b46WvTug5/hBGL9iNmZuWooZGxdj+safMWvLUrQb1B0jR43Gr7//iZRHTyWlJTdg8WHhefHyDV6x4JDcvH33O969/wPvf/2DxOedEKMHyTzy6T6u3+Ah2VdJgC9g2/adJDnT0Lt3H9GF1apVgshxSUxsg7b0t7m5Oby9fXD+QprAXCKBadykqejeOnbsBI4cPkr3H1aII0eOYf/+gzAzM8PosVNyNQJTlOEozPote9A8oS1CA0LhoWOKHpaemOoUie2BrfCi8TCg5XgSmCloZuKA2qX10VfdHj3VbIsEvK+R5fVhU7ISuuk4Ik7PFrFq5vAkgdH4QGD0/hYYfxKYCBaYiuboUMkWDiXVsYYF5lEhEZi7D56ioJDs3igsSArWp5CWBJkPkRSfrEhIQmGGJ9rjY6BmrSgomWrANNAexr42CmPibwd1e2NUVFGBl5sX3F094O7yH+Dn5wE1/gPeHr7Q09EXia/Nm7ZA08bN0KRR08/TsAkS2rVFvdj6iImMQb2YeqhftwEa1GuIBvUboVGDxtDT1YO2ljZ8PLzhaOcI++r2sLasAgN9A1Qop4RyZcpCuUJFqKupwVDfENWrVqP9cYNHDXe4ObsiNCgUDerWR3xcPFavXY/HT5/j5Zu3+O1P4Lc//hJC8/63P/D2/e94TbLBkZUnz14glSQng5RHT4SYZCAlLorCr+d1ZkR3MiI8zLPnr8T206TnN5IeFp80/qD97dS5s4jKnD9/CYfTc2BYYDgR97+WErh06QrOnDmHKpZWGDV2Mp69IoG5S414XiAhCoUZ7hLmyQOv074vW7sFwydPRwQdo242jqht54EwUxv0dg5FXRM7VCxRAtW+Kosq/ytTJLAmzL4qhao/qqCTlh2aalVFHRXTNIH5tqSYpZepWU5f5MKw1ASkC0xMBVO0U64OJ47A7CCBeUwCIxHJym8KVGDyCkkhyWs+kpqcIC0AXxqSgsNIiERBwQLDRETWQdykPphzYxemnNmgMLOubEezSb3gHxyCp89+w/3kF7jH09EXIbh44uAho6BcURm9evVFUlIf9OzZW4JeafRIo0f3JHTv1hPduxO8zID+7pXUG4aGhnBzq4Fp02Zi/YZNOHfhMiZPniK6X5o3j0PjRk1E/knDho3h7x8IM1MzEZHgqs9K5ZXE/lQW5QGMRW6Kn7+/iGz06z+A9ncoho0YiTFjx2HylGmYO38B1q5bj5OnziA55RFSH5NosGCQ0Dx78QrPX74WkZWXr9/i1Zt3ePX6nbjN0sH3P3vxWnQzsZxIyUtO4C6qpF590ruQ0gTmMglMkwyBuXwVFy9cwvlzFxTiEsnOmdNnYWlhgdEkMM9JYLKOrssOkgKTl2SRj9yEy0Jwkc7HdE5yOYdLNx/i2MWbmL9iHWYt+gVTps1Bi1at0bZTd6JbkaBjt14Ija4Dq5LKaKNeFY00rFBb2eTTAkP3cSQmkgVGyQRtlavCsZS6yIHJf4GRyqt6XDwFJj+QlJi8QFJwChpp4Siq5ESKWF549Fat8Gi0mtYfC+7sw/QLWxRm3o3diJ/aF/4hIfRL/Ne/11eU4C6IufOWiIRSd3cPeHp6/wM1utzwenn5EL7wFviI7hDGx5v+Jny8/QS+PrQkeNizpqaWmCqfE1pjY+shOro2nJycYGJiirCwWkJaODckPDwC7dt3RN++A9C7Tz+Sk2EYOHAI4lu2EqN3vGg/qle3EUmzlTVIaAyNYGpqCm0dbRE14iHVPOLIx9cXkZHRqFu3HgIDg+Dh6Un77wX/gABERkWhJa1v2PCR+GX5SmzYtAVbt+/E7j37cfDwUSE+l69eF/LDEZ3ffv8Lv/7GEZ4/8e7XP0RU5fWb93hOosORl0ePngnZSaXlBxEfiSjP6ze/okfPpE8IjBauXr2GS5cu48KFiwpx+fIVnD1zDpaWuSswRQVJGfoMt/maJ47152llUbj8CcnN8zd/4SkX+SxoRJHRf+f9H8DKzbtQpYwqWqpYooGqBaIrGonK05W/LQUWF6ZWOQORzMsCE5guMHXKm6B1BWvY/6SKdSQwXP5FSvzyG1lgigCSYpMTPhKSooK0gBQk9x8+J+l4Ro1oNBJIYBbe2Y8ZF7YqzLwbexA/rS/8goOpQXtL6yx6o8F4CP7M2Ytgb++Is+epcTx3BWfO0q/8D+D7MsHP+QRnz1/FpSu34OzsimbN43H7bgqOHj+LZb+sRkBAkJCbI0ePY8LEyejQoROat4hD06bNxf2cK2JmZi5ucxdLkybN0K5dBwwaNBhDh40QEaLu3ZPQqXNXISoBJCc8eiihVSI6dOyEzp27oGvX7ujWrQeSknqLkgCtElqLukOtEnjoc2s0adpMJOJaWVURM+HqkWSxVNnbOyCMhCkhsQ3ad+iIjp06o1v3HujTrz9GjhyNmbPmYOPGzbhw8TLu3HuAew8eCuHhbiqO9nAEh6M5r9++x5t3v4puLZYe/teX1pGRxJsxDwy/ZxawgwcPY9++/dizZ59CcP7Lrl27hcRxEi9X2v54ioC8QFooZKgxzge4Xt0vG7ahSlk1xFU0Rz0VM0QpGYo5X/S+K0viwvKij3ASGM6FqUwCE0QCE5UuMAlKVUhg1MREdg+fkMBIbONfkZCQzyK1jkzIAvOFICkyn+MjeShqSAtHbpNZYBKnD8Ciewcw89I2hZl/ax9azuiXJjB0URDflcR2PgtJRFakRCOvePLiN4yfMB3W1tWEfJwmCTlF0pJd+PUXLt+Ck5OLEBie4fY03X+LRKZX734i8nLm7AUcO34Kp8+cJ2G6KNi77wBWrlqDBQt/xqzZ80R3VRB9ro5OTvDw8BBRFe5+cnFxQWRUtJCYbtxl1SMJ/fsPEuLSlOSkXr0GooZRi7g4xMbWRTMShcGDhmDJkmVYs3YDNm7aii1btmPP3gPYvmM31m/YjOUrVosRRzzEeuLEKSIiFBERCU9PTzEUmifQ46WXp5cQJl8/f7EvLD3ifpITjvK0aduOPsuJWEzb+mXFSqxZtx779h8S0RYeVs3DqDMEhrvRxDwwCxZi3tx5mDtnrkLMn79AjETiLrqxE6bh+eu/pKcJ+C9ICkteIy0DMv+QubFngVlOAmNVRhUtKpihnrKpEBgu3MgT2YULedFHBAkMj0RigQkuo4toFphyxkhUsoIdR2B27kNKdgUml5EFRibfKB5i9CH3H74Q3T4sMK1nDsLiB4cw+8oOheGITatZA+AXEpJ9gSlgnjxPi8DYUWN8+swlwanTF7PFSV7S689fvCEEhocR8zT7fP/lq7dJMnoKgTl1+jw17IfTOSSWBw8dxZGjJ4XYHDt+WiyPHjtJ9/GEcMexgURj1Kgx6NK1G9q2bU8C0ELIjLGxCapWrSq6m7jUAHdXtWqViF59+iGpV2907NAZnTt3E/fVoucE+AeI53Ts2JkkqIvIT5k0aQq2bd8ltnfyFJckuIQrV2/g2nWul3RDiMep0+fEPh08eFQIz4QJk9F/AIlTtx5CeLj4I0d4WrZMIPmJgoODI0xNTGFgYCjmgQkKChbDpzMEhiNBnPOTFoE5IBltkYIjMDt37oaxkRHGjp+KFyQwUmJaFJGUq+wgKUyfQ1ogChM8y/qKdIFppmSKuhWN0wQmvQuJxYXhLqOwsnrivhASmNrljBBDAtOqvKUQmPUkMDwjvNQ28psS95Kf0gW46HA3J2RqTGWKECQKmZESiYIis8C0mTUYSx4ewZxrOxVm0b2DSJgzUOTAPHryjt7vs0zrlxaGwgYLzKw5C2FrZ48zORQYhl/P9YfSIjBxojYQ388FFLt2kxKYT7P/wJG/OXjoGE6cPEPrv4Cz53gfz2Pnrr0iqrLsl5Wii4cjIIFBQSK3JjgkVERGuPSAi4ur6HLqQNLCcNSmT9/+opuoceOmaNSoMZqTbNWqFY7AgCARueFp+zlBeNbsuSJvZv+Bw2IYNMsMC8iVazfpPd3EVZIcFp2r4u8b4rGTp87R/h/Ctm07RYRn9ep12Eq3WZAOHzkhnsOy87///U+M1OLq1mno/I2ODqObhq6umDiQ8324fhIvv/76a0yZOqdYCUxeISk52UFSfjIj3VDnBsmpr7Ft7xFULauGJuVNEEsCE00Cw5PVaX9XOl1ePi0wCSQwDiXVSGD2iwiM1DbymyInMEUNSZFipBpqmcIJycSneEACc59HIZHAtJ07GEsfH8PcW7sUZvHDQ0icP+gTAlM04ByYuQuWipyVsyQfQmJYRLIJv/4iCYxzusDcuZeC02cvUUOfLjABgfQ3CQwJAcNikHFbSmI+DUnN4eMiQsORm6PH0iI3x0+cEbAscKSE55Dp1auP6GJiiWGhMTU1gXN6V1StWhGoXScGbdq0Q+9efcWEdV26dKPn96D9b47Q0DCEBIeiSeMmIrrCs/dy9GbihEnYuHGLKGnAsnL8+CnwjL8sOBcuXBEJu6dJsk6fPkefyXkR2UnbVxaYGyIiVK5cOQwfNhJDhw7/iGHDRvzD8JEYTowgRo8ag8GDh6J0qVKYMGmGLDBfACxPPGfVodOX4KRugCYkJHUrpAmMXxkt6JDARJY3QJTAEFz0UYMEhruSuPuIBSa+nDkcy2pi095DaQKTvt6ChATmGTW0xQlpkShOSDayMgXCgxQSmIfPERlRG50Wj8CqN2fwc8oBhVnx8gTaLx0B/9AQPCaBucejHUgK/itSYpFfpD55jxWrNiEoKBSXLl7HpUs3SECuZxt+/fXr9+FCQhQXn4CU1BeiojNXeu6R1EdERq7fvAPOf8ngBDXuf0uMFJIC8ymOpHNYRDs4GnL6DOfZXBKSs4OEYwOJB0dueIbdFi3iEUL7FBwcIkZMcddPlSpVUKOGO5o1ay66q9q36yAkqE+fvmhHf3NeTRy9joeAB5KQMZznMmjQEIwZMw7Tps4QdZqOHDmOc+cuCk6ePCPk5ShxhQSGJ7rT0tTCyRNncYwFjPY1M0cyOJwByRpx4vgZ7N1zAMrKyhg/cRpevvmLvkfp6JrCUGNSUDlYMorBkeKbdM2Kr90IQf+ngvoVTdIiMCQwnAPD4hItMBK5MDrflRGT2rHANFYyh3eJCvDz8sONu6m4Rz/cpLaR3xRDgZH5d6TF6LPQgf9fkWrwixvJqS/FBTswKARmkU4I7N8Yvkn1FMa/byMYRznAOyAAz57/Rp81D9eU3lahgsQlg+cv/8DEybOgqqqGFs3jqWFuSY169uHXt2rZGsZGJiI/hfNSwiOiEF07Roz84aKJLAm2tnawIXgZE1NXNPYHDnJ3UVpU5nNISg7zkcx8SFpX1HEcIiFguTly9BROnDyLk6fPiS6pAwePYtHPSzFm7ASSkWHo0bMXSU0YCY21KO7o6+sncm0CA4NF1Ia7o1hqeNQTP5cjNw0aNBSJvpGRUSJRl/9uSbKybdsOnDhx+gOB4WHh++gX8e5d+7Br516F2Lf3IDZv2ibmyxk/cToJDEhCpOU0+6SLTTHlo7mpmCyNa2Hk0TP6sbFhG4I1TFD3Jx3EKBn9LTAsL7UFRqI7iQWGu5LqlTdB5PdasFPTw7otu0TSfmEp+isLjEweQAKTCwKUFcmGtIB5+OgVrt14IPI17LuHI2ZdL0Qu7aowMWuSYJLoCQ9fXxIYngemiAhMJvgXfP8Bw0Suxdq1G7Bq1TqsXLk22/DrOeHW3y8AUVFR2LJ5m4hGrFu3ET17JIlqzxYWFgJLS0tqiCuInI6jR0+KOkQHSEQyIyUw/xkJmcmAH8t4/MCBoyJKkxa1uSA4fPg4du/eTwKyC2vXbRJdUhyZYUGpQxITRDLDYmZlZSWGf7eIixdFHXn4Nw/77td/oBiBxEnH16/fwqlTZ2l5W3RHscDs33cYe2j9UrIiRf4ITH4iLRlFFUk5yopEY64oqc/fYcnC5fBWM4L3VxXh/p0KlEt8jYiftBEp0EHoj5qoVOIbBH+vgdCv1WDwoxJmzP8ZT1/8LrnOgqLEfbpgyuQ+HzfqMoUGanRzixQSmOs3k+Hi4gb16oYwDXaAsb+twpgEOUClmi48fUhg6OLA+yclCYWZF6//xNhxU/DTTyXh6OhIMuecYzhpVoMaZy0uJUCfTe3adTBs2Ei0bt1WRF/mzJmH+fMXkuysRc+eSWKY8sWLV3GB56E5y90tZ4U48Igfrh3EYiMlN1mRlJfskEls0vbhmID36fix0yK35cwZ7hq6hD179mPRoiWYPHkaxowZL4Z383vmKtY8zJojNlzFOiQ4BBs3bcGWLdvEaKSExNZiIrvT9F5PHD9F6z1Fy9OZ4L/T4ccIfs4ZkqsD+w5BRXQhTRczKWeOqOUF0uIh8w/SMpMX8DUm9dk7rN+2By3qNkYVXSOYauvBXtPwb+wIbVUNVNUxQqRfCNZs3o4HqS/Fa6XWWVCUuP+QGlyZ3IW+5Lzk74ZYpsBJefxaCIyTgwv8BjRCm93jEL9xmMK02TkGLj2i4B3gL7qQxPdLUpATpCQjL+EIzJChY8Qv+nbt2gnatm2rEG0kaNu2HTp07CgiEiYmZmIiubj4VmjVqjWqVq2Or776Ct99970YRcPdSTyZm7q6hohIMJ1JAEaNGosNG7aQlBwR4sDRmePHz+AUNd4M55NwY86z2kqJTGYkBSU7ZJKazPfx/h0n4WDpOnXqvOiSYtHZR5KxZ88BbN68TeTYGBgaiuhMTGxdep+thMhVUKqAHqIUQw8BR6iSevRCUs9eohxD76Q+IrG4T+++6Nu7H/r3HYCBAwaJv8uULo2Jk2emCYzE91qkIAn4FNLC8GXDgwUePX2PB3T9OnPpJs5duoV9R05/wH7i1MUbuJvyQow0TBtgIC0SBYUsMF861GDmJVKNfnHiA4EZ2QTtTk5Cq32jFKbt8Ylw6B0OT3+/NIFJnxivcEKCJNEl+IoEpm+/IWIulXc8ZT7XCHr5+rO8+AwvX70R0/C3adNWdEu5e3iKaIQjNdjcfcTddYfo4rph007s2HUAjZu0IHlSpue3F6UAuBSBn3+AmEuFSxvY2trCg5ZNmzQVM+JybaX58xZi1cq1JBCHxOy2zLmzF3Ga5IYTYg9ztCQ9aqJI5CaDD4Qlm/B6OGqTAUeU2rbtgODgUFy8dA2bt+wgqdmO+vUa4ttvvoGrixvcXAm3GnCv4fE3Hu6e8KTPztPDK23p6SWGhXMJB55Q7/vvvsOUabOLh8B8abCE/AtS4pIVTuxNTn0lePiYyyT8QwrB9/NzpF5bGCjxgC6YRYtnCiHZWMsULajRLCikG/CPySwwPiMbIfHEeLTYO1xhEo6Og23fWkVEYKThBrDfgKGwsLTEg+RU3L2XjNt37mebO3cfiJpAtevURv0GjfHzkuXo2LkH2rbvjM5demLBz7+APAnPXv6O3/8C1m3cDhWVSqLMQKNGTVAnpi7q12+EDh06o0ePXujUKW0SOs4raUDrc3WtIRJqbWxsRbIsz+EiEmVbtkK/vgOwbNkKkRTLuSKHSCA4UnOW547hnJbT53DixBmRMPx3t9TfkHzkhHR5yQrnvPD+BweF0mfzUIzSSn74BMOGjhCJ01waoXv3XmKSPx5m3qVLD0Hnzt0FnTp3o8+gKzoyHbuISflYiJSUKmDSlFkg3yQRpe8yV/hQbnMLyUZc5ounCApM0YEbo5xDDapM7kCNbW6TSgJz49ZDuDi5QbOmNex61kT1zsEKY9s9DCohpvDy98eLF7+nHTcS28mKlEgUFBkCw4moT548RyoXJHz4KNukpDzG8+evEBsbiw4du4laQG9/hZAWhosP8sWLt83nyO17j3HwyGls3b4PAwYNh59/EGztHODq5o7wiGi4kLAYm5iIKA7P2dI5vYHnRr07CQ436vUbNEJwSJiIckRERovIjbW1tYj6cP7NgP6DMGb0OEyZMg2LFi0Wc7ecPXtBzNXCZQw4p4XnceERQgzPlnuIu6ekROU/wgKTkJCIoKAQ3Lx1H2fOXsKNm/cwZMhwVKtWHffuPxLcuZOSxt0PuZuF5OSnuH7jHgwNjTBuwlS8fkcCk+U7LdLkg1hlbkRlCo4SD1KosZUpvNAFurDzsXR9Dm50ig+pT1hgkuHs5AqL+u4IGtUCfoMbK0zgiOYwjHUSw6iFwNB3LrWdHEEX9byEf8EPHDxCJJTOnTtfJNjOmj0n28yeMxcLF/5M4uGK9iQw70hepLbLcIPFc/E8ef4eT5//iqcvfsWzF7+JJcMXuTXrtmDU6Ano138ICc4wtO/QhRp+G1RSVRUz1nJdorr1GqBmzQjRBRXXMkGITbduSWjTtoMgLq6VqJzNr+PIDU/rz0O3ud5RvXr1SYY6Y/bsudi0aSu2b9+FvXsPiCgNd/9woi7LDotIxkipzPxbBOfUaWmBGTx4uJDG8+evCs6evawQPNfOiRPnoKenL+aBKXYC86UiKW4ZSItYUUcWmC8ZEoqigLQIfQpq2PKRDIFxcnBG+IS26HNpEbodm6Uwvc8vhM/wZvAODMBzanj5e5HaTmHm9Xtg2IixKF26tGjQeXgwLwWR/wY9Nx1+XQYc9ahcubKIlrz/jQRGYrufIvMxnpz6As9e/gou6szRm/e/Ay9e/45rN+6LwpFHj5/D4aNnMHnqbETXiYWnlw8JTQBq16lLAuUGXT09mBibiOHNnGPToWMXtGvfCd26J4mZdllsoqJqI5zeazTtM5cgsLSwJNGphpCQMDF7L1fCHjlyFGZMnyVm3mWROXPmgphdN61L6jSOHTtFnBTRG9E9degfsclrgXlDAiMlh3mBZMMrI5NNSiTzSS6TIzJfMGVyGZKSwsyjJ2+oMUmGo50TQie1Ro9ri9Dp1EyF6X55IdxHNoZ3EEdgfqPj6YXkdrIiLW+fghqPPIQFpm//ITA3t8DTpy/w6NEz0Q3EPMwgUxdRsiA1jeR/eJCcIuD7n9B6okhk2rbrJMRDarvZhY8rFs/Hz94S78TyKUnOyzd/4OXbP/GKeET37dp7GDPnLMTY8VMESb36wdnFjcRKU0RuPD29Rb4N12biiekaNGxEYtMTSUl9hOhwDk7r1u1EKQEeMcRDvQODghEVXVtUxubh0XFx8Rg/bgJWrlwj5r7h2kec98IRGy4rwDPwXrt2U4zMCgoOwa3bD3D23GUhMtyFJATmAgkMwfcrwsVLJDAnMwkMfX9Sn1Oxghq74oJUQ/6lIgtMMeMjAZD5NNS45xQWmNt3UuFRwwtGYfZw6RQJxzZhCuPcIQKagdbw9PPDy1d/0HeomMAUJvgX/PCR40VC6dChw0SdnUEDB2OgYBAGDEin/0D0J/r1G0D0F/Tt0w99BH3Ru3cfQZ8+feh5A2BmZoqOnbqJqIm0mOUeH70v+h64S4q7x95y9OZXkOD8Kbqkrly7iwuXbuLshWtY+stqtIhLIBmJRM1akWjUuDk8PLzTCizq6IiRQTy7cOs27ZGQ0EYk0HL3VJvW7UWiMXdD1a1bH97evrCwsBRDx3kOGC7U2J1kiD+fqVOn0/NiERJakwQmWUjIzVsPZIEpqlDDK5M7lEhOpYZPpvBCDa1MGpISUsCkPH6Fh49eghM/fWNqIXFwT7To00lhWg3qDp/YmvANCBRdG9zlIbWdwszrt39h/KTpouLx1GkzMXX6TEyZOgNT+HZW6LFp02d9zIx/mD5zNubOWwhXV9e/BUZquzlCSlr+BZZLHnXG0vro6Vux5DybDMlh+LM4ceoSlq9YhznzFmP23EUYPmKsSCzWNzAQ0lCjhofItfHw8BJDnfk2JxL37t1PCA7Tvn0nUTqBk4m5phJXkg4lgbl7L1XIyq3bD0lgRgiBuXDxmuDc+SsKcenyDZw8dV7sy4SJ08V+S73fLx0p0c0dqPGVyRVIYF6Ii6ZMUYUurLkBXdRl/uGjBu8TsMCkElGRddB+wkCsvHEYi87sVJhfrh5Am/H9ERASiucvf6PvougJzPNXv2HZirVwo4aWuzhu3U3Gzdv3s82tOw/oO3giKj9zwm2eCEwe8uT5O9ENxZGNN79C3Obj5M79x7h5JwXXbj7Api270K1HbzRs3BT16jdCq4S28A8IRmVNTaipq4saT43osfj4BCS2bgtjY1MRpeHh01ev3UYKnbOjRo8TI6s4GsNcv3FXIW7feSgkxsDAEBNIPHmEl9T7yDHUWMvkPtJSlBOk5aAoUOIhXTBliicfy05RhIQiN6ALal7A8sJERtZG/PCemHdqG6btX6Mwc45vRvNh3REQHIIXJDDie5PYTmHmxavfsWTZKjg5u+Ds+UviVz5Xbs4u585fpkb6FqKiooXA/EoCI7XdokTKo5diyD3n3jBPn78XgsNyxu+PuXr9HrZu34OVqzdgOQnhzFnzEV07FpZW1qLWk6mpucinqV07Br1790WdOrFiBuLFi5fhZ2LRoqUKsWTJcsybtwilS5XG6LGTRJJ05n2VlBGZogfJSXFHFhiZXEdaRIoSdCFXkNQn/whMi+HdMfvUZkzev1JhZh7fgKYjusI/OJhEgATmEW2fLj5FCU5+nTPvZxE1YPk4e+6KGCmTXThP48pVEpjIdIH5o+gLjCI8fvoGL1//jtdv/xRdUa/e/Emi804ID3dT7tpzCBMmTkOv3v3RoWNXtGzVGmE1IxAaVkssFSdc5NPwSKt9B47h2Yv3kvsjk4akHMgUCkrwBVPmC4Qaapmc84gal0f0y5q7kJqN6IYZpzdhwoEVCjPtxHo0HtGFBCZERDK4oZKWqsILJ7fOXbAEtnb26VGUyyQiF7MNr+PK1ZtiFFL7jiQwf5LASGz3S4AjN2ndlK/FcPDX7/4So7JY6jiCw8fg3QdPBPcUIOO53J3FXV3PXvwqfslKbfvL4GNhkSk6lEihxkzmy0ZScIo6dHHKDz4QmFEkMGdJYA6RnAhWfsDEwx8z/fQGNBnVFQEhIXhJAsMNltR2CjMcKZiXLjA8ads5Hu3CIpJNeB1XSWA4uZWHI/9GAiO13S8dPlb4+OPIjaI8ygRLETfiUuuW+TQfS5DMx5BgKIKElPwXSGDI8GWKAR+LSVFAUj6KEI+epglMzbAINB3dFbMub8WEY6sIkhbm6AqMZ44Qh5djXAaHfsFYYvKpNag3vD18AgJE90HK46IrMDzPSVphxCvpIpM9eB3X0nNgZIGRkcke0mJRvCjBF0yZLwRJ8SmOSMtSXsA5MM9fvkerVm1g5WoLj6gguNXyg2vNDHzhGuYLlzAfuIQy3nAOIYK94RTsJe4zsbcWOQmc+5AqvifpbRVWeL/npwvMhQtXCJ4ZNq3Cc3bgdVy/fhvR6QLz+1+Q3K7Mf0dKwmUKEGqEZbJPCb5gyhR9JIWlMCEpGsWDRyQxt+6k4MTx8zhy6BSOHj6dhTMfcyQdun3yxAVcvXaXvsdXEuuXbogKEyww8+Yvhr29A25cv5A9Bp0AAAV/SURBVIObPFz32u1sw+u4fz8FMTExX5jAZP3uixNS77f4IikrxQkJmSgIZIGRKbZIilReQBfoJ8/e4vmrX7PN0xfvxHok15+ZDxqFwgGPmFmwcKkY6rts2UrB0qUrsg2/fvWq9aISNM+P8idYYKS3LSMj81+QFq6iiiwwMjLFAEnZySdYvs5euEqy0QbNmsfnGg0bNcHPi5fjzbvfJLerCFKflUzhRup7LJJICoRMblKCw98yMv8FMffJE7rY5AQ6wWWKB/xLiCNQv/0BMSlabsHre/Xmd6SkvpDcroyMTMEgKWwFgCwwMkUeSUH6HHTgy+QBUp91TpHajoyMjAwhC4wCPP4EUs+VkZGRkZHJK3IUAZeQgKJMicdPqTGWkSlM0AkqhdTJLCMjIyPzZSILjIxMdqETSBarokNmGVYIqe9cpvgidQykI3U8yRQ8JDA8FXXu8KSw86wQI7W/eYTUd1d0oQuMjIyMjEzRgyTk35ASlwxKiEZNqkGVkfk3+NjJA6RF5UuFTuIih9T7kJGR+TRS55HMv1FCsmGSkZEpOtAFsNAgtX8yMjK5h9R5l4tIC1bhpFAKzFOZHCH1mcrIyMjIyOQLJBd5jRCYp8+p0SsQ3sgUKaS+wxxAB3lhRfKElCmSSH2/MjKFHaljWeZjSGCkGisZmaICnfC5DZ0YMkUUqe+z2CB1/MsUHFLfUTaROpYLMVIyURCUeEZfhIxMXiN9AZCRkSnKSJ3ruYHUtmSKAyRAuUj+C8wLmUKP1PdWDJE+wWSKOlLftYxMcUPq2P/SKCHZgH3BPM9npPZB5guGTsoij9T7kpGRKbxIncdFgBLPX7ylhlRGpqgiLYZZkTxpZYo1UsdB3iB1XMrI5AZSx5s0UudAcee/C8xLGZlPIHW8yMjIFB6kztsvAanPQuYzSEuSokjJRl5QQvLLziYvZIotUt+3jIxM8UXqOlBUkXp/MvmMpCjljBJSX7aMTFFD8oSRkcmE1HEjI1PckDr2iyslXryiN10keCeT50h97nkEHXwyMsUGqWNcRia7SB1jMh9BAiPVkOU/L2XyFanvoOhAB29+I3HyyOQSUp93gSN13MlIIXV9KWik9rN4IXXM5jFS524BU0Lqy5eRkckbpC9GhQ+pfZeRkZH5HFLXktyH5CWdoiswr2U+idTnJSMjIyMjU0xgmSnBDd4rGZl84CPRKi5kObFkJJD63IoJUse6jExeInUcFgqkzv08pITUh/Pl8L6QIrWvMvmF5Ikpk+tIffYyxRWp61xhR+p9yGRG6rzOcz4UGKkvrgjwRuaTSH1eMoUM6QtC0UPqvcnIyBRvpK4F+U+J19TgycgUdSRFLr+QPMFlBFKfVy4idSzIyMjkHlLnnUJIXQ9yGVlgZGRkZGRkZAoESflRhC9GYN6m8aYAyNh2tpF6PzIyMjIFxJsvDKnPQKZwUEKy0SSkGuOC59cvEKnPofAhdQx9FomDUUamwJA6RgmpY73wI3UdkSncSH2POUPqeJY89oswJaQ/TBkZmbxH+sJTuJF6HzIyMjKfQuo6ojifkzBZYGRkZGRkZGSKGOkC81ZR3snIpCN1fGTi44NNRqZwI3UcC6SOfxmZwozUcUxIHfdFmRKSb15GpjhBB/rnkDoxZPIWqe/hs0h9rzIyMgWL1LlKSJ3zeYEsMDIyMjIyMjJFDhKY3+jGP7yTkckGWY+jvEP6QJb50pA6NnKG1HEtI1OckDruFUfqPCxYSki9yQ94LyMjgdSxUsSQPkll8gup76TQIHXMy8gUJaSO6zxG6jz/PNJioiglJN+4jIyMjIyMjExBQHKjCLLAyMjIyMjIyBQ5Sryn/2RkChNSB6qMzOeQOo5kZGSyj9R5Vrj4Df8PDetQniih0oEAAAAASUVORK5CYII=;connectable=0;" vertex="1" parent="1">
                    <mxGeometry x="190" y="260" width="519.82" height="220" as="geometry"/>
                </mxCell>
                <mxCell id="3" value="&lt;font style=&quot;font-size: 24px;&quot;&gt;压杆&lt;/font&gt;" style="text;html=1;strokeColor=none;fillColor=none;align=center;verticalAlign=middle;whiteSpace=wrap;rounded=0;rotation=0;" vertex="1" parent="1">
                    <mxGeometry x="200" y="460" width="60" height="30" as="geometry"/>
                </mxCell>
                <mxCell id="4" value="" style="endArrow=none;html=1;fontSize=24;strokeWidth=3;strokeColor=#6666FF;" edge="1" parent="1">
                    <mxGeometry width="50" height="50" relative="1" as="geometry">
                        <mxPoint x="250" y="454" as="sourcePoint"/>
                        <mxPoint x="270" y="414" as="targetPoint"/>
                    </mxGeometry>
                </mxCell>
                <mxCell id="5" value="&lt;font style=&quot;font-size: 24px;&quot;&gt;滑槽&lt;/font&gt;&lt;span style=&quot;color: rgba(0, 0, 0, 0); font-family: monospace; font-size: 0px; text-align: start;&quot;&gt;%3CmxGraphModel%3E%3Croot%3E%3CmxCell%20id%3D%220%22%2F%3E%3CmxCell%20id%3D%221%22%20parent%3D%220%22%2F%3E%3CmxCell%20id%3D%222%22%20value%3D%22%26lt%3Bfont%20style%3D%26quot%3Bfont-size%3A%2024px%3B%26quot%3B%26gt%3B%E5%8E%8B%E6%9D%86%26lt%3B%2Ffont%26gt%3B%22%20style%3D%22text%3Bhtml%3D1%3BstrokeColor%3Dnone%3BfillColor%3Dnone%3Balign%3Dcenter%3BverticalAlign%3Dmiddle%3BwhiteSpace%3Dwrap%3Brounded%3D0%3Brotation%3D0%3B%22%20vertex%3D%221%22%20parent%3D%221%22%3E%3CmxGeometry%20x%3D%22200%22%20y%3D%22460%22%20width%3D%2260%22%20height%3D%2230%22%20as%3D%22geometry%22%2F%3E%3C%2FmxCell%3E%3C%2Froot%3E%3C%2FmxGraphModel%3E&lt;/span&gt;" style="text;html=1;strokeColor=none;fillColor=none;align=center;verticalAlign=middle;whiteSpace=wrap;rounded=0;rotation=0;" vertex="1" parent="1">
                    <mxGeometry x="330" y="280" width="60" height="30" as="geometry"/>
                </mxCell>
                <mxCell id="6" value="&lt;span style=&quot;font-size: 24px;&quot;&gt;套筒&lt;/span&gt;" style="text;html=1;strokeColor=none;fillColor=none;align=center;verticalAlign=middle;whiteSpace=wrap;rounded=0;rotation=0;" vertex="1" parent="1">
                    <mxGeometry x="490" y="280" width="60" height="30" as="geometry"/>
                </mxCell>
                <mxCell id="7" value="&lt;span style=&quot;font-size: 24px;&quot;&gt;转盘&lt;/span&gt;" style="text;html=1;strokeColor=none;fillColor=none;align=center;verticalAlign=middle;whiteSpace=wrap;rounded=0;rotation=0;" vertex="1" parent="1">
                    <mxGeometry x="630" y="460" width="60" height="30" as="geometry"/>
                </mxCell>
                <mxCell id="8" value="" style="endArrow=none;html=1;fontSize=24;strokeWidth=3;strokeColor=#6666FF;" edge="1" parent="1">
                    <mxGeometry width="50" height="50" relative="1" as="geometry">
                        <mxPoint x="380" y="350" as="sourcePoint"/>
                        <mxPoint x="360" y="320" as="targetPoint"/>
                    </mxGeometry>
                </mxCell>
                <mxCell id="9" value="" style="endArrow=none;html=1;fontSize=24;strokeWidth=3;strokeColor=#6666FF;" edge="1" parent="1">
                    <mxGeometry width="50" height="50" relative="1" as="geometry">
                        <mxPoint x="510" y="380" as="sourcePoint"/>
                        <mxPoint x="510" y="320" as="targetPoint"/>
                    </mxGeometry>
                </mxCell>
                <mxCell id="10" value="" style="endArrow=none;html=1;fontSize=24;strokeWidth=3;strokeColor=#6666FF;" edge="1" parent="1">
                    <mxGeometry width="50" height="50" relative="1" as="geometry">
                        <mxPoint x="640" y="420" as="sourcePoint"/>
                        <mxPoint x="660" y="450" as="targetPoint"/>
                    </mxGeometry>
                </mxCell>
            </root>
        </mxGraphModel>
    </diagram>
</mxfile>